<?xml version="1.0" encoding="utf-8"?>
<!-- Generator: Adobe Illustrator 23.1.1, SVG Export Plug-In . SVG Version: 6.00 Build 0)  -->
<svg version="1.1" id="レイヤー_1" xmlns="http://www.w3.org/2000/svg" xmlns:xlink="http://www.w3.org/1999/xlink" x="0px"
	 y="0px" width="500px" height="500px" viewBox="0 0 500 500" style="enable-background:new 0 0 500 500;" xml:space="preserve">
<style type="text/css">
	.st0{fill:#D9EBF9;}
	.st1{fill:#354471;}
	.st2{fill:#FFFFFF;}
	.st3{fill:#F6ED82;}
	.st4{fill:none;stroke:#354471;stroke-width:1.7033;stroke-linecap:round;stroke-linejoin:round;stroke-miterlimit:10;}
	.st5{fill:#8FA0C3;}
	.st6{fill:none;stroke:#707A9A;stroke-width:1.7033;stroke-linejoin:round;stroke-miterlimit:10;}
	.st7{opacity:0.73;}
	.st8{fill:#DBE876;}
	.st9{fill:none;stroke:#354471;stroke-width:2.8389;stroke-linecap:round;stroke-linejoin:round;stroke-miterlimit:10;}
	.st10{opacity:0.76;}
	.st11{fill:#EBB1C4;}
</style>
<g>
	<circle class="st0" cx="250" cy="250" r="245"/>
</g>
<g>
	<g>
		<path class="st1" d="M24.2,75.1c-5.5,0-9.9-1.7-13.2-5c-3.3-3.3-4.9-7.7-4.9-13.3s1.6-10,4.8-13.3c3.2-3.3,7.6-5,13.1-5
			c3.8,0,7.2,0.8,10.1,2.4c0.6,0.3,0.7,0.8,0.4,1.4c-0.1,0.2-0.3,0.4-0.6,0.5c-0.3,0.1-0.5,0.1-0.8-0.1c-2.7-1.4-5.7-2.1-9-2.1
			c-4.9,0-8.7,1.4-11.5,4.3c-2.8,2.9-4.2,6.8-4.2,11.8c0,5,1.4,8.9,4.2,11.8c2.8,2.9,6.7,4.4,11.5,4.4c3.4,0,6.5-0.6,9.1-1.7
			c0.3-0.2,0.5-0.4,0.5-0.7V56.9c0-0.4-0.2-0.5-0.6-0.5H21.5c-0.3,0-0.5-0.1-0.7-0.3s-0.3-0.4-0.3-0.7c0-0.3,0.1-0.5,0.3-0.7
			s0.4-0.3,0.7-0.3h10.7c1.1,0,2.1,0.4,2.9,1.2c0.8,0.8,1.2,1.8,1.2,2.9v9.9c0,1.3-0.3,2.5-1,3.5c-0.7,1.1-1.6,1.8-2.8,2.1
			C30.1,74.7,27.3,75.1,24.2,75.1z"/>
		<path class="st1" d="M62.4,71.6c-2.1,2.4-5,3.6-8.5,3.6c-3.6,0-6.4-1.2-8.5-3.6c-2.1-2.4-3.2-5.6-3.2-9.6c0-4,1.1-7.2,3.2-9.6
			c2.1-2.4,5-3.6,8.5-3.6c3.6,0,6.4,1.2,8.5,3.6c2.1,2.4,3.2,5.6,3.2,9.6C65.5,66,64.5,69.2,62.4,71.6z M60.7,53.8c-1.7-2-4-3-6.9-3
			c-2.9,0-5.2,1-6.9,3c-1.7,2-2.5,4.7-2.5,8.2c0,3.5,0.8,6.2,2.5,8.2c1.7,2,4,3,6.9,3c2.9,0,5.2-1,6.9-3c1.7-2,2.5-4.7,2.5-8.2
			C63.3,58.5,62.4,55.8,60.7,53.8z"/>
		<path class="st1" d="M89.9,71.6c-2.1,2.4-5,3.6-8.5,3.6c-3.6,0-6.4-1.2-8.5-3.6c-2.1-2.4-3.2-5.6-3.2-9.6c0-4,1.1-7.2,3.2-9.6
			c2.1-2.4,5-3.6,8.5-3.6c3.6,0,6.4,1.2,8.5,3.6c2.1,2.4,3.2,5.6,3.2,9.6C93.1,66,92.1,69.2,89.9,71.6z M88.3,53.8c-1.7-2-4-3-6.9-3
			c-2.9,0-5.2,1-6.9,3c-1.7,2-2.5,4.7-2.5,8.2c0,3.5,0.8,6.2,2.5,8.2c1.7,2,4,3,6.9,3c2.9,0,5.2-1,6.9-3c1.7-2,2.5-4.7,2.5-8.2
			C90.8,58.5,90,55.8,88.3,53.8z"/>
		<path class="st1" d="M107.7,74.1c-3.1,0-5.5-1.1-7.4-3.4c-1.9-2.3-2.8-5.4-2.8-9.3c0-4,0.9-7.1,2.7-9.3c1.8-2.2,4.3-3.3,7.5-3.3
			c4.1,0,7,1.8,8.8,5.3c0,0.1,0,0.1,0.1,0.1c0,0,0,0,0,0v-3.7c0-0.3,0.1-0.5,0.3-0.8c0.2-0.2,0.5-0.3,0.8-0.3c0.3,0,0.5,0.1,0.8,0.3
			c0.2,0.2,0.3,0.5,0.3,0.8v22.4c0,8.7-3.7,13-11.2,13c-2.5,0-4.8-0.4-6.8-1.2c-0.3-0.1-0.5-0.3-0.6-0.6c-0.1-0.3-0.1-0.5,0-0.8
			c0.1-0.2,0.2-0.4,0.5-0.5c0.2-0.1,0.5-0.1,0.8,0c2,0.8,4,1.2,6.2,1.2c3.1,0,5.3-0.9,6.8-2.7c1.5-1.8,2.2-4.5,2.2-8.3v-4
			c0,0,0,0,0,0c-0.1,0-0.1,0-0.1,0.1C114.7,72.4,111.8,74.1,107.7,74.1z M108.1,50.8c-2.6,0-4.6,0.9-6.1,2.8
			c-1.5,1.9-2.2,4.5-2.2,7.9c0,3.3,0.7,5.9,2.2,7.8c1.5,1.9,3.5,2.9,6,2.9c2.4,0,4.5-0.9,6.1-2.8s2.4-4.4,2.4-7.6v-0.5
			c0-3.2-0.8-5.7-2.4-7.6C112.5,51.7,110.5,50.8,108.1,50.8z"/>
		<path class="st1" d="M130.6,74.3c-0.2,0.2-0.5,0.3-0.8,0.3c-0.3,0-0.6-0.1-0.8-0.3c-0.2-0.2-0.3-0.5-0.3-0.8V39.3
			c0-0.3,0.1-0.6,0.3-0.8c0.2-0.2,0.5-0.3,0.8-0.3c0.3,0,0.6,0.1,0.8,0.3c0.2,0.2,0.3,0.5,0.3,0.8v34.2
			C130.9,73.8,130.8,74.1,130.6,74.3z"/>
		<path class="st1" d="M150.9,75.1c-3.6,0-6.5-1.2-8.7-3.5c-2.2-2.4-3.2-5.6-3.2-9.6c0-4.1,1-7.3,3.1-9.6c2-2.3,4.8-3.5,8.4-3.5
			c2.9,0,5.3,0.8,7.1,2.5s2.9,4.1,3.3,7.3c0.2,1.1-0.2,2.1-0.9,2.9c-0.8,0.8-1.8,1.2-3,1.2h-15c-0.4,0-0.5,0.2-0.5,0.5
			c0.1,3.1,1.1,5.5,2.8,7.3s4.1,2.6,7,2.6c2.4,0,4.6-0.5,6.8-1.6c0.2-0.1,0.5-0.1,0.7,0c0.2,0.1,0.4,0.3,0.5,0.5
			c0.2,0.6,0,1.1-0.5,1.4C156.2,74.6,153.6,75.1,150.9,75.1z M150.4,50.7c-2.7,0-4.8,0.8-6.4,2.5c-1.6,1.7-2.5,4-2.7,7.1
			c0,0.4,0.2,0.6,0.5,0.6h16.4c0.4,0,0.5-0.2,0.5-0.5c-0.2-3.1-1-5.5-2.4-7.1C155,51.6,153,50.7,150.4,50.7z"/>
		<path class="st1" d="M196.5,75.1c-5.3,0-9.5-1.7-12.6-5c-3.2-3.3-4.7-7.7-4.7-13.3c0-5.6,1.6-10.1,4.7-13.3
			c3.1-3.3,7.4-4.9,12.7-4.9c3.7,0,7,0.9,10,2.6c0.6,0.3,0.7,0.8,0.4,1.5c-0.1,0.3-0.3,0.4-0.6,0.5c-0.3,0.1-0.5,0.1-0.8-0.1
			c-2.8-1.6-5.7-2.4-8.9-2.4c-4.6,0-8.3,1.5-11,4.4c-2.7,2.9-4.1,6.9-4.1,11.8c0,4.9,1.4,8.8,4.1,11.8c2.8,2.9,6.4,4.4,10.9,4.4
			c3.2,0,6.2-0.8,8.9-2.4c0.3-0.1,0.5-0.2,0.8-0.1c0.3,0.1,0.5,0.3,0.6,0.5c0.3,0.6,0.2,1.1-0.4,1.5
			C203.5,74.3,200.2,75.1,196.5,75.1z"/>
		<path class="st1" d="M218.3,74.3c-0.2,0.2-0.5,0.3-0.8,0.3c-0.3,0-0.6-0.1-0.8-0.3c-0.2-0.2-0.3-0.5-0.3-0.8V39.3
			c0-0.3,0.1-0.6,0.3-0.8c0.2-0.2,0.5-0.3,0.8-0.3c0.3,0,0.6,0.1,0.8,0.3c0.2,0.2,0.3,0.5,0.3,0.8v34.2
			C218.6,73.8,218.5,74.1,218.3,74.3z"/>
		<path class="st1" d="M246.9,71.6c-2.1,2.4-5,3.6-8.5,3.6c-3.6,0-6.4-1.2-8.5-3.6c-2.1-2.4-3.2-5.6-3.2-9.6c0-4,1.1-7.2,3.2-9.6
			c2.1-2.4,5-3.6,8.5-3.6c3.6,0,6.4,1.2,8.5,3.6c2.1,2.4,3.2,5.6,3.2,9.6C250.1,66,249,69.2,246.9,71.6z M245.3,53.8
			c-1.7-2-4-3-6.9-3c-2.9,0-5.2,1-6.9,3c-1.7,2-2.5,4.7-2.5,8.2c0,3.5,0.8,6.2,2.5,8.2c1.7,2,4,3,6.9,3c2.9,0,5.2-1,6.9-3
			c1.7-2,2.5-4.7,2.5-8.2C247.8,58.5,247,55.8,245.3,53.8z"/>
		<path class="st1" d="M263.8,75.1c-2.8,0-4.9-0.8-6.2-2.3c-1.3-1.5-1.9-4-1.9-7.5V50.4c0-0.3,0.1-0.6,0.3-0.8
			c0.2-0.2,0.5-0.3,0.8-0.3s0.6,0.1,0.8,0.3c0.2,0.2,0.3,0.5,0.3,0.8v14.8c0,2.9,0.5,4.9,1.5,6.1c1,1.2,2.6,1.8,5,1.8
			c2.1,0,4-1,5.7-3c1.8-2,2.6-4.4,2.6-7.3V50.4c0-0.3,0.1-0.6,0.3-0.8c0.2-0.2,0.5-0.3,0.8-0.3s0.6,0.1,0.8,0.3
			c0.2,0.2,0.3,0.5,0.3,0.8v23.1c0,0.3-0.1,0.5-0.3,0.8c-0.2,0.2-0.5,0.3-0.8,0.3c-0.3,0-0.6-0.1-0.8-0.3c-0.2-0.2-0.3-0.5-0.3-0.8
			v-4.2c0,0,0,0,0,0c-0.1,0-0.1,0-0.1,0c-0.9,1.8-2.2,3.2-3.7,4.2C267.4,74.6,265.7,75.1,263.8,75.1z"/>
		<path class="st1" d="M291.4,75.1c-3.1,0-5.6-1.2-7.5-3.5c-1.8-2.3-2.8-5.5-2.8-9.7c0-4.2,0.9-7.4,2.7-9.7c1.8-2.3,4.3-3.5,7.5-3.5
			c4.1,0,7,1.8,8.7,5.3c0,0.1,0,0.1,0,0.1s0,0,0,0V39.2c0-0.3,0.1-0.6,0.3-0.8c0.2-0.2,0.5-0.3,0.8-0.3c0.3,0,0.6,0.1,0.8,0.3
			c0.2,0.2,0.3,0.5,0.3,0.8v34.3c0,0.3-0.1,0.6-0.3,0.8c-0.2,0.2-0.5,0.3-0.8,0.3s-0.6-0.1-0.8-0.3c-0.2-0.2-0.3-0.5-0.3-0.8l0-3.7
			c0,0,0,0,0,0s0,0,0,0C298.5,73.3,295.5,75.1,291.4,75.1z M291.8,50.8c-2.6,0-4.7,1-6.2,2.9c-1.5,2-2.3,4.7-2.3,8.3
			c0,3.5,0.8,6.3,2.3,8.3c1.5,2,3.6,2.9,6.2,2.9c2.5,0,4.5-0.9,6-2.8c1.5-1.9,2.3-4.5,2.3-8v-0.8c0-3.3-0.8-6-2.3-7.9
			C296.3,51.7,294.3,50.8,291.8,50.8z"/>
	</g>
</g>
<g>
	<g>
		<path class="st2" d="M154.7,247.9c-32.3,0-58.5-23.7-58.5-52.8c0-11.6,4.1-22.6,11.8-31.8c6.8-8.1,16.1-14.3,26.6-17.8
			c0.1-28.5,23.8-51.6,52.8-51.6c19.2,0,37,10.4,46.2,26.8c3.7-1.2,7.6-1.8,11.6-1.8c20.7,0,37.5,16.5,37.5,36.9
			c0,3.9-0.6,7.7-1.8,11.3c12.8,8,20.6,21.7,20.6,36.5c0,23-18.3,41.8-42,43.4c-0.5,0.2-1,0.3-1.5,0.3h-95.4
			C159.9,247.7,157.2,247.9,154.7,247.9z"/>
		<path class="st2" d="M154.7,251.2c-34.1,0-61.8-25.1-61.8-56c0-12.4,4.3-24.1,12.6-33.9c6.6-7.9,15.8-14.2,25.9-18
			c1.4-29.2,26-52.5,56-52.5c19.5,0,37.6,10,47.7,26.3c3.3-0.8,6.6-1.2,10-1.2c22.5,0,40.8,18,40.8,40.2c0,3.4-0.4,6.7-1.3,9.9
			c12.6,8.8,20.1,22.8,20.1,37.9c0,12-4.6,23.3-13,32c-8.3,8.5-19.4,13.7-31.5,14.6c-0.7,0.2-1.5,0.3-2.2,0.3h-95.2
			C160,251,157.3,251.2,154.7,251.2z"/>
	</g>
	<path class="st3" d="M288.9,205c0-15-8.7-28.1-21.6-34.8c1.8-4,2.7-8.4,2.7-13c0-18.2-15-33-33.6-33c-4.8,0-9.3,1-13.5,2.8
		c-7.8-16.4-24.7-27.8-44.3-27.8c-27,0-48.8,21.5-48.8,48c0,0.9,0,1.7,0.1,2.6c-22.3,6.1-38.5,24.7-38.5,46.7
		c0,27,24.5,48.8,54.6,48.8c2.6,0,5.2-0.2,7.7-0.5h95.6v-0.2C271.3,243.7,288.9,226.4,288.9,205z"/>
	<path class="st4" d="M299.2,203.7c0-15-8.7-28.1-21.6-34.8c1.8-4,2.7-8.4,2.7-13c0-18.2-15-33-33.6-33c-4.8,0-9.3,1-13.5,2.8
		c-7.8-16.4-24.7-27.8-44.3-27.8c-27,0-48.8,21.5-48.8,48c0,0.9,0,1.7,0.1,2.6c-22.3,6.1-38.5,24.7-38.5,46.7
		c0,27,24.5,48.8,54.6,48.8c2.6,0,5.2-0.2,7.7-0.5h95.6v-0.2C281.7,242.5,299.2,225.1,299.2,203.7z"/>
</g>
<g>
	<g>
		<path class="st2" d="M25.1,474.6c-2.1,0-3.9-1.7-3.9-3.8l-0.1-7.5c0-0.9,0.3-1.9,0.9-2.6l29.8-35.4c-0.3-0.6-0.5-1.2-0.5-1.9
			V276.8c0-2.2,1.8-3.9,3.9-3.9h214.3c2.2,0,3.9,1.8,3.9,3.9v146.6c0,0.4-0.1,0.8-0.2,1.2l29.5,36.4c0.6,0.7,0.9,1.5,0.9,2.4
			l0.1,6.9c0,1-0.4,2-1.1,2.8c-0.7,0.7-1.7,1.2-2.8,1.2L25.1,474.6C25.1,474.6,25.1,474.6,25.1,474.6z"/>
		<path class="st2" d="M25.1,477.9C25.1,477.9,25.1,477.9,25.1,477.9c-3.9,0-7.1-3.2-7.2-7.1l-0.1-7.5c0-1.7,0.6-3.4,1.7-4.7
			l28.6-34c-0.1-0.4-0.1-0.8-0.1-1.2V276.8c0-4,3.2-7.2,7.2-7.2h214.3c4,0,7.2,3.2,7.2,7.2v146.6c0,0.1,0,0.1,0,0.2l28.6,35.3
			c1,1.3,1.6,2.8,1.6,4.5l0.1,6.9c0,1.9-0.7,3.8-2.1,5.1c-1.3,1.4-3.2,2.1-5.1,2.1L25.1,477.9z"/>
	</g>
	<polygon class="st5" points="189.2,279.3 54.7,279.3 54.7,413.9 259.5,413.9 259.5,318.6 	"/>
	<g>
		<g>
			<path class="st4" d="M269.4,420.1c0,1.8-1.4,3.2-3.2,3.2H58.4c-1.8,0-3.2-1.4-3.2-3.2V280c0-1.8,1.4-3.2,3.2-3.2h207.9
				c1.8,0,3.2,1.4,3.2,3.2V420.1z"/>
		</g>
		<rect x="59.9" y="282.4" class="st4" width="204.8" height="134.5"/>
		<polygon class="st4" points="299.7,470.3 25.1,470.7 24.9,463.2 58.6,423.1 266.9,422.9 299.6,463.4 		"/>
		<line class="st4" x1="27.9" y1="464" x2="294.5" y2="463.4"/>
		<polygon class="st4" points="124.6,461.4 127.6,451.3 192.3,451.3 195.1,460.8 		"/>
		<g>
			<g>
				<rect x="62.9" y="440.6" class="st6" width="12.7" height="2.4"/>
				<rect x="81.8" y="440.6" class="st6" width="12.7" height="2.4"/>
				<rect x="100.6" y="440.6" class="st6" width="12.7" height="2.4"/>
				<rect x="119.5" y="440.6" class="st6" width="12.7" height="2.4"/>
				<rect x="138.4" y="440.6" class="st6" width="12.7" height="2.4"/>
				<rect x="157.2" y="440.6" class="st6" width="12.7" height="2.4"/>
				<rect x="176.1" y="440.6" class="st6" width="12.7" height="2.4"/>
				<rect x="194.9" y="440.6" class="st6" width="12.7" height="2.4"/>
				<rect x="213.8" y="440.6" class="st6" width="12.7" height="2.4"/>
				<rect x="232.7" y="440.6" class="st6" width="12.7" height="2.4"/>
				<rect x="251.5" y="440.6" class="st6" width="12.7" height="2.4"/>
			</g>
			<g>
				<rect x="66.8" y="434.8" class="st6" width="12.3" height="2.3"/>
				<rect x="85.1" y="434.8" class="st6" width="12.3" height="2.3"/>
				<rect x="103.3" y="434.8" class="st6" width="12.3" height="2.3"/>
				<rect x="121.6" y="434.8" class="st6" width="12.3" height="2.3"/>
				<rect x="139.9" y="434.8" class="st6" width="12.3" height="2.3"/>
				<rect x="158.2" y="434.8" class="st6" width="12.3" height="2.3"/>
				<rect x="176.5" y="434.8" class="st6" width="12.3" height="2.3"/>
				<rect x="194.7" y="434.8" class="st6" width="12.3" height="2.3"/>
				<rect x="213" y="434.8" class="st6" width="12.3" height="2.3"/>
				<rect x="231.3" y="434.8" class="st6" width="12.3" height="2.3"/>
				<rect x="249.6" y="434.8" class="st6" width="12.3" height="2.3"/>
			</g>
			<g>
				<rect x="71" y="429.3" class="st6" width="11.7" height="1.9"/>
				<rect x="88.4" y="429.3" class="st6" width="11.7" height="1.9"/>
				<rect x="105.8" y="429.3" class="st6" width="11.7" height="1.9"/>
				<rect x="123.2" y="429.3" class="st6" width="11.7" height="1.9"/>
				<rect x="140.6" y="429.3" class="st6" width="11.7" height="1.9"/>
				<rect x="158" y="429.3" class="st6" width="11.7" height="1.9"/>
				<rect x="175.4" y="429.3" class="st6" width="11.7" height="1.9"/>
				<rect x="192.8" y="429.3" class="st6" width="11.7" height="1.9"/>
				<rect x="210.2" y="429.3" class="st6" width="11.7" height="1.9"/>
				<rect x="227.6" y="429.3" class="st6" width="11.7" height="1.9"/>
				<rect x="245" y="429.3" class="st6" width="11.7" height="1.9"/>
			</g>
			<g>
				<rect x="57.7" y="446.7" class="st6" width="12.5" height="2.4"/>
				<rect x="76.3" y="446.7" class="st6" width="12.5" height="2.4"/>
				<rect x="94.8" y="446.7" class="st6" width="12.5" height="2.4"/>
				<rect x="113.4" y="446.7" class="st6" width="12.5" height="2.4"/>
				<rect x="131.9" y="446.7" class="st6" width="12.5" height="2.4"/>
				<rect x="150.4" y="446.7" class="st6" width="12.5" height="2.4"/>
				<rect x="169" y="446.7" class="st6" width="12.5" height="2.4"/>
				<rect x="187.5" y="446.7" class="st6" width="12.5" height="2.4"/>
				<rect x="206.1" y="446.7" class="st6" width="12.5" height="2.4"/>
				<rect x="224.6" y="446.7" class="st6" width="12.5" height="2.4"/>
				<rect x="243.1" y="446.7" class="st6" width="12.5" height="2.4"/>
				<rect x="260.8" y="446.7" class="st6" width="12.5" height="2.4"/>
			</g>
		</g>
	</g>
</g>
<g>
	<g>
		<path class="st2" d="M449.1,377.5H320.3c-2.1,0-3.7-1.7-3.7-3.7v-171c0-2.1,1.7-3.7,3.7-3.7h37.3v-48.3c0-2.1,1.7-3.7,3.7-3.7
			h93.6c0.9,0,1.8,0.4,2.5,1l35.2,32.5c0.8,0.7,1.2,1.7,1.2,2.7v138.5c0,2.1-1.7,3.7-3.7,3.7h-37.3v48.3
			C452.8,375.9,451.2,377.5,449.1,377.5z"/>
		<path class="st2" d="M449.1,380.7H320.3c-3.8,0-6.9-3.1-6.9-6.9v-171c0-3.8,3.1-6.9,6.9-6.9h34.2v-45.2c0-3.8,3.1-6.9,6.9-6.9
			h93.6c1.7,0,3.4,0.6,4.7,1.8l35.2,32.5c1.4,1.3,2.2,3.1,2.2,5v138.5c0,3.8-3.1,6.9-6.9,6.9h-34.2v45.2
			C455.9,377.6,452.9,380.7,449.1,380.7z"/>
	</g>
	<g class="st7">
		<polygon class="st8" points="443.6,155.1 350.1,155.1 350.1,326.1 478.8,326.1 478.8,187.6 		"/>
	</g>
	<g>
		<polygon class="st4" points="455.8,150.8 362.2,150.8 362.2,321.8 491,321.8 491,183.2 		"/>
		<polyline class="st4" points="456.1,151.5 455.7,183.3 490.1,183.3 		"/>
		<line class="st9" x1="377.6" y1="264.1" x2="456.8" y2="264.1"/>
		<line class="st9" x1="377.2" y1="276.3" x2="474.3" y2="276.3"/>
		<line class="st9" x1="377.2" y1="288.9" x2="474.3" y2="288.9"/>
		<line class="st9" x1="377.2" y1="301.5" x2="474.3" y2="301.5"/>
		<g>
			<path class="st1" d="M375.6,221.6c0.3-1.9,0.4-3.7,0.4-6.2v-24.5c0-2.3-0.1-4-0.4-6.2c2.2,0.1,3.7,0.1,6.6,0.1h10.2
				c4.8,0,8.4,1.1,10.8,3.4c2,1.9,3.1,4.8,3.1,8.2c0,3.6-1.1,6.6-3.4,8.7c-2.4,2.4-6,3.5-10.6,3.5h-8.4v6.7c0,2.6,0.1,4.5,0.4,6.3
				H375.6z M392,202.2c3.9,0,6.1-2,6.1-5.6c0-1.6-0.5-3-1.4-3.9c-1-1-2.5-1.5-4.6-1.5h-8.2v11H392z"/>
			<path class="st1" d="M411.2,190.9c0-2.8-0.1-4.2-0.4-6.2c1.9,0.1,3.1,0.1,6.6,0.1h9.3c5.9,0,10.2,1.4,13.4,4.2
				c3.5,3.2,5.3,7.9,5.3,13.9c0,6.2-1.9,11.1-5.6,14.5c-3.2,2.9-7.4,4.2-13,4.2h-9.4c-3.3,0-4.5,0-6.5,0.1c0.3-1.9,0.4-3.4,0.4-6.2
				V190.9z M426.1,215c3.5,0,5.9-0.8,7.8-2.6c2.2-2.1,3.3-5.4,3.3-9.4c0-4.1-1-7.1-3.1-9.1c-1.8-1.8-4.2-2.5-8-2.5h-6.9V215H426.1z"
				/>
			<path class="st1" d="M458.9,214.8c0,3.4,0.1,5,0.4,6.8h-8.7c0.3-1.7,0.4-3.6,0.4-6.7v-24c0-2.7-0.1-4.1-0.4-6.2
				c1.9,0.1,3.2,0.1,6.5,0.1H471c3.2,0,4.8-0.1,6.9-0.3v7.3c-1.8-0.2-3.7-0.3-6.8-0.3h-12.2v8.6h9.8c3.2,0,4.9-0.1,6.8-0.3v7.1
				c-1.8-0.2-3.8-0.3-6.8-0.3h-9.8V214.8z"/>
		</g>
	</g>
	<g>
		<polygon class="st2" points="414.7,202.8 321.1,202.8 321.1,373.8 449.9,373.8 449.9,235.3 		"/>
		<g class="st10">
			<polygon class="st11" points="403.5,207.5 309.9,207.5 309.9,378.5 438.7,378.5 438.7,240 			"/>
		</g>
		<polyline class="st4" points="415,203.5 414.6,235.4 449,235.4 		"/>
		<line class="st9" x1="336.6" y1="316.1" x2="415.8" y2="316.1"/>
		<line class="st9" x1="336.2" y1="328.3" x2="433.3" y2="328.3"/>
		<line class="st9" x1="336.2" y1="340.9" x2="433.3" y2="340.9"/>
		<line class="st9" x1="336.2" y1="353.5" x2="433.3" y2="353.5"/>
		<g>
			<path class="st1" d="M334.5,273.7c0.3-1.9,0.4-3.7,0.4-6.2v-24.5c0-2.3-0.1-4-0.4-6.2c2.2,0.1,3.7,0.1,6.6,0.1h10.2
				c4.8,0,8.4,1.1,10.8,3.4c2,1.9,3.1,4.8,3.1,8.2c0,3.6-1.1,6.6-3.4,8.7c-2.4,2.4-6,3.5-10.6,3.5h-8.4v6.7c0,2.6,0.1,4.5,0.4,6.3
				H334.5z M350.9,254.2c3.9,0,6.1-2,6.1-5.6c0-1.6-0.5-3-1.4-3.9c-1-1-2.5-1.5-4.6-1.5h-8.2v11H350.9z"/>
			<path class="st1" d="M370.2,243c0-2.8-0.1-4.2-0.4-6.2c1.9,0.1,3.1,0.1,6.6,0.1h9.3c5.9,0,10.2,1.4,13.4,4.2
				c3.5,3.2,5.3,7.9,5.3,13.9c0,6.2-1.9,11.1-5.6,14.5c-3.2,2.9-7.4,4.2-13,4.2h-9.4c-3.3,0-4.5,0-6.5,0.1c0.3-1.9,0.4-3.4,0.4-6.2
				V243z M385.1,267.1c3.5,0,5.9-0.8,7.8-2.6c2.2-2.1,3.3-5.4,3.3-9.4c0-4.1-1-7.1-3.1-9.1c-1.8-1.8-4.2-2.5-8-2.5h-6.9v23.7H385.1z
				"/>
			<path class="st1" d="M417.8,266.9c0,3.4,0.1,5,0.4,6.8h-8.7c0.3-1.7,0.4-3.6,0.4-6.7v-24c0-2.7-0.1-4.1-0.4-6.2
				c1.9,0.1,3.2,0.1,6.5,0.1H430c3.2,0,4.8-0.1,6.9-0.3v7.3c-1.8-0.2-3.7-0.3-6.8-0.3h-12.2v8.6h9.8c3.2,0,4.9-0.1,6.8-0.3v7.1
				c-1.8-0.2-3.8-0.3-6.8-0.3h-9.8V266.9z"/>
		</g>
		<polygon class="st4" points="414.7,202.8 321.1,202.8 321.1,373.8 449.9,373.8 449.9,235.3 		"/>
	</g>
</g>
</svg>
