<?xml version="1.0" encoding="utf-8"?>
<!-- Generator: Adobe Illustrator 23.1.1, SVG Export Plug-In . SVG Version: 6.00 Build 0)  -->
<svg version="1.1" id="レイヤー_1" xmlns="http://www.w3.org/2000/svg" xmlns:xlink="http://www.w3.org/1999/xlink" x="0px"
	 y="0px" width="660px" height="385px" viewBox="0 0 660 385" style="enable-background:new 0 0 660 385;" xml:space="preserve">
<style type="text/css">
	.st0{fill:#F8E695;}
	.st1{fill:#282322;}
	.st2{fill:#4C77B9;}
	.st3{fill:#FFFFFF;}
</style>
<g>
	<rect class="st0" width="660" height="385"/>
</g>
<g>
	<path d="M100.5,45.3c-0.1,0.2-0.3,0.4-0.6,0.4c2.8,3.9,8,7.7,12.5,9.7c-0.5,0.5-0.9,1.1-1.2,1.7c-4.5-2.2-9.7-6.1-12.4-10
		c-2.4,3.5-7.1,7.6-12.2,10.1c-0.2-0.4-0.7-1.1-1.1-1.5c5-2.4,10-6.7,12.2-10.6L100.5,45.3z M86.9,61.7v-1.8h24v1.8H97.1l0.3,0.1
		c-0.1,0.2-0.3,0.3-0.7,0.3c-0.9,1.9-2.1,4.5-3.4,6.6c3.8-0.1,8.2-0.2,12.6-0.4c-1.3-1.5-2.8-3-4.2-4.3l1.6-0.9
		c2.7,2.3,5.6,5.5,6.9,7.6l-1.7,1.1c-0.4-0.6-0.8-1.3-1.4-2c-6.9,0.4-14.3,0.7-18.9,0.8c-0.1,0.3-0.2,0.4-0.5,0.4l-0.7-2.3
		c1.2,0,2.6,0,4.2-0.1c1.2-2.1,2.5-4.9,3.4-7.1H86.9z M91.8,54.3h13.9v1.8H91.8V54.3z"/>
	<path d="M125.5,50.1v1.6h-11.4v-1.6H125.5z M124.3,61.8v8.4h-7.2v1.3h-1.7v-9.8H124.3z M115.4,55.6V54h9v1.6H115.4z M115.4,59.4
		v-1.6h9v1.6H115.4z M124.4,46.3v1.6h-8.8v-1.6H124.4z M122.6,63.4h-5.5v5.1h5.5V63.4z M141,55.2v1.9h-6.6v14.7h-1.9V57.1h-6.9v-1.9
		h6.9v-9.9l2.5,0.2c0,0.2-0.2,0.3-0.6,0.4v9.3H141z"/>
	<path d="M169.1,62.1v1.6h-3v5.2h-1.9v-1.3h-7.3v1.9c0,1.3-0.4,1.8-1.2,2.1c-0.9,0.3-2.4,0.3-4.8,0.3c-0.1-0.5-0.4-1.2-0.7-1.7
		c1.1,0,2.1,0.1,2.9,0.1c1.7,0,1.9,0,1.9-0.7v-2h-9.5V66h9.5v-2.3h-12v-1.6h12V60h-9.3v-1.5h9.3v-1.9h-8.4v-5.5h8.4v-1.8h-11.5v-1.6
		h11.5v-2.4l2.5,0.1c0,0.2-0.2,0.4-0.5,0.4v1.9h11.7v1.6h-11.7v1.8h8.8v5.5h-8.8v1.9h9.2v3.6H169.1z M148.4,55.2h6.5v-2.7h-6.5V55.2
		z M163.7,52.5h-6.8v2.7h6.8V52.5z M156.9,60v2.2h7.3V60H156.9z M164.1,66v-2.3h-7.3V66H164.1z"/>
	<path d="M197.5,50.1h-2.4c-0.8,2.1-2,4-3.5,5.5c1.9,1.4,4,2.5,6.4,3.1c-0.4,0.4-0.9,1.1-1.2,1.6c-2.4-0.7-4.6-1.9-6.5-3.5
		c-1.9,1.6-4.2,2.8-6.8,3.7c-0.2-0.3-0.6-0.9-0.9-1.3c-0.4,1.3-0.9,2.5-1.4,3.4l-1.4-0.7c0.6-1.2,1.2-3.1,1.7-4.8h-3v12.4
		c0,2.1-0.9,2.2-4.5,2.2c-0.1-0.5-0.3-1.3-0.6-1.8c0.7,0,1.5,0.1,2,0.1c1.1,0,1.3,0,1.3-0.5v-10c-1.1,2.9-2.7,5.9-4.4,7.5
		c-0.2-0.5-0.7-1.3-1-1.7c1.8-1.8,3.7-5.1,4.8-8.1h-4.5v-1.7h8c-1.4-1.3-4.2-3.1-6.6-4.1l1.2-1.2c0.9,0.4,1.9,0.9,2.8,1.4
		c1.2-0.9,2.4-2,3.3-3.1h-8.4v-1.7h9.9l0.3-0.1l1.4,0.9c-0.1,0.1-0.3,0.2-0.4,0.3c-1.1,1.5-2.9,3.3-4.7,4.6c1,0.6,1.9,1.3,2.5,1.8
		l-1.2,1.3h2.9l1,0.1c0,0.4-0.7,2.7-0.9,3.4c2.3-0.8,4.5-1.9,6.2-3.3c-1.1-1.1-2.1-2.4-2.9-3.8c-0.7,0.9-1.4,1.8-2.2,2.5
		c-0.4-0.3-1.1-0.9-1.5-1.1c2-1.8,3.9-4.8,4.9-7.9l2.3,0.7c-0.1,0.2-0.3,0.3-0.6,0.3c-0.3,0.7-0.6,1.4-0.9,2.1h9.5V50.1z M195.2,62
		l1.1,0.2c0,0.2,0,0.4-0.1,0.6c-0.5,5.3-1,7.5-1.8,8.3c-0.6,0.6-1.3,0.7-2.9,0.7c-0.6,0-1.3,0-2-0.1c-0.1-0.5-0.2-1.3-0.5-1.8
		c1.3,0.1,2.5,0.1,2.9,0.1c0.5,0,0.7-0.1,1-0.3c0.5-0.5,1-2.2,1.4-6.1h-4.7c-1,3.3-2.9,6.4-7.1,8.2c-0.2-0.4-0.7-1.1-1.1-1.4
		c3.6-1.4,5.4-3.9,6.3-6.8h-4.4V62h4.9c0.2-1,0.4-2.1,0.5-3.1l2.5,0.2c-0.1,0.2-0.3,0.3-0.6,0.4c-0.1,0.8-0.2,1.6-0.4,2.5h4.8
		L195.2,62z M187.1,50.1l-0.1,0.2c0.8,1.5,1.9,2.9,3.2,4.2c1.2-1.3,2.2-2.7,2.9-4.4H187.1z"/>
	<path d="M212.1,60.8h-8.6c-0.1,3.5-0.6,8-2.6,11.1c-0.3-0.3-1.1-0.9-1.5-1.2c2.1-3.1,2.3-7.6,2.3-10.9v-7.9h10.5V60.8z M213,46.9
		v1.8h-12.8v-1.8H213z M210.2,53.6h-6.7V59h6.7V53.6z M226.7,55.2V57h-3.4v14.8h-1.9V57h-5.3c-0.1,4.5-0.9,10.4-4.9,14.7
		c-0.3-0.4-0.9-1.1-1.4-1.3c4-4.3,4.5-10.1,4.5-14.5v-7.6l1.5,0.4c3.2-0.8,6.6-1.9,8.6-3l1.9,1.5c-0.1,0.1-0.3,0.2-0.6,0.1
		c-2.3,1.1-6.1,2.2-9.5,3v4.9H226.7z"/>
	<path d="M243.5,50.5c-0.1,0.3-0.3,0.5-0.7,0.5c-1,8.9-4,16.6-8.8,16.6c-2.4,0-4.6-2.4-4.6-6.9c0-6.9,5.3-12.6,12.9-12.6
		c8.3,0,11.8,5.2,11.8,10.8c0,6.8-3.9,10.1-10.9,11.7c-0.3-0.5-0.7-1.2-1.2-1.7c6.6-1.3,10-4.5,10-9.9c0-4.7-3-9-9.7-9
		c-0.3,0-0.6,0-0.9,0.1L243.5,50.5z M240.7,50.1c-5.8,0.7-9.4,5.5-9.4,10.5c0,3.1,1.3,5,2.7,5C237.5,65.6,240,57.9,240.7,50.1z"/>
	<path d="M280.9,53.5c-0.1,0.3-0.4,0.5-0.8,0.5c-0.3,2-0.8,4.1-1.3,5.8c1.5,0.7,3.2,1.4,4.8,2.2l-0.9,1.9c-1.5-0.8-3-1.5-4.5-2.1
		c-1.4,4.1-3.3,7.1-6.4,9.1c-0.4-0.4-1.1-0.9-1.6-1.2c3-2,4.9-4.7,6.2-8.8c-2.9-1.1-5.5-1.9-7.6-2.1c-2,7.2-3.7,9.1-7.2,9.1
		s-4.1-2.7-4.1-4.5c0-4.4,4.6-6.5,9.7-6.5c0.6-2.3,1.1-5.1,1.5-8.1c-1.3,0.1-5.9,0.4-8.1,0.6c-0.1,0.2-0.3,0.3-0.6,0.4l-0.3-2.3
		c2.5-0.1,7.8-0.4,9.5-0.6c0.3,0,0.4-0.2,0.6-0.3l1.8,1.1c-0.1,0.2-0.4,0.3-0.7,0.5c-0.5,3.2-1.1,6.5-1.8,8.9c2.2,0.2,4.8,0.9,7.7,2
		c0.5-1.7,0.9-3.9,1.2-6.2L280.9,53.5z M266.8,58.8c-4.1,0.1-7.4,1.7-7.4,4.7c0,1.6,0.8,2.7,2.1,2.7
		C263.6,66.2,264.9,65.5,266.8,58.8z"/>
	<path d="M296.8,46.1c-0.1,0.2-0.4,0.5-0.9,0.5c-0.2,1.3-0.5,2.7-0.7,3.9c2.8-0.2,5.9-0.7,8.4-1.4l0.3,1.9c-2.7,0.7-5.8,1.1-9.1,1.4
		c-1.4,5.5-3.3,10-6.1,14.1l-1.9-0.8c2.6-3.7,4.6-8,5.8-13.2H287v-1.9h3.4c0.9,0,1.8,0,2.6,0c0.3-1.5,0.6-3.1,0.8-4.8L296.8,46.1z
		 M304.4,58.3c0,2.3,0.2,3.9,0.4,5.9c1.8,0.7,4.2,1.9,6.1,3.3l-1,1.8c-1.6-1.2-3.5-2.3-5.1-3c0,2.9-1.1,5.1-5.3,5.1
		c-3.2,0-5.6-1.4-5.6-4.1c0-2.9,3-4.2,5.6-4.2c1,0,2.1,0.2,3.2,0.5c-0.1-1.8-0.3-3.7-0.3-5L304.4,58.3z M302.8,65.4
		c-1.2-0.5-2.4-0.7-3.4-0.7c-1.7,0-3.7,0.7-3.8,2.5c0,1.6,1.6,2.4,3.8,2.4c2.1,0,3.4-1,3.4-2.9C302.9,66.3,302.9,65.8,302.8,65.4z
		 M310.7,55.3c-3.2,0-7.1,0.5-10.1,1.4l-0.3-1.8c3.3-0.9,7.2-1.5,10.3-1.5L310.7,55.3z"/>
	<path d="M339.1,51.8c-2.6,0.7-6.1,1.3-9.5,1.6c1.1,3.9,2.3,6.2,5.4,7.5l-1.4,1.7c-1.3-1-2.7-1.8-6.4-2l-0.3-1.7
		c1.4,0.1,2.5,0.3,3.2,0.4c-1-1.2-1.8-3-2.5-5.9c-1.3,0.1-3,0.2-4.7,0.2c-1.9,0-4.9,0-6.7-0.1v-1.9c1.7,0.1,4.1,0.1,6.7,0.1
		c1.5,0,3.1,0,4.3-0.1c-0.3-1.5-0.7-3.7-1-5.9l3.1,0.1c0,0.3-0.3,0.5-0.7,0.7c0.2,1.6,0.5,3.4,0.8,5c3.3-0.3,7-0.9,9.5-1.7
		L339.1,51.8z M334,70.6c-1.4,0.1-2.8,0.1-5.3,0.1c-6,0-10.2-1.8-10.2-5.7c0-1.6,1-3.3,2.6-4.8l1.5,1.2c-1.3,1-2.1,2.4-2.1,3.5
		c0,2.8,3.7,3.7,8.2,3.7c2.5,0,3.9-0.1,5.4-0.1L334,70.6z"/>
	<path d="M345.2,49.7c1.8,0.1,4.1,0.1,6.1,0.1c1.3,0,2.7,0,3.9-0.1c0-1.4-0.1-3-0.1-4l2.9,0.1c0,0.3-0.3,0.5-0.8,0.6
		c0,0.5,0,2.7,0,3.1c3.3-0.2,6.7-0.5,9.5-1.1l0.3,1.9c-2.8,0.6-6.1,0.9-9.8,1.1c0,1.7,0.1,3.5,0.1,5.3c2.8-0.2,5.7-0.5,8.1-1.1
		l0.2,1.9c-2.4,0.5-5.4,0.9-8.3,1l0.2,4.8c2.6,0.9,5.4,2.3,8.4,4.5l-1.3,1.7c-2.6-2-5-3.4-7.1-4.2c0,0.5,0,1,0,1.3
		c0,2.7-1.7,4.3-5.1,4.3c-3.6,0-6.3-1.5-6.3-4.2c0-2.7,3.1-4.3,6.3-4.3c0.9,0,1.9,0.1,3,0.3c0-1.2-0.1-2.7-0.1-4.3
		c-0.9,0-1.9,0.1-2.8,0.1c-4.9,0-6.3-0.8-6.3-2.4c0-1.1,0.8-2,2.7-3.1l1.4,0.9c-1.3,0.7-2,1.3-2,1.9c0,0.9,1.3,1,5,1
		c0.6,0,1.3,0,1.9,0l-0.2-5.3c-1.2,0.1-2.7,0.1-3.9,0.1c-1.8,0-4.4,0-6.1-0.1V49.7z M355.8,64.6c-1.1-0.3-2.2-0.5-3.2-0.5
		c-2.2,0-4.4,0.9-4.4,2.6c0,1.7,2,2.5,4.5,2.5c2.3,0,3.1-1,3.1-3L355.8,64.6z"/>
	<path d="M371.5,58.9c1.2-1.1,4.1-4.3,5.7-5.9c2.2-2.4,3.3-3,4.7-3c1.7,0,2.9,1.1,5.5,4.1c2,2.5,6.7,7.7,10.8,11.4l-1.5,1.8
		c-3.9-3.5-8.6-8.9-10.3-11c-2.4-3-3.3-4.1-4.5-4.1c-1.1,0-2,0.9-3.8,2.9c-1,1.1-3.3,3.7-4.5,5c0,0.4-0.1,0.7-0.3,0.8L371.5,58.9z"
		/>
	<path d="M118.1,106h-6.4c-0.1,0.1-0.3,0.1-0.5,0.1c-1.1,3.9-3,6.9-5.5,9.2c4.2,1.6,8,3.3,10.7,4.9l-1.7,2
		c-2.6-1.7-6.7-3.5-11.1-5.2c-3.8,2.7-8.8,4.3-14.9,5.2c-0.2-0.6-0.9-1.5-1.4-2c5.5-0.7,10.1-2,13.6-4.2c-2.4-0.9-4.9-1.7-7.2-2.4
		c-0.3,0.5-0.5,1.1-0.8,1.5l-2.4-0.6c1.2-2.2,2.7-5.3,4.1-8.5h-8.6v-2.3h9.6c1-2.3,1.9-4.5,2.7-6.4l3,0.6c-0.1,0.3-0.3,0.4-0.8,0.4
		c-0.7,1.6-1.5,3.5-2.3,5.4h19.7V106z M89.7,96.1v5.4h-2.4v-7.6h13.5v-4.4l3.2,0.2c0,0.2-0.2,0.4-0.7,0.5v3.7h13.6v7.6h-2.5v-5.4
		H89.7z M97.4,106c-0.9,2-1.8,3.9-2.6,5.7c2.7,0.7,5.6,1.7,8.5,2.7c2.5-2.1,4.3-4.8,5.4-8.4H97.4z"/>
	<path d="M139.3,89.5c-0.1,0.3-0.4,0.5-0.7,0.5c3.4,4.6,9.8,10,15.2,12.8c-0.6,0.6-1.2,1.4-1.6,2.1c-5.5-3.2-11.8-8.6-15.1-13.1
		c-2.9,4.4-8.7,9.8-14.8,13.4c-0.3-0.5-1-1.4-1.5-1.9c6.2-3.5,12.3-9.3,15-13.9L139.3,89.5z M138.4,112.8v6.2h14.2v2.2h-30.4V119
		H136v-6.2h-10.8v-2.1H136v-5.8h-9.3v-2.1h21.4v2.1h-9.7v5.8h11v2.1H138.4z"/>
	<path d="M158,112.5c2.6,2.1,6.1,5.6,8,7.8l-2.1,1.9c-1.8-2.3-5.4-5.9-7.7-8.1L158,112.5z"/>
	<path d="M199.6,97.8c-0.3-1-1-2.4-1.7-3.6h-1.7c-1,1.5-2.1,2.9-3.2,3.9c-0.4-0.4-1.2-1-1.8-1.3c2-1.7,3.9-4.6,5.1-7.5l2.7,0.9
		c-0.1,0.2-0.4,0.3-0.7,0.3c-0.2,0.6-0.6,1.2-0.9,1.8h9.7v1.9h-6.9c0.6,1,1.1,2.2,1.4,3L199.6,97.8z M205.4,107.7h-9.6v14.5h-2.2
		V98.5h11.8V107.7z M203.3,100.2h-7.4v2.1h7.4V100.2z M195.9,106h7.4v-2.1h-7.4V106z M214.3,119.3h-11v1.4h-2.1v-11.1h13.1V119.3z
		 M212.2,111.1h-9v2.5h9V111.1z M203.3,117.7h9v-2.5h-9V117.7z M213.1,90.2c-0.1,0.2-0.4,0.3-0.7,0.3c-0.3,0.6-0.6,1.2-0.9,1.8H224
		v1.9h-8.3c0.8,1,1.5,2.1,1.9,3l-2.1,0.7c-0.5-1-1.4-2.5-2.4-3.7h-3c-1.1,1.4-2.3,2.6-3.5,3.6c-0.5-0.4-1.3-0.9-1.9-1.2
		c2.3-1.6,4.4-4.4,5.6-7.3L213.1,90.2z M221.8,98.5v20.8c0,2.6-1.1,2.9-6.8,2.8c-0.1-0.6-0.4-1.5-0.7-2.1c1.2,0,2.4,0.1,3.2,0.1
		c1.8,0,2,0,2-0.7v-11.7h-9.9v-9.1H221.8z M219.6,100.2h-7.7v2.1h7.7V100.2z M211.9,106h7.7v-2.1h-7.7V106z"/>
	<path d="M258.9,113.5v2.3H244v6.5h-2.4v-6.5H227v-2.3h14.6V110h-11.2V95.8h3.4c-0.7-1.4-2.2-3.5-3.5-5l2-0.9c1.4,1.5,3,3.6,3.7,5
		c-0.8,0.5-1.3,0.7-1.7,1h7.9c-0.4-1.5-1.6-3.8-2.7-5.6l2.1-0.8c1.2,1.7,2.5,4,2.9,5.5l-2,0.8h6.5c1.3-1.7,3-4.4,3.9-6.3l2.9,1.1
		c-0.1,0.2-0.4,0.3-0.8,0.3c-0.8,1.4-2.1,3.3-3.3,4.9h4V110H244v3.4H258.9z M232.7,97.9v4h8.9v-4H232.7z M232.7,108h8.9v-4.1h-8.9
		V108z M253.3,101.9v-4H244v4H253.3z M253.3,108v-4.1H244v4.1H253.3z"/>
	<path d="M292.1,104.3h-11.6l0.6,0.2c0,0.2-0.3,0.4-0.7,0.4c-0.9,6.4-3.8,12.7-10.9,16.3c-0.4-0.5-1.3-1.3-1.9-1.7
		c6.9-3.5,9.4-8.8,10.2-15.1h-13.4v-2.4h27.8V104.3z M287,94.7h-19.5v-2.4H287V94.7z M287.4,89.5c1.4,1.5,3.1,3.9,3.9,5.6l-1.4,1
		c-0.7-1.6-2.4-4.1-3.8-5.6L287.4,89.5z M291.6,88.3c1.4,1.5,3.1,3.9,4,5.5l-1.4,0.9c-0.7-1.5-2.5-4-3.9-5.5L291.6,88.3z"/>
	<path d="M298.4,104h29.4v2.5h-28.1c-0.2,0.4-0.7,0.6-1.1,0.7L298.4,104z"/>
	<path d="M360.1,96.4c0,0.2-0.2,0.3-0.4,0.4c-1.3,4.4-3.1,8.4-5.2,11.7c1.5,0.9,3.2,2,4.5,2.9l-1.5,2.3c-1.3-1-3.1-2.1-4.5-3.1
		c-3.2,4.5-7.4,8.1-12.7,10.7c-0.4-0.6-1.3-1.4-1.9-1.8c5.1-2.4,9.3-5.9,12.5-10.1c-2.6-1.4-5.2-2.7-7.8-3.7l1.3-2
		c2.6,0.9,5.2,2.1,7.9,3.6c1.8-2.9,3.3-5.9,4.3-9.3h-11.9c-2.1,3.6-5,7.1-8.1,9.7c-0.5-0.4-1.4-1.2-2-1.6c4.6-3.5,9-9.9,11.1-15.9
		L349,91c-0.1,0.4-0.5,0.5-1,0.5c-0.5,1.2-1.3,2.9-2,4.2h11.7l0.5-0.1L360.1,96.4z"/>
	<path d="M393.1,106.1l1.8,1c-0.1,0.2-0.3,0.3-0.5,0.4c-1.9,3.7-4.7,6.6-8.2,8.9c3.9,1.8,8.4,3,13.5,3.7c-0.5,0.6-1.2,1.6-1.5,2.3
		c-5.4-0.8-10.3-2.3-14.4-4.5c-4.2,2.2-9,3.6-14,4.5c-0.3-0.6-0.9-1.7-1.4-2.2c4.7-0.7,9.2-1.9,13.1-3.7c-2.9-2-5.3-4.4-7.1-7.3
		l1.9-0.8h-3.6v-2.1h20L393.1,106.1z M370.7,101.9v5.3h-2.3v-7.4h5.7c-0.5-1.3-1.5-3.2-2.4-4.7l2.1-0.6c1.1,1.5,2.2,3.6,2.6,4.9
		l-1.3,0.5h14.9c1.2-1.8,2.7-4.4,3.6-6.3l2.8,1.1c-0.1,0.2-0.4,0.3-0.7,0.3c-0.8,1.4-2,3.3-3.1,4.9h6.4v7.4h-2.3v-5.3H370.7z
		 M396.9,91.6c-0.1,0.1-0.2,0.1-0.4,0.1c-0.1,0-0.2,0-0.4-0.1c-6.4,1.3-17.5,2.3-26.8,2.6c0-0.6-0.4-1.5-0.6-2
		c9.2-0.4,20.2-1.4,26.3-2.7L396.9,91.6z M376.6,108.3c1.7,2.7,4.2,5,7.3,6.8c3-1.8,5.5-4,7.2-6.8H376.6z M383.2,93.9
		c0.8,1.7,1.7,3.9,2,5.2l-2.3,0.6c-0.2-1.4-1-3.7-1.8-5.4L383.2,93.9z"/>
	<path d="M409.9,92.3c-0.1,0.3-0.4,0.6-0.9,0.6c-1,4.4-1.8,10.6-1.8,14.5c0,2.4,0.1,4.5,0.4,5.9c0.8-1.6,2.5-4.9,3.6-7l1.6,1.7
		c-2.6,4.6-4.2,7.5-4.2,8.9c0,0.4,0.1,0.9,0.3,1.4l-2.5,0.5c-0.9-2.5-1.6-6.4-1.6-11.3c0-4.5,0.7-10.6,1.8-15.8L409.9,92.3z
		 M415.1,100.3c2.8,0,7-0.1,9.5-0.2c-0.2-4.1-0.5-8.9-0.6-9.7l3.6,0.1c0,0.4-0.4,0.7-0.9,0.8c0.1,1.9,0.2,5.5,0.4,8.6
		c2.4-0.2,5-0.6,6.9-1.1l0.2,2.5c-2,0.4-4.5,0.8-7.1,1c0,0.2,0,0.8,0,2.9c0,7.6-1.7,13-8.5,16.4c-0.3-0.4-1.3-1.3-1.9-1.8
		c6.5-3.2,7.9-7.8,7.9-14.4l0-2.9c-2.4,0.1-6.4,0.2-9.5,0.2L415.1,100.3z"/>
	<path d="M439,99.4c2.2,0.9,4.9,2.4,6.2,3.6l-1.4,1.9c-1.3-1.2-3.9-2.8-6.1-3.8L439,99.4z M438.5,120.3c1.7-2.8,4-7.5,5.7-11.6
		l1.9,1.4c-1.5,3.8-3.6,8.2-5.1,10.9c0.1,0.2,0.2,0.4,0.2,0.6c0,0.1,0,0.2-0.1,0.4L438.5,120.3z M440.9,89.8c2.1,1,4.8,2.6,6.1,3.9
		c-0.8,1-1.1,1.5-1.4,1.9c-1.3-1.3-3.9-3-6.1-4.1L440.9,89.8z M450.9,101.5v1.7c0,5.6-0.6,13.6-4.3,19c-0.5-0.4-1.4-0.9-2-1.1
		c3.6-5.2,4-12.6,4-17.9v-9.5h9.6v-4.2l3.1,0.2c0,0.2-0.2,0.4-0.7,0.5v3.4h9.8v2.1h-19.6v3.8h3.8v-3l2.9,0.2c0,0.2-0.2,0.4-0.7,0.5
		v2.3h6.5v-3c0.4,0,0.7,0,2.9,0.2c0,0.2-0.2,0.4-0.7,0.5v2.3h4.8v2h-4.8v5.2h-10.9v-5.2H450.9z M466.4,108.8l1.5,0.7
		c-0.1,0.1-0.2,0.2-0.3,0.4c-1.2,3-3.2,5.4-5.6,7.3c2.5,1.4,5.4,2.5,8.7,3c-0.5,0.5-1.1,1.4-1.4,2c-3.5-0.7-6.6-2-9.2-3.7
		c-2.8,1.7-6.1,3-9.4,3.7c-0.2-0.6-0.7-1.5-1.2-1.9c3.1-0.6,6.2-1.7,8.8-3.2c-1.9-1.6-3.4-3.6-4.5-5.9l1.2-0.4h-3.5v-2H466
		L466.4,108.8z M455.9,110.9c1,2,2.5,3.7,4.3,5.1c1.9-1.4,3.4-3.1,4.5-5.1H455.9z M463.4,101.5h-6.5v3.3h6.5V101.5z"/>
	<path d="M484.5,91c-0.1,0.4-0.4,0.7-1.1,0.8c-0.3,4.1-0.6,13.4-0.6,18.6c0,5.2,2.6,7.8,7,7.8c4.3,0,8.7-2.1,12.7-6.7
		c0.4,0.6,1.2,1.7,1.6,2.1c-4.1,4.7-9.1,7.1-14.3,7.1c-6.4,0-9.7-3.7-9.7-10.3c0-4.4,0.3-15.3,0.6-19.7L484.5,91z"/>
	<path d="M114.4,143.4c-0.1,0.2-0.3,0.4-0.5,0.5c-3.7,11.4-9.5,18.7-19.2,23.7c-0.4-0.6-1.1-1.4-1.8-1.9
		c9.2-4.5,14.9-11.5,17.8-20.8H98.2c-2,3.2-4.8,6.2-7.9,8.7c-0.5-0.5-1.3-1.2-2-1.6c4.8-3.7,8.8-9.1,11.2-15.3l3.3,1
		c-0.1,0.4-0.6,0.5-1,0.5c-0.7,1.5-1.4,3-2.3,4.4H112l0.4-0.2L114.4,143.4z"/>
	<path d="M150.5,148.1c-0.1,0.1-0.2,0.3-0.5,0.4c-2.9,10.6-8.8,15.8-19.3,18.7c-0.3-0.6-1-1.5-1.5-2c9.6-2.4,15.5-7.3,17.7-15.5
		h-23.3v-2.4H148l0.4-0.2L150.5,148.1z M147.2,140.6h-20.1v-2.3h20.1V140.6z"/>
	<path d="M171.2,136.5l3.5,0.2c0,0.4-0.5,0.7-1,0.7v5.5h9.4l0.5-0.2l2.2,1c-0.1,0.1-0.2,0.3-0.4,0.4c-1.6,12.3-6.7,19.5-17.9,23.4
		c-0.4-0.6-1.1-1.5-1.7-2.1c10.5-3.6,15.3-10.1,16.5-20h-19.9v8.7h-2.4v-11.1h11.1V136.5z"/>
	<path d="M217.6,155.4c-3.6-1.9-8.5-4.2-12.4-5.7v17.6h-2.6v-30.6l3.6,0.2c0,0.4-0.3,0.6-0.9,0.7V148l0.5-0.8
		c4.1,1.5,9.6,3.9,13.2,5.9L217.6,155.4z M213.9,138.9c1.6,1.3,3.7,3.6,4.9,5.2l-1.3,1.1c-1.1-1.5-3.2-3.9-4.8-5.1L213.9,138.9z
		 M218.6,135.8c1.7,1.4,3.8,3.6,4.8,5.1l-1.3,1.1c-1.1-1.5-3.2-3.8-4.8-5.1L218.6,135.8z"/>
	<path d="M236.6,147.1c1.6,2.3,3.3,5.3,3.9,7.3l-1.9,0.9c-0.2-0.6-0.5-1.3-0.8-2.1c-1.1,0.1-2.2,0.1-3.3,0.2v15.1h-2.1v-15
		c-2,0.1-3.7,0.2-5.1,0.2c0,0.3-0.2,0.4-0.5,0.5l-0.6-2.6h2.5c0.8-1,1.6-2,2.4-3.2c-1.1-1.6-2.9-3.7-4.5-5.2l1.2-1.5
		c0.4,0.3,0.7,0.7,1.1,1.1c1.2-2,2.6-4.9,3.3-6.9l2.5,1.1c-0.1,0.2-0.4,0.3-0.7,0.3c-0.9,2-2.5,4.9-3.8,6.8c0.8,0.8,1.5,1.7,2.1,2.5
		c1.5-2.3,2.9-4.7,3.9-6.7l2.5,1.2c-0.1,0.2-0.4,0.3-0.8,0.3c-1.8,3-4.6,7.2-7.1,10.2l6.1-0.1c-0.6-1.2-1.3-2.4-2.1-3.5L236.6,147.1
		z M231,156.6c-0.1,0.2-0.3,0.4-0.7,0.4c-0.5,3-1.3,6.4-2.4,8.4c-0.5-0.3-1.3-0.7-1.8-0.9c1-2,1.8-5.4,2.2-8.6L231,156.6z
		 M238.3,163.5c-0.3-1.9-1.3-4.8-2.3-7l1.8-0.6c1.1,2.2,2.1,5.1,2.4,6.9L238.3,163.5z M250.4,159v6.2h8.9v2.2h-20.1v-2.2h8.9V159
		h-6.9v-2.2h6.9v-5.3l3,0.2c0,0.2-0.2,0.4-0.7,0.5v4.6h7.2v2.2H250.4z M256.1,137.4l1.7,0.8c-0.1,0.1-0.2,0.3-0.4,0.4
		c-1.4,3.8-3.6,6.8-6.4,9.2c2.4,1.7,5.4,2.9,8.6,3.6c-0.5,0.5-1.2,1.4-1.5,2c-3.5-0.9-6.4-2.3-9-4.2c-2.5,1.8-5.3,3.1-8.3,4.2
		c-0.3-0.6-0.9-1.4-1.4-1.9c2.8-0.8,5.5-2.1,7.9-3.8c-2.2-2.1-3.9-4.6-5.1-7.5l1.6-0.5h-3.8v-2.2h15.6L256.1,137.4z M244.4,139.7
		c1.1,2.5,2.7,4.8,4.8,6.6c2.1-1.8,3.9-4,5.1-6.6H244.4z"/>
	<path d="M269,150.3v8.7l4.8-1.4c0,0.2,0.1,0.4,0.3,2c-4.1,1.3-8.4,2.7-11.1,3.5c0,0.3-0.2,0.5-0.5,0.5l-1-2.6
		c1.4-0.4,3.2-0.8,5.2-1.4v-9.4h-4.4v-2.2h4.4v-7.9H262v-2.3h11.6v2.3H269v7.9h4.3v2.2H269z M285,165.1h9.9v2.2h-22.6v-2.2h10.6
		v-5.5h-8.2v-2.1h8.2v-4.1h-8v-15.6h18.5v15.6H285v4.1h8.7v2.1H285V165.1z M276.9,139.8v4.7h5.9v-4.7H276.9z M276.9,151.3h5.9v-4.8
		h-5.9V151.3z M291,144.5v-4.7h-6v4.7H291z M291,151.3v-4.8h-6v4.8H291z"/>
	<path d="M329.5,144.1h-6.3c0.9,0.3,1.2,0.4,1.4,0.5c-0.1,0.2-0.4,0.4-0.9,0.4c-2,5.8-4.8,10.3-8.5,14c4,3.3,8.9,5.7,14.7,7.1
		c-0.6,0.6-1.3,1.6-1.7,2.4c-6-1.5-10.9-4.1-15-7.7c-4,3.3-8.9,5.8-14.9,7.6c-0.2-0.6-0.9-1.6-1.4-2.1c5.8-1.7,10.6-4,14.4-7.2
		c-3.8-3.9-6.7-8.8-8.8-14.5l1.4-0.5h-6.8v-2.3H312v-6.2l3.1,0.2c0,0.2-0.2,0.4-0.7,0.5v5.5h15V144.1z M305.1,144.1
		c1.8,5.1,4.6,9.6,8.3,13.2c3.5-3.5,6.1-7.8,8-13.2H305.1z"/>
	<path d="M349.6,153.9h14.9v1.8h-31.9v-1.8h14.6v-2.3h-12.1v-1.7h12.1v-2.1h-11v-1.6h11v-2.3h-14.5v-1.8h14.5v-2.2h-10.6v-1.7h10.6
		v-2.6l3.1,0.2c0,0.2-0.2,0.4-0.7,0.5v1.9h10.2v3.9h4.6v1.8h-4.6v3.9h-10.2v2.1h12.4v1.7h-12.4V153.9z M337.3,168.5v-11.1h22.8v11
		h-2.4v-1.2h-18.2v1.2H337.3z M357.7,159.2h-18.2v2.3h18.2V159.2z M339.6,165.5h18.2v-2.4h-18.2V165.5z M349.6,139.8v2.2h7.8v-2.2
		H349.6z M349.6,143.9v2.3h7.8v-2.3H349.6z"/>
	<path d="M375.7,144.2c-0.3-1-1-2.5-1.7-3.8h-1.7c-1,1.5-2.1,2.9-3.2,3.9c-0.4-0.4-1.2-1-1.8-1.3c2-1.7,3.9-4.6,5.1-7.5l2.7,0.9
		c-0.1,0.2-0.4,0.3-0.7,0.3c-0.2,0.6-0.6,1.2-0.9,1.8h9.7v2h-6.8c0.6,1.1,1.2,2.3,1.5,3.1L375.7,144.2z M400,138.5v2h-8.2
		c0.8,1.1,1.6,2.2,2,3.1l-2.1,0.7c-0.5-1.1-1.5-2.6-2.5-3.8h-3.1c-0.7,0.9-1.4,1.8-2.2,2.5l1.6,0.1c0,0.2-0.2,0.4-0.7,0.5v2.2h14
		v6.7h-2.3v-4.8h-25.3v4.8h-2.3v-6.7h13.6v-2c-0.5-0.3-1.2-0.7-1.6-1c2.2-1.6,4.4-4.3,5.5-7.2l2.7,0.8c-0.1,0.2-0.3,0.3-0.7,0.3
		c-0.3,0.6-0.6,1.2-1,1.8H400z M376.2,157v2.6h19.6v8.7h-2.4v-1.2h-17.3v1.2h-2.3V150h19.7v7H376.2z M391.3,151.8h-15.1v3.3h15.1
		V151.8z M393.5,161.5h-17.3v3.7h17.3V161.5z"/>
	<path d="M409.8,150.3v8.7l4.8-1.4c0,0.2,0.1,0.4,0.3,2c-4.1,1.3-8.4,2.7-11.1,3.5c0,0.3-0.2,0.5-0.5,0.5l-1-2.6
		c1.4-0.4,3.2-0.8,5.2-1.4v-9.4h-4.4v-2.2h4.4v-7.9h-4.7v-2.3h11.6v2.3h-4.6v7.9h4.3v2.2H409.8z M425.8,165.1h9.9v2.2H413v-2.2h10.6
		v-5.5h-8.2v-2.1h8.2v-4.1h-8v-15.6H434v15.6h-8.2v4.1h8.7v2.1h-8.7V165.1z M417.7,139.8v4.7h5.9v-4.7H417.7z M417.7,151.3h5.9v-4.8
		h-5.9V151.3z M431.8,144.5v-4.7h-6v4.7H431.8z M431.8,151.3v-4.8h-6v4.8H431.8z"/>
	<path d="M469.4,147.2H462v2.4c0,6.7-2.1,13.6-11.3,17.7c-0.5-0.6-1.2-1.3-1.8-1.8c8.9-3.9,10.6-10.1,10.6-15.9v-2.5h-11.4v8.8h-2.5
		v-8.8h-6.9v-2.4h6.9v-7.6l3.4,0.2c0,0.4-0.4,0.7-0.9,0.7v6.7h11.4v-8.1l3.4,0.2c0,0.3-0.3,0.6-0.9,0.7v7.2h7.4V147.2z"/>
	<path d="M474.4,150.2h29.4v2.5h-28.1c-0.2,0.4-0.7,0.6-1.1,0.7L474.4,150.2z"/>
	<path d="M529.8,163.5c1.4,0,5.2-0.2,7.4-0.5c0,0.8,0.1,1.8,0.1,2.5c-2.3,0.2-5.8,0.4-7.3,0.4h-8.8c-5.3,0-7.9-2.3-7.9-7.4V138
		l3.5,0.2c-0.1,0.4-0.3,0.6-1,0.6v11.5c5.4-1.7,12.9-4.5,17.5-7l1.8,2.4c-0.1,0.1-0.3,0.1-0.4,0.1c-0.2,0-0.3,0-0.5-0.1
		c-4.3,2.1-12.3,5.1-18.3,6.9v5.9c0,3.6,1.7,4.9,5.4,4.9H529.8z M533.1,137c1.6,1.4,3.4,3.6,4.4,5.2l-1.3,1c-1-1.5-2.8-3.8-4.3-5.2
		L533.1,137z M537.5,134.9c1.6,1.4,3.4,3.6,4.4,5.1l-1.3,1c-1-1.5-2.9-3.8-4.3-5.1L537.5,134.9z"/>
	<path d="M569.2,140.3c-0.1,0.2-0.2,0.3-0.5,0.4c-1.9,4.5-4.2,8.3-7,12.1c3.8,3.1,9.6,8.3,12.9,11.9l-2.1,1.9
		c-3.1-3.6-8.8-8.9-12.4-11.8c-3.1,3.8-8.4,8.9-13.6,11.8c-0.4-0.5-1.2-1.4-1.8-1.9c9.8-5.4,17.5-15.3,20.6-23H548v-2.4h18.7
		l0.5-0.2L569.2,140.3z"/>
</g>
<g>
	<path class="st1" d="M218.1,236h-37.9v65.2H243v-40.3L218.1,236z M218.6,246.4l14.2,14.2h-14.2V246.4z M187.1,294.2V243h24.5v24.6
		H236v26.6H187.1z"/>
	<path class="st2" d="M226.7,300.9c-0.5-4.5-2.9-8.4-6.5-11c0-0.7,0-1.4-0.1-2.1c-0.7-7-6.6-12.4-13.7-12.4c-0.5,0-1,0-1.4,0.1
		c0,0,0,0,0,0c-3.5-4.8-9-7.7-15.1-7.7c-0.7,0-1.3,0-2,0.1c-8.4,0.9-15,7.3-16.4,15.4c-6.9,3.2-11.2,10.5-10.4,18.3
		c0.4,3.3,1.6,6.3,3.5,8.9c3.4,4.6,8.8,7.3,14.5,7.3h5v-16.2h-10l18.9-18.9l18.9,18.9h-10v16.2h9.1c0.1,0,0.1,0,0.2,0
		c0.1,0,0.2,0,0.2,0c0.5,0,0.9,0,1.5-0.1l0,0l0,0c2.8-0.3,5.4-1.3,7.6-3l0.1-0.1c0.2-0.1,0.5-0.3,0.7-0.6l0,0l0.3-0.3l0.1-0.1
		l0.1-0.1C225.5,310.4,227.3,305.7,226.7,300.9z"/>
	<polygon class="st3" points="212,301.6 193.1,282.7 174.2,301.6 184.3,301.6 184.3,317.8 202,317.8 202,301.6 	"/>
	<g>
		<path class="st1" d="M211.8,206.6c-0.6,3.4-2.3,13.5-14.7,15.1l-1-2.1c6.7-1,10.6-3.5,12.6-10.8h-7.3c-1.8,2.3-3.4,3.8-4.9,4.7
			l-1.5-1.7c1.2-0.7,4.8-2.8,6.7-8.1l2.5,0.5c-0.2,0.7-0.5,1.2-1.2,2.4H211.8z"/>
		<path class="st1" d="M232.3,209.5c-0.5,4.3-1.3,11-13.4,12.1l-0.6-2.1c1.2,0,4.6-0.2,7.7-2.1c2.7-1.7,3.3-4.3,3.6-5.7h-13.9v-2.2
			H232.3z M231.2,204.7v2.2h-14.1v-2.2H231.2z"/>
		<path class="st1" d="M245.7,203.8v3.1h6.8l0,1.9c0,1.4-0.3,6.3-3.3,9.2c-1.8,1.7-4.7,3.1-9.6,3.6l-0.7-2.2c1.9-0.1,7.7-0.6,10-4.6
			c1.2-2.1,1.3-5.3,1.3-5.7H239v4.9h-2.2v-7h6.6v-3.1H245.7z"/>
		<path class="st1" d="M263.8,203.8v5.3c4.6,1.3,9.2,3.8,10.3,4.4l-1.1,2.5c-2.6-1.7-6.6-3.6-9.2-4.4v10.4h-2.5v-18.1H263.8z
			 M269.7,208.5c-0.4-0.9-0.8-1.7-1.7-3.1l1.6-0.8c0.8,1.3,1.3,2,1.7,3.1L269.7,208.5z M272.6,207.3c-0.5-1-1.1-2.2-1.7-3l1.5-0.8
			c0.8,1.1,1.2,1.6,1.8,2.9L272.6,207.3z"/>
		<path class="st1" d="M275.9,212c0.5,0,0.6,0,1.6,0c0.4-0.5,0.9-1.1,1.2-1.6c-1.5-1.7-2.3-2.2-2.9-2.6l1.1-1.8
			c0.3,0.2,0.4,0.3,0.7,0.5c0.2-0.3,1.1-1.7,1.8-3.4l1.9,0.7c-0.5,1-1.3,2.5-2.3,4c0.6,0.6,0.8,0.8,0.9,1c0.8-1.2,1.2-1.8,2.1-3.3
			l1.8,0.9c-1,1.7-3.2,4.8-3.9,5.7l2.1-0.1c-0.2-0.7-0.2-0.8-0.4-1.2l1.6-0.6c0.4,1.1,0.8,2.4,1.1,3.7l-1.7,0.6
			c0-0.3-0.1-0.5-0.1-0.7c-0.2,0-0.9,0.1-1.1,0.1v8.8h-2v-8.6c-1,0.1-2.6,0.2-3.2,0.2L275.9,212z M278.6,215.3
			c0,0.7-0.2,3.5-0.8,5.7l-1.9-0.6c0.5-1.8,0.7-3.2,0.9-5.4L278.6,215.3z M283.5,214.8c0.4,1.4,0.6,2.6,0.7,4.4l-1.8,0.3
			c0-1.2-0.2-3-0.5-4.2L283.5,214.8z M294.5,214.8v2h-4.1v2.9h4.9v1.9h-12v-1.9h5v-2.9h-3.8v-2h3.8v-2h2.1v2H294.5z M286.8,205.8
			c0.5,0.7,1.1,1.6,2.6,2.9c1.6-1.4,2.2-2.2,2.6-2.9h-7.9v-1.8h10.1v1.8c-0.3,0.6-0.9,2.1-3.1,4.1c2.2,1.3,3.8,1.5,4.6,1.6l-0.7,2
			c-2.9-0.8-4.5-1.6-5.6-2.3c-2,1.3-3.6,1.9-4.6,2.3l-1-1.9c0.7-0.2,2-0.6,3.9-1.7c-1.1-1-1.8-2-2.6-3.3L286.8,205.8z"/>
		<path class="st1" d="M296.2,218.8c0.6-0.2,0.7-0.2,2.6-0.8v-5.6h-2.1v-2.1h2.1v-4.2h-2.3v-2.1h6.6v2.1h-2.2v4.2h1.9v2.1h-1.9v4.9
			c0.7-0.2,1.3-0.5,2.2-0.9v2c-1.7,0.8-4.5,1.9-6.6,2.4L296.2,218.8z M303.9,203.7h11.4v9.8h-4.7v2.1h4.9v1.9h-4.9v2.3h5.2v2h-13.2
			v-2h6v-2.3h-4.8v-1.9h4.8v-2.1h-4.7V203.7z M305.8,205.6v2.2h2.7v-2.2H305.8z M305.8,209.4v2.3h2.7v-2.3H305.8z M310.6,205.6v2.2
			h2.7v-2.2H310.6z M310.6,209.4v2.3h2.7v-2.3H310.6z"/>
		<path class="st1" d="M317.1,208.1V206h8.5v-2.9h2.2v2.9h8.5v2.1h-2.9c-1.3,4.8-3.7,7.8-5,9.1c3,2,6.1,2.7,7.8,3l-1.1,2.2
			c-4.3-1.1-6.6-2.5-8.3-3.8c-3.1,2.4-6.6,3.3-8.5,3.8l-1-2.2c2-0.4,4.9-1,7.8-3.1c-2.7-2.6-4.3-6-5.1-9.1H317.1z M322.1,208.1
			c1.3,4.3,3.5,6.8,4.5,7.7c2.3-2.2,3.7-5,4.4-7.7H322.1z"/>
		<path class="st1" d="M339.1,204.3h6.9v-1.2h2v1.2h6.9v2.3h1.9v1.4h-1.9v2.4H348v0.8h7.4v1.3H348v0.8h8.8v1.6h-19.3v-1.6h8.5v-0.8
			h-7.4v-1.3h7.4v-0.8h-6.9V209h6.9v-1h-8.5v-1.4h8.5v-1h-6.9V204.3z M339.6,215.8h15.1v6.6h-2.1v-0.6h-11v0.6h-2V215.8z
			 M341.6,217.2v1h11v-1H341.6z M341.6,219.4v1h11v-1H341.6z M348,205.6v1h4.9v-1H348z M348,208v1h4.9v-1H348z"/>
		<path class="st1" d="M361.7,206.2c-1.1,1.6-1.9,2.2-2.3,2.4l-1.5-1.4c1.4-1,2.9-2.7,3.3-4.2l2,0.4c-0.1,0.3-0.1,0.5-0.4,1.1h4.6
			v1.8h-3c0.2,0.4,0.5,0.9,0.6,1.3l-1.9,0.8c-0.2-0.7-0.6-1.6-0.8-2.1H361.7z M367.9,208l-1.2-0.8c0.6-0.5,2.1-1.9,2.8-4.2l1.9,0.3
			c-0.1,0.3-0.1,0.6-0.4,1.1h6.2v1.8h-4.1c0.3,0.4,0.6,0.8,0.8,1.4l-1.9,0.8c-0.2-0.4-0.6-1.4-1-2.2h-1c-0.6,0.9-1,1.4-1.4,1.8v1
			h8.2v3.9h-2v-2.2h-14.5v2.2h-1.9V209h8.2v-1H367.9z M361,211.6h13.3v4.2h-11.3v1.2h12.7v5.4h-2.1v-0.9h-10.7v0.9h-2V211.6z
			 M363.1,214.3h9.2V213h-9.2V214.3z M363.1,219.9h10.7v-1.4h-10.7V219.9z"/>
		<path class="st1" d="M378.3,218.8c0.6-0.2,0.7-0.2,2.6-0.8v-5.6h-2.1v-2.1h2.1v-4.2h-2.3v-2.1h6.6v2.1H383v4.2h1.9v2.1H383v4.9
			c0.7-0.2,1.3-0.5,2.2-0.9v2c-1.7,0.8-4.5,1.9-6.6,2.4L378.3,218.8z M385.9,203.7h11.4v9.8h-4.7v2.1h4.9v1.9h-4.9v2.3h5.2v2h-13.2
			v-2h6v-2.3h-4.8v-1.9h4.8v-2.1h-4.7V203.7z M387.9,205.6v2.2h2.7v-2.2H387.9z M387.9,209.4v2.3h2.7v-2.3H387.9z M392.6,205.6v2.2
			h2.7v-2.2H392.6z M392.6,209.4v2.3h2.7v-2.3H392.6z"/>
		<path class="st1" d="M412,203.8h2.4v4h3.5v2.1h-3.5v1.7c0,1.3-0.2,5.1-2.9,7.3c-2.1,1.7-5.1,2.3-6.6,2.6l-1-2.1
			c2-0.3,4.8-0.8,6.4-2.5c1.5-1.5,1.7-4.2,1.7-5.3v-1.7h-6.6v5.3h-2.4v-5.3h-3.5v-2.1h3.5v-3.9h2.4v3.9h6.6V203.8z"/>
		<path class="st1" d="M438.4,211.4v2.5h-18.2v-2.5H438.4z"/>
		<path class="st1" d="M445,204.8v6.1c4-0.8,6.9-2.1,9.6-3.5l1.3,2.1c-4.3,2.2-8,3.1-10.9,3.7v4.4c0,0.9,0.4,1.1,1.7,1.1h6.9
			c2.2,0,3.4-0.2,4-0.3l0.1,2.5c-0.8,0.1-1.8,0.2-4.3,0.2h-7c-2.8,0-3.7-0.9-3.7-2.8v-13.5H445z M455.6,207.4
			c-0.6-1.5-0.8-2.1-1.5-3.3l1.5-0.6c0.6,1.1,1.1,2.1,1.5,3.2L455.6,207.4z M458.4,206.9c-0.6-1.7-1-2.4-1.4-3.3l1.5-0.6
			c0.5,0.9,1.1,2,1.4,3.1L458.4,206.9z"/>
		<path class="st1" d="M461.4,219.5c4.4-1.6,9.6-6.1,11.8-12.3h-10.7v-2.2h13.8c-0.3,1.2-1,4.5-3.9,8.5c2.4,1.9,4.7,3.9,6.9,6.1
			l-1.9,1.9c-2.3-2.7-5.5-5.5-6.4-6.3c-2.4,2.7-5,4.9-8.2,6.2L461.4,219.5z"/>
	</g>
	<g>
		<path class="st1" d="M268.5,328.4c-0.9,5.5-4,7.7-6.1,8.8l-1.5-1.8c1.4-0.6,3.4-1.7,4.5-4.8h-14.4v-2.2H268.5z M251.7,343.4
			c3.7-1.4,6.1-3.7,6.2-10.9l2.5,0.1c-0.2,7.4-2.8,10.5-7.2,12.7L251.7,343.4z"/>
		<path class="st1" d="M273,338.3c-0.3-1.7-0.8-3.2-1.6-4.8l1.9-0.6c1,2,1.4,3.2,1.8,4.9L273,338.3z M273,343.6
			c6.5-1.2,8.8-4.1,10-11.2l2.2,0.4c-1.1,5-2.3,10.6-11.3,12.7L273,343.6z M277.4,337.5c-0.3-2.3-0.9-3.7-1.4-4.8l1.9-0.5
			c0.9,1.8,1.3,3.6,1.5,4.8L277.4,337.5z"/>
		<path class="st1" d="M290.4,342.9c8-1.3,10.7-4.7,11.6-11.5h-13.3v-2.2h13.7c0-0.1-0.1-0.2-0.1-0.4c0-1.2,1-2.1,2.1-2.1
			c1.2,0,2.1,1,2.1,2.1c0,1.1-0.8,2.1-2.1,2.1c-0.2,2.5-1,5.7-2.3,7.7c-2.2,3.8-6.4,5.6-10.7,6.5L290.4,342.9z M303.5,328.8
			c0,0.6,0.5,1,1,1c0.6,0,1-0.4,1-1c0-0.6-0.4-1-1-1C303.9,327.8,303.5,328.2,303.5,328.8z"/>
		<path class="st1" d="M325.2,329.2c-0.5,6-2.3,13.9-13.5,16l-0.9-2.2c10-1.5,11.1-8,11.7-11.6h-13.5v-2.2H325.2z"/>
		<path class="st1" d="M343.2,331.9c-0.7,3.5-1.9,5.4-5,7.3l-1.3-1.7c2.5-1.4,3.2-2.9,3.5-3.6H329v-2H343.2z M329.5,344
			c3.4-1.6,5.1-3.7,5-8.8l2.2,0c-0.3,6-2.2,8.5-5.8,10.4L329.5,344z"/>
		<path class="st1" d="M357.2,345.5h-2.4v-9.3c-2.3,1.6-4.9,2.7-7.6,3.6l-1.2-2c2.8-0.9,8.9-2.9,14.8-10.1l2.2,1.4
			c-0.8,0.8-3,3.1-5.8,5.4V345.5z"/>
		<path class="st1" d="M370.2,339.6h-2.4v-11.1h2.4V339.6z M380.5,335.9c0,8.2-4.9,9.2-10.9,9.8l-0.8-2.3c3-0.2,4.9-0.5,6.7-1.4
			c2.4-1.2,2.5-4.2,2.5-5v-8.9h2.4V335.9z"/>
		<path class="st1" d="M391,333.9c-1.5-1.1-4.1-2.4-6.2-3l1.1-2c1.8,0.5,3.6,1.1,6.4,2.8L391,333.9z M385,342.4
			c7.7-0.6,12.1-3.5,15-12.2l2.3,1c-3,8.8-7.4,12.6-16.5,13.8L385,342.4z"/>
		<path class="st1" d="M404.7,335.3c4.6-2.4,5.9-6.5,6.3-7.8l2.5,0.4c-0.2,0.7-0.6,1.5-1.1,2.6h8.8c-1.7,12.6-10.9,14.2-14.4,14.8
			l-1-2.1c6.7-0.9,10.6-3.6,12.6-10.5H411c-1.7,2.3-3.2,3.4-4.8,4.3L404.7,335.3z M418.4,330.1c-0.5-1.7-0.6-2-1-3l1.6-0.4
			c0.2,0.5,0.6,1.2,1.1,3L418.4,330.1z M421.4,330c-0.5-1.6-0.8-2.4-1.1-2.9l1.6-0.4c0.3,0.7,0.7,1.5,1.1,2.9L421.4,330z"/>
	</g>
	<path class="st2" d="M286.8,297.2c-3.1,3.2-7.2,4.7-12,4.7c-4.8,0-9-1.5-12.1-4.7c-2.8-2.9-4.4-7-4.4-11.9v-48.7h10.2v49.2
		c0,4.6,2.9,6.9,6.3,6.9c3.4,0,6.3-2.3,6.3-6.9v-49.2h10.2v48.7C291.3,290.2,289.6,294.3,286.8,297.2z"/>
	<path class="st2" d="M326.5,298.2c-2.2,2.7-4.8,3.7-8.4,3.7c-1.7,0-3.4-0.5-4.8-1.3c-1-0.6-2-1.5-2.8-2.5V318h-9.6v-64.6h9.3v3.5
		c0.5-0.9,2.2-2.4,3.2-3c1.4-0.8,3.1-1.3,4.8-1.3c3.6,0,6.3,1,8.4,3.7c3.1,3.9,3.4,10.5,3.4,20.9
		C329.9,287.6,329.6,294.3,326.5,298.2z M318.7,263.1c-0.8-1.2-2.1-1.9-3.5-1.9c-1.4,0-2.4,0.5-3.3,1.4c-0.9,1-1.5,2.4-1.5,4.4v20.6
		c0,2.1,0.5,3.4,1.5,4.4c0.8,0.8,1.9,1.3,3.3,1.3c1.5,0,2.7-0.6,3.5-1.8c1.3-1.6,1.5-5.2,1.5-14.2
		C320.3,268.2,320,264.7,318.7,263.1z"/>
	<path class="st1" d="M348.7,245.8v18.3h14.6v9.2h-14.6v27.9h-10.2v-64.6h27.1v9.2H348.7z"/>
	<path class="st1" d="M373.2,301.2v-46.5h9.6v46.5H373.2z"/>
	<path class="st1" d="M396.8,298.3c-3-2.3-4.8-5.9-4.8-11.6v-50.1h9.6v49.5c0,4.3,2.1,6.4,6.5,6.4v8.6
		C403.7,301.2,400,300.8,396.8,298.3z"/>
	<path class="st1" d="M414.4,301.2v-46.5h9.6v46.5H414.4z"/>
	<path class="st1" d="M452.5,301.2v-34.4c0-3.7-2.1-5.5-4.7-5.5c-2.6,0-4.7,1.8-4.7,5.5v34.4h-9.6v-47.8h9.2v3.5
		c0.8-1.1,2-2.4,3.2-3c1.4-0.8,3.1-1.3,4.8-1.3c3.9,0,6.5,1.2,8.7,3.7c1.9,2.2,2.7,4.8,2.7,10.3v34.5H452.5z"/>
	<path class="st1" d="M498.8,302.1c0,6.2-1.5,9.8-4.1,12.4c-2.4,2.4-6.4,3.9-10.3,3.9c-4,0-7.8-1.2-10.3-3.7c-3-2.9-4-6.6-4-10.5
		h9.5c0,1.8,0.4,3.4,1.3,4.5c0.8,1,2.1,1.5,3.5,1.5c1.5,0,2.6-0.5,3.4-1.5c0.9-1.2,1.4-2.9,1.4-5.9v-8.3c-0.7,0.9-1.6,1.8-2.6,2.5
		c-1.4,0.9-2.9,1.3-4.8,1.3c-3.6,0-6-1.1-8.2-3.5c-3.1-3.6-3.8-8.9-3.8-19.3c0-10.3,0.7-15.6,3.8-19.2c2.2-2.4,4.5-3.5,8.2-3.5
		c1.9,0,3.6,0.4,5,1.3c1.1,0.7,2.1,1.6,2.8,2.5v-3.1h9.3V302.1z M489.2,267c0-2.1-0.5-3.4-1.5-4.4c-0.9-0.9-1.9-1.4-3.3-1.4
		s-2.7,0.7-3.5,1.9c-1.3,1.6-1.5,4.6-1.5,12.5c0,7.9,0.3,10.9,1.5,12.5c0.9,1.1,2.2,1.8,3.5,1.8s2.4-0.4,3.3-1.3
		c1-1,1.5-2.4,1.5-4.4V267z"/>
	<circle class="st2" cx="378.3" cy="241.3" r="6.5"/>
	<circle class="st2" cx="419.2" cy="241.3" r="6.5"/>
</g>
</svg>
