<?xml version="1.0" encoding="utf-8"?>
<!-- Generator: Adobe Illustrator 23.1.1, SVG Export Plug-In . SVG Version: 6.00 Build 0)  -->
<svg version="1.1" id="レイヤー_1" xmlns="http://www.w3.org/2000/svg" xmlns:xlink="http://www.w3.org/1999/xlink" x="0px"
	 y="0px" width="230px" height="166px" viewBox="0 0 230 166" style="enable-background:new 0 0 230 166;" xml:space="preserve">
<style type="text/css">
	.st0{fill:#F4D847;}
	.st1{fill:#FFFFFF;}
	.st2{fill:#F5E481;}
	.st3{fill:#B8BCBF;}
	.st4{fill:#35486B;}
</style>
<ellipse class="st0" cx="172.6" cy="61.1" rx="53.5" ry="51.9"/>
<g>
	<path d="M144,55.9c-1.6,0.5-3.6,0.9-5.8,1.2c0,1.9,0,4,0,5.8c2.3-0.8,4.9-1.4,6.8-1.4c5.1,0,8.3,2.8,8.3,7c0,4-2.4,7.1-7.1,7.1
		c-2.2,0-4.2-0.8-5.9-2.9c0.4-0.5,0.8-1.1,1.1-1.6c1.5,1.9,3.1,2.5,4.8,2.5c3.2,0,4.9-2.3,4.9-5.1c0-2.9-2.1-5.2-6.2-5.2
		c-1.9,0-4.4,0.6-6.8,1.4c0,2.2,0.1,5.8,0.1,6.7c0,2.7-1.8,4.8-4.7,4.8c-2.8,0-5.1-1.7-5.1-4.6c0-1.9,1.4-4.1,3.8-5.8
		c1.1-0.8,2.5-1.5,4-2.2v-6.4c-2.4,0.2-4.8,0.2-7.2,0.2l0-2c2.6,0,5.1,0,7.3-0.2v-5.6l3,0.2c0,0.4-0.3,0.6-0.8,0.6
		c-0.1,1.2-0.1,3-0.1,4.6c2-0.2,3.9-0.7,5.4-1.3L144,55.9z M136.2,71.3c0-0.8,0-3.3,0-5.7c-1.1,0.5-2.2,1.1-3.1,1.8
		c-1.6,1.1-2.7,2.8-2.7,4.1c0,1.6,1,2.9,3.1,2.9C135,74.4,136.2,73.3,136.2,71.3L136.2,71.3z M153.2,59.5c-1.5-1.5-4.4-3.3-6.9-4.3
		l1.1-1.8c2.6,1.1,5.5,2.8,7.1,4.3L153.2,59.5z"/>
	<path d="M160.4,55.1c0,2.7-0.5,5.9-1.7,7.9c-1.1-0.7-1.3-0.8-1.5-0.8c1.1-1.7,1.6-4.7,1.6-7.3L160.4,55.1z M161.5,48.9l2.6,0.2
		c0,0.2-0.2,0.4-0.6,0.4v27.4h-2V48.9z M166.5,59.8c-0.5-1.2-1.7-3.1-2.7-4.5l1.4-0.8c1.1,1.4,2.3,3.2,2.8,4.3L166.5,59.8z
		 M168.5,50.2c1.3,2.1,2.6,4.8,3,6.6l-1.8,0.8c-0.4-1.8-1.7-4.6-2.9-6.7L168.5,50.2z M181.7,73.6V61.4l2.6,0.2
		c0,0.2-0.2,0.4-0.6,0.4v14.7h-2v-1.2h-12v1.4h-2V61.5l2.5,0.2c0,0.2-0.2,0.3-0.6,0.4v11.5H181.7z M180.3,61.2
		c-0.1,0.2-0.3,0.3-0.6,0.3c-0.6,1.8-1.5,3.6-2.4,5.2c1.4,1.2,2.7,2.4,3.5,3.4l-1.2,1.5c-0.8-1-1.9-2.2-3.3-3.3
		c-1.2,1.8-2.6,3.4-4,4.6c-0.4-0.3-1.1-0.8-1.5-1.1c1.5-1.2,2.9-2.9,4.1-4.8c-1.3-1-2.6-2-3.9-2.9l1.1-1.3c1.2,0.8,2.5,1.7,3.7,2.7
		c0.9-1.6,1.6-3.3,2.2-5L180.3,61.2z M175.2,49.2c0.8,2.3,1.5,5.3,1.6,7.1l-2,0.5c-0.1-1.8-0.8-4.9-1.5-7.2L175.2,49.2z M184.9,50.7
		c-0.1,0.2-0.3,0.3-0.7,0.2c-1.7,3.3-4.3,6.9-6.7,9.2c-0.4-0.3-1.2-0.8-1.7-1.1c2.4-2.2,5-5.8,6.7-9.2L184.9,50.7z"/>
	<path d="M212.4,57.7c-0.1,0.3-0.4,0.5-0.9,0.5c-0.3,2.1-0.8,4.3-1.3,6.1c1.6,0.7,3.3,1.5,5.1,2.3l-1,2c-1.6-0.8-3.2-1.6-4.7-2.3
		c-1.4,4.3-3.5,7.5-6.7,9.6c-0.4-0.4-1.2-0.9-1.7-1.3c3.2-2.1,5.1-4.9,6.5-9.2c-3-1.2-5.8-2-8-2.2c-2.1,7.6-3.9,9.6-7.6,9.6
		s-4.3-2.9-4.3-4.7c0-4.7,4.8-6.8,10.2-6.9c0.6-2.4,1.2-5.4,1.6-8.5c-1.4,0.1-6.2,0.5-8.5,0.6c-0.1,0.2-0.4,0.4-0.6,0.4l-0.3-2.4
		c2.6-0.1,8.2-0.5,10-0.6c0.3,0,0.5-0.2,0.7-0.3l1.9,1.1c-0.2,0.2-0.4,0.4-0.8,0.5c-0.5,3.3-1.2,6.8-1.9,9.4c2.3,0.2,5.1,1,8.1,2.1
		c0.5-1.8,1-4.1,1.3-6.6L212.4,57.7z M197.5,63.2c-4.3,0.1-7.8,1.8-7.8,5c0,1.7,0.8,2.8,2.2,2.8C194.1,71,195.6,70.3,197.5,63.2z"/>
</g>
<g>
	<path class="st1" d="M124.2,106c-0.1-1.1-0.7-2.1-1.5-2.9c-1.2-1.2-2.5-2.3-3.7-3.3c-0.6-2.2-1.3-4.4-2.3-6.6
		c-0.4-0.9-1.1-1.7-2-2.2l-0.1-0.1c-0.2-0.2-0.4-0.3-0.5-0.4c-1.7-1.2-3.3-2.2-4.9-3.2c-1.2-0.8-2.4-1.5-3.7-2.4
		c0,0-1.1-0.7-1.2-0.8c-4-2.7-8.2-5.1-12.2-7.4c0,0-2.6-1.5-2.7-1.5c-1.3-0.7-2.6-1.5-3.9-2.2c0,0-2.3-1.3-2.4-1.3
		c0.1-0.4,0.2-0.8,0.3-1c0,0,0.1,0,0.1-0.1c6-3.9,7.1-10.4,8-15.6c0-0.2,0.1-0.5,0.1-0.7c2-1.1,3.6-2.9,4.5-5.4
		c0.7-1.8,0.8-3.7,0.6-5.5c0,0,0-0.1,0-0.1c1.3-2.7,2.9-6.4,3.3-10.6c0,0,0-0.2,0-0.3c0-0.1,0-0.1,0-0.2c0.1-0.5,0.1-1.1,0-1.7
		c0-0.8-0.1-1.6-0.3-2.4c0-0.1,0-0.1,0-0.2c-0.1-0.5-0.3-1-0.5-1.5c-0.1-0.2-0.2-0.3-0.2-0.5c-0.1-0.3-0.2-0.5-0.4-0.7
		c-0.1-0.2-0.2-0.4-0.3-0.6c-0.2-0.4-0.5-0.7-0.8-1c0,0,0,0,0,0c-0.2-1.3-0.4-2.5-0.8-3.7c-0.2-0.7-0.5-1.3-1-1.8l-0.9-1
		C89.8,11,82.7,2.7,72.5,2.5c-2.2,0-4.8,0.8-6.4,1.7c-0.2,0.1-0.5,0.3-0.7,0.4c0,0-0.1,0-0.1,0.1c-1.5-0.7-3.2-1.1-4.9-1.1
		C55.5,3.6,51,6.5,47,9.5c-3.5,2.6-11.7,8.7-11.4,18.2c-0.2,3.4,0.2,6.7,0.5,9.8c0,0.4,0.1,0.9,0.1,1.3c-0.3,0.5-0.6,1-0.8,1.5
		c-0.1,0.3-0.2,0.6-0.3,0.9c-1.6,5.9,0.1,9.2,1.8,11c0.6,0.6,1.3,1.1,2,1.6c0.1,1.3,0.3,2.5,0.4,3.6c0,0,0,0,0,0
		c0.6,5.9,4,11.2,9.4,14.3c-0.8,0.5-1.6,1.1-2.4,1.6c-0.7,0.5-1.4,1-2.1,1.4c-0.1,0.1-0.2,0.1-0.4,0.2c-0.4,0.3-0.9,0.6-1.3,0.9
		c-0.2,0.1-0.4,0.2-0.5,0.3c-2.1,1.4-4.3,2.8-6.6,4.2c-4.4,2.7-8.9,5.4-12.9,9c-0.2,0.2-0.5,0.4-0.7,0.7
		C7.7,108.7,5.4,131.5,4.1,157.3C4,158.6,4.5,160,5.4,161c0.9,1,2.3,1.6,3.6,1.6h1.1c0.8,0,1.6-0.2,2.3-0.6c0.7,0.4,1.5,0.6,2.3,0.6
		h99h1.1h4.2c2.4,0,4.5-1.8,4.9-4.2c0.7-4.2,1.2-8.4,1.5-12.4c0-0.1,0-0.2,0-0.2C125.9,133.7,126.1,119.8,124.2,106z"/>
	<g>
		<path class="st2" d="M77.1,55.9c-0.4-0.1-1-0.2-1.4-0.5c-4.1,0.7-2.9-6.6,0.8-6.5C81.9,48.2,82.9,56.7,77.1,55.9z"/>
		<path class="st2" d="M54.1,55.2c-0.4-0.1-0.7-0.3-1-0.6c-4.7,1-2.9-7,1.7-6.3C60.7,48.5,60,57.1,54.1,55.2z"/>
		<path class="st2" d="M78.7,157.5c-1-2.2-0.6-6.5-0.9-8c-0.2-2.1-1.9-5.5,1.6-5.4c1.1-0.6,2.6-0.8,3.9-1c2.5,0.1,5.1-0.2,7.5,0.6
			c3.6,2.3,7.4,6.8,6.5,11.2c0,0.4-0.2,0.7,0,1c0.3,0.8,0.3,1.3,0.1,1.7h21.9c0.7-4,1.2-8,1.5-12c0.3-13.1,0.4-26-1.4-38.9
			c-6.7-6.6-14.5-10.1-22.5-15.2c-3.7-2.1-7.4-4.3-11.2-6.4c-2.4-0.5-4.8-1.4-6.9-2.7c-0.5,0.7-8.2,35.4-13.2,51.8
			c-0.4,1-0.5,2.5-1.4,3.4c-1.7-7.2-1.7-14.7-3.9-21.7c-3.9-10.8-5.3-22.8-7.1-34.2c-3.3,1-6.2,3.5-9.1,5.3
			c-4.2,2.8-7.9,5.2-11.3,8.6c-10.8,12-13.5,27.6-16.1,43.2c-0.1,2.8-1.3,11.4-1.8,18.8H78.7z M23.9,135.9c3.5-1.7,17,2.9,18.3,6.5
			c1.7,1.4,3.1,3.2,4.4,4.9c0,0,0.1,0.1,0.1,0.1c-5.8,2.6-12,3.5-18,4.9c-0.6-0.2-1-0.7-1.4-1.2c-0.8-0.2-1.8-0.1-2.3-0.9
			c-1.2,0-1.8-1.6-0.9-2.4c1-0.8,2.4-0.7,3.6-1c0.1-0.3,0.1-0.7,0.2-1c-0.5-0.1-0.9-0.2-1.4-0.2c0,0,0,0,0,0
			c-0.8-0.2-1.3-0.8-1.2-1.5c0-0.8,0.7-1.4,1.5-1.4c1.7-0.1,5.3,1.8,5.5-1c-2.2-1-4.1-1.7-6.4-2.4c-0.7-0.2-1.5-0.4-2.1-0.7
			C22.7,138,22.8,136.4,23.9,135.9z"/>
		<path class="st3" d="M90.3,41.7c-0.7-0.1-1.2-0.6-1.9-0.6c0,0,0.1,0,0.1,0c-0.1,0-0.3,0-0.4,0c0,0,0,0,0,0
			c-2,0.8-5.4-11.4-5.4-13.3c0,0,0,0,0,0c0-0.3,0-0.6,0-0.9c-4.7-3.9-11-6.9-17.2-7.4c-1.3,1.9-4.2,1.7-6.1,2.7c0,0,0,0,0,0l0,0
			c0,0,0,0,0,0c0,0,0,0,0,0c-0.1,0-0.1,0-0.2,0.1c0,0,0,0,0,0c-0.1,0-0.1,0-0.2,0.1c0,0,0,0,0,0c-11.1,2.7-7.7,8.6-12.7,16.4
			c-0.7,2-3.1,2.4-4.1,0.4c-1.2-3.8-0.6-8.4,0.2-12.3C45.4,20.7,57.8,7.5,65,13.7c1-0.5,2-1,3-1.4c-0.1,0-0.1,0-0.2,0.1
			c2.4-0.7,5-1.6,7.5-0.8c0.9,0.7,2,0.8,2.9,1.5c-0.1,0-0.1-0.1-0.2-0.1c5.5,3.8,10.9,8.2,15.2,13.5c0,0,0,0,0,0c0,0,0,0,0,0
			c0,0,0,0,0,0c0,0,0,0,0,0c0,0,0,0,0,0c0,0,0,0,0,0c0,0,0,0,0,0c0,0,0,0,0,0c0,0,0,0,0,0c0,0,0,0,0,0c0,0,0,0,0,0c0,0,0,0,0,0
			c0,0,0,0,0,0c0.1,0.2,0.3,0.4,0.4,0.5c0,0,0,0,0,0c1.2,1.3,1.5,3.3,1.3,5c0,0,0,0,0,0c0,0,0,0,0,0c0,0,0,0,0,0c0,0,0,0.1,0,0.1
			c0,0,0-0.1,0-0.1c0,0.1,0,0.1,0,0.2c0,0,0,0,0-0.1c-0.3,3.2-1.5,6.2-2.9,9.1c0,0,0,0,0,0C91.8,41.8,91,41.9,90.3,41.7z"/>
		<path class="st3" d="M90.3,39.1c-2.7-2,5.5-9,2.7-13c0.1,0.1,0.1,0.2,0.2,0.3c0,0,0,0,0-0.1c0,0,0.1,0.1,0.1,0.1c0,0,0,0,0,0
			c0.1,0.2,0.3,0.4,0.4,0.5c0,0,0,0,0,0c0.9,0.9,1.2,2.2,1.4,3.5c0,0,0,0,0,0c0,0,0,0,0,0c0,0,0-0.1,0-0.1c0,0.1,0,0.1,0,0.2
			c0,0,0,0,0,0c0,0,0,0,0,0.1c0,0,0,0,0,0c0,0,0,0.1,0,0.1c0,0,0,0,0,0c0.1,0.5,0,1,0,1.5c0,0,0,0,0,0c0,0,0,0,0,0c0,0,0,0,0,0
			c0,0,0,0.1,0,0.1c0,0,0-0.1,0-0.1c0,0,0,0.1,0,0.1c0,0,0,0,0,0C94.8,34,92.8,40.1,90.3,39.1z"/>
		<path class="st3" d="M92.5,25.4c-1.4-1.5-10-6.5-8.5-8.1C87.1,19.8,90,22.4,92.5,25.4C92.6,25.5,92.5,25.5,92.5,25.4z"/>
		<path class="st3" d="M86.9,42c-2.1-1.8-2.6-10.2-3.8-13.4C83,27,85.3,26.4,86,27.8c0.9,3.8,1.7,7.6,2.5,11.3
			C92.5,38,90.7,43.6,86.9,42z"/>
		<path class="st4" d="M66.3,50.3c-3.3-0.1-3.7-2-3-4.8c0,0,0,0,0,0c0-0.1,0-0.3,0.1-0.4c0,0,0,0,0,0c0-0.1,0-0.1,0-0.2h0
			c0-0.1,0-0.2,0-0.3c0,0,0,0,0,0c0,0,0-0.1,0-0.1c0,0,0,0,0,0c0-0.1,0-0.1,0-0.2c0,0,0,0,0,0c0,0,0-0.1,0-0.1c0,0,0,0,0,0
			c0.1-0.5,0.1-1,0.2-1.6c0,0,0,0,0,0c0-0.3,0.1-0.6,0.1-0.9c0,0,0,0,0,0c0,0,0,0,0,0l0,0c0,0,0,0,0,0h0c0-0.1,0-0.1,0-0.2
			c0,0,0,0,0,0c0,0,0,0,0-0.1c0,0,0,0,0,0c0,0,0,0,0,0c0,0,0,0,0,0c0.3-1.6,0.4-3.3,0.9-4.9v0c2.4-1.8,0.1,4.1,0.3,5.1c0,0,0,0,0,0
			c0,0,0,0.1,0,0.1c0,0,0,0,0,0c0,0,0,0,0,0c0,0.1,0,0.1,0,0.2c0,0,0,0,0,0c0,0,0,0,0,0c0,0,0,0,0,0c0,0.3-0.1,0.6-0.1,0.8
			c0,0,0,0,0,0c-0.1,0.6-0.2,1.3-0.3,1.9c0,0,0,0,0,0c0,0.2,0,0.3-0.1,0.5c0,0,0,0,0,0c0,0.1,0,0.2,0,0.4c0,0,0,0,0,0
			c-0.1,0.5-0.1,0.9-0.2,1.4c0,0,0,0,0,0c0,0.4-0.1,0.9,0,1.4c0,0.1,0.1,0.1,0.2,0.1c0,0,0,0-0.1,0c1.4,0.7,3.1,0.7,4.6,0.6
			c0.1-0.8,0.1-1.7,0.1-2.5c0,0,0,0.1,0,0.1c0-0.1,0-0.1,0-0.2c0,0,0,0.1,0,0.1c0.1-0.6-0.3-1.5,0.5-1.6c0.4,0,0.7,0.4,0.6,0.8
			c0,0,0-0.1,0-0.1C70.2,49.3,70.7,51,66.3,50.3z"/>
		<path class="st4" d="M71.8,59.8c-0.1-0.1-0.2-0.2-0.3-0.3c0,0,0,0,0.1,0c-1.2-0.8-2.7-1.3-4.1-1.7c0,0,0.1,0,0.1,0
			c-2.3-0.7-4.8-0.6-6.7,0.9c0,0,0,0,0,0c-0.1,0.1-0.2,0.2-0.3,0.3c-0.9,2.3-3.3-1.2,2.7-2.6c1.9-0.6,9.8,1.1,9.5,3.4
			C72.5,60.1,72,60.1,71.8,59.8z"/>
		<path class="st4" d="M66.2,61.3c-0.6-0.4-2.5-0.5-1.3-1.6c0.1-0.1,0.3-0.1,0.4,0c0,0,0,0,0,0c0.5,0.1,1,0.3,1.4,0.5c0,0,0,0-0.1,0
			C67.5,60.4,67,61.7,66.2,61.3z"/>
		<path class="st4" d="M91.5,133.2c-0.4,0-0.8-0.1-1.2-0.1c0,0,0.1,0,0.1,0c-3.6-0.1-7.2,0-10.8-0.3c0,0,0.1,0,0.1,0
			c-0.1,0-0.2,0-0.4,0c0,0,0.1,0,0.1,0c-0.8-0.1-1.6,0.1-2.4-0.1c-0.5-0.3-0.3-1.2,0.3-1.2c1,0.1,2,0.1,3,0.1c0,0-0.1,0-0.1,0
			c0.1,0,0.3,0,0.4,0c0,0-0.1,0-0.1,0c3.4,0.2,6.7,0.1,10.1,0.2c0,0-0.1,0-0.1,0c0.6,0.1,1.8-0.2,1.8,0.8
			C92.1,133,91.8,133.3,91.5,133.2z"/>
		<path class="st4" d="M52.8,37.7c-0.4-0.3-0.8-0.8-0.6-1.3c-0.3-0.7,0.7-0.9,1.1-1.3c0,0,0,0,0,0C62.4,26.1,57.6,39,52.8,37.7z"/>
		<path class="st4" d="M56.1,43.9c-0.3,0-0.5-0.1-0.8-0.2c-1.7,0.4-1.1-2.4-0.5-3.2c1.2-1.8,4.8,0.2,3.6,2.1h0c0,0,0,0,0,0
			C58,43.6,57,44,56.1,43.9z"/>
		<path class="st4" d="M76.4,37.4c-2.1-0.6-4.7-1.8-5-4.3c0,0,0,0,0,0c-0.2-0.8,0.2-2.6,1.3-1.8c1.3,1.6,3.3,2.5,5.1,3.3
			c0,0,0,0,0,0C80.8,35.4,78.6,38.1,76.4,37.4z"/>
		<path class="st4" d="M74.7,44.5c-2.3-1.3-0.2-4.7,2.1-3.5c2.6,1.1,1.3,4.4-1.3,3.4C75.3,44.6,75,44.7,74.7,44.5z"/>
		<path class="st4" d="M56,43.2c0.2,0,0.4,0,0.6,0c0,0,0,0,0,0c0.4,0,0.7-0.2,1-0.4c0,0,0,0-0.1,0c0.1-0.1,0.2-0.2,0.3-0.2v0
			c0.2-0.2,0.3-0.6,0.2-0.9c0,0,0,0,0,0c-0.3-0.7-1.2-1.1-1.9-0.9c-0.1,0.2-0.2,0.3-0.4,0.4c-0.2,0.3-0.5,0.6-0.8,0.5c0,0,0,0,0,0
			c0,0,0,0,0,0c0,0,0,0,0,0c-0.2,0.3-0.2,0.7,0,0.9c0,0,0,0,0-0.1c0,0.1,0.1,0.2,0.1,0.2c0,0,0,0,0,0c0,0,0,0,0,0c0,0,0,0,0,0
			c0.2,0.2,0.4,0.3,0.6,0.3c0,0,0,0,0,0C55.8,43.2,55.9,43.2,56,43.2z M56,44.4c-3.9-0.4-2.5-5.2,0.9-4.8
			C60.5,40.2,59.4,44.9,56,44.4z"/>
		<path class="st4" d="M75.8,43.7c0.6,0.1,1.4-0.3,1.4-1c-0.1-0.1-0.2-0.2-0.3-0.3c0,0,0,0,0,0c0,0,0,0,0,0c0,0,0,0,0,0c0,0,0,0,0,0
			c-0.2-0.2-0.4-0.4-0.6-0.5c-0.3,0.1-0.7,0-0.9-0.2c-1.2,0.3-1.5,1.6-0.1,1.9c0,0,0,0-0.1,0C75.3,43.6,75.6,43.6,75.8,43.7z
			 M75.2,44.7c-3.6-0.5-1.9-5.3,1.1-4.1C79.6,41.3,78.3,45.6,75.2,44.7z"/>
		<path class="st4" d="M77.6,144.3c0.7,0,2.1-0.3,2.1-0.3s0.1,0,0.2,0c0.9,4.3,1.7,8.7,2.2,13.1c0,0,0,0,0,0c0,0.1,0,0.2,0,0.4h1.1
			c-0.4-4.6-1.4-9.2-2.2-13.7c0,0,1-0.1,1-0.1c2-0.3,4.1-0.7,6.1-0.4c6.8,1.1,10.1,8,8.4,14.3h1.1c0.2-2.1,0.4-4.1,0.5-6.2
			c0-0.6,0.1-1.1,0.1-1.7v0.1c0.5-10.1,0.6-20.2,0.4-30.3c-0.2-1,0.1-2.2-0.4-3c-0.4-0.4-1.1,0.1-1,0.6c0.7,10.5,0.3,21.1,0,31.6
			c0,0.2,0,0.3,0,0.5c-2.7-6.5-10.4-7.7-16.7-6.2c0,0-2.1,0.5-2.7,0.2c-0.7-1.5-3.1,0-4.4,0c-8.8,1.7-17.6,3.4-26.4,5.5
			c-0.8-1.8-1.6-3.5-2.7-5.1c0,0,0,0,0,0c-2.7-4-7.1-6.3-11.7-7.5c-1-0.3-2.1-0.6-3.2-0.8c0.1-1.9,0.1-3.8,0.2-5.7c0,0,0,0,0,0
			c0.1-1.1,0.1-2.3,0.1-3.4c0,0,0,0,0-0.1c0,0,0,0,0,0c0-0.3,0-0.7,0-1c0-0.4,0-0.9,0-1.3c0,0,0,0,0,0c0-0.3,0-0.5,0-0.8
			c0,0,0,0,0,0c-0.1-1,0.4-2.2,0-3.1c-1.7-0.8-1,2.1-1.2,3c0,1.5-0.1,3-0.1,4.5c-0.1,1.1-0.1,2.2-0.1,3.2c0,0.4,0,0.7,0,1.1
			c-0.1,1.2-0.1,2.4-0.1,3.6c-2.9-0.2-6.9-0.4-8.3,2.7c1.1,2.7,5.6,2,8,3.2c0,0.3,0,0.7,0,1c-8.7,0.7-8.9,2.7-0.2,4.2
			c-11.5,0.1-3.3,6.2,1,6.6c0.6,0,3.5-0.4,3.5-0.4c14.8-2.1,29.3-6.3,44.1-8.7c0.5,4.6,1.1,9.2,1.7,13.9h1.2
			C78.6,153.1,78,148.7,77.6,144.3z M29,151.6c-0.1,0-0.2-0.1-0.3-0.1l0,0c-0.1,0-0.2-0.1-0.3-0.1c-0.2-0.1-0.4-0.1-0.6-0.2
			c0,0,0,0,0,0c-0.6-0.2-1.2-0.5-1.8-0.7c0,0,0,0,0,0c-0.7-0.3-1.4-0.7-2-1.2c0,0,0,0,0.1,0c-0.3-0.3-0.6-0.5-0.8-0.8
			c-0.1-0.1-0.1-0.2-0.1-0.3c0,0,0,0,0,0c1.4-0.7,3.1-0.6,4.7-0.8v0c2-0.1,4-0.1,5.9,0.3c2.9-1.3-5-2.3-5.8-2.7c0,0,0,0,0,0
			c-1.5-0.4-3-0.7-4.6-1.1c2.5-0.5,5.1-0.9,7.6-0.8c0,0,0,0,0,0c6.6,0.3,1.1-2.5-1.7-3c0,0,0,0,0,0c-2.6-1-5.4-1.2-7.9-2.3
			c0.1-0.1,0.3-0.3,0.4-0.4c2-1.8,5.2-1.1,7.7-1.1c1.1,0.1,2.1,0.4,3.1,0.8c0.1,0,0.2,0.1,0.3,0.1c0,0-0.1,0-0.1,0
			c1.3,0.4,2.7,0.9,3.9,1.4c0,0,0,0,0,0c0.8,0.4,1.6,0.8,2.3,1.3l-0.1,0c0.5,0.3,1,0.7,1.4,1.1c0,0,0,0-0.1,0c2.6,2.1,4.4,4.9,5.6,8
			C40.2,149.9,34.6,150.7,29,151.6z M29.1,141.9c0-0.2,0-0.4,0-0.6c0.6,0.2,1.2,0.4,1.8,0.6C30.3,141.9,29.7,141.9,29.1,141.9z"/>
		<path class="st4" d="M45.2,80.1L45.2,80.1C45.2,80.1,45.2,80.1,45.2,80.1c-6.4,4.4-13.5,7.8-19.3,12.9
			C12,111.3,10.2,135,9.1,157.5h1.1c0.5-8.9,1-17.9,2.5-26.7c0,0,0,0,0,0c0,0,0,0,0-0.1c0,0,0,0,0,0c0,0,0,0,0,0
			c1.6-9.7,4.1-19.2,8.3-28.1c0,0,0,0,0,0.1c0.8-1.6,1.6-3.2,2.6-4.7c0,0,0,0,0,0c1.1-1.7,2.3-3.3,3.7-4.7c0.1-0.1,0.3-0.3,0.4-0.4
			c0,0,0,0,0,0c5.3-4.1,11.3-7.4,17-11.1c-0.9,3.2-1.7,6.5-2.5,9.7c0,0,3.5,2.6,5.5,4.2c-0.4,0.6-0.7,1.1-1.1,1.7c0,0,0,0,0,0
			c-0.6,0.9-1.3,1.9-1.9,2.8c0,0,0,0,0,0c-0.3,0.4-0.5,0.8-0.8,1.1c19.8,46.3,23.4,49,1.4,0.1c1.5-1.9,2.8-3.9,4.1-6
			c-1.9-1.5-3.8-3-5.7-4.4c0.9-3.4,1.7-6.8,2.7-10.2c2-1.2,3.9-2.5,5.8-3.8c0,0.4,0.1,0.8,0.1,1.2c0,0,0,0,0,0
			c2.1,15.1,5.1,30,8,44.9v0c0.9,4.7,1.7,9.5,2.7,14.2c0,0,0,0,0-0.1c0.2,0.7,0.3,1.4,0.6,2.1c0.2,0.5,0.4,1.6,1.2,1.1
			c0.3,0,0.6-0.1,0.6-0.4c1.4-5.5,2.7-10.9,4.1-16.4v0c0.3-1.1,0.6-2.1,0.8-3.2c3-12.1,9.4-37.4,9.6-38c0,0,0,0,0,0
			c0.4-1.7,0.9-3.5,1.3-5.2c2.1,1.1,4.2,2.3,6.3,3.5c0.1,4.4,0.3,8.8,0.5,13.2c-1.5,0.6-3,1.3-4.4,1.9c0,0,0,0,0,0
			c-0.4,0.2-0.7,0.3-1.1,0.5c1.6,3.1,3.7,6,5.5,9.1c-26.3,39.6-26,43.4,0.7,1.1c0,0,0,0,0,0c0.2-0.4,0.5-0.7,0.7-1.1c0,0,0,0,0,0
			c-0.2-0.4-0.5-0.7-0.7-1.1c0,0,0,0,0,0c-1.5-2.5-3.1-4.9-4.5-7.4c1.3-0.6,2.6-1.2,3.9-1.7c0,0,0,0,0,0c0.4-0.2,0.8-0.3,1.1-0.5
			c0-0.4,0-0.9-0.1-1.3c0,0,0,0,0,0c-0.2-4-0.4-8-0.5-12.1c4.3,2.5,8.7,5,12.8,7.8c0,0,0,0,0,0c0.1,0.1,0.2,0.1,0.3,0.2v0
			c0,0,0.1,0,0.1,0.1c0,0,0,0,0,0c0.2,0.1,0.4,0.2,0.6,0.4c0,0,0,0,0,0c3.2,1.8,7,4.7,9.4,6.3c0,0,0,0,0,0c0.8,1.7,1.1,3.5,1.6,5.3
			c0,0,0,0,0,0c1.2,5.4,2,10.8,2.5,16.3c0,0,0-0.1,0-0.1c0.1,0.6,0.1,1.1,0.2,1.7c0,0,0,0,0,0c0.5,7.6,0.5,15.3,0.3,22.9
			c0,0,0,0,0,0c0,0,0,0,0,0.1v0c-0.1,2.7-0.5,5.4-0.9,8c0,0,0,0,0-0.1c-0.1,0.4-0.2,0.9-0.2,1.3c0,0,0,0,0,0
			c-0.3,1.9-0.7,3.9-1.1,5.8h1.1c0.5-2.3,0.9-4.6,1.3-6.9c0,0,0,0,0,0c1.7-10.3,1.1-20.9,0.6-31.2v0c-1-8-1.3-16.8-4.7-24.1v0
			c-0.2-0.1-0.7-0.5-0.9-0.6c-2.8-2-5.6-3.6-8.6-5.6c0,0,0,0,0,0c-0.2-0.1-0.4-0.3-0.6-0.4c0,0,0,0,0,0c0,0,0,0-0.1,0c0,0,0,0,0,0
			c-0.1-0.1-0.2-0.1-0.3-0.2c0,0,0,0,0,0c0,0,0,0,0,0c0,0,0,0,0,0c0,0,0,0,0,0c-4.7-3.2-9.7-5.9-14.6-8.8c0,0,0,0,0,0
			c-2-1.2-4-2.3-6-3.4c-0.8-0.4-1.5-0.8-2.2-1.2v0c-0.2-0.1-0.4-0.3-0.6-0.4v0c-0.2-0.1-0.3-0.2-0.5-0.1c0.3-2.8,0.2-6.2,2.8-8
			c0,0,0,0,0,0c0,0,0,0,0,0c5.2-3.4,5.3-10,6.5-15.5c0.2-0.2,0.3-0.5,0.2-0.7c4.4,0.1,5.8-6.8,2.8-9.3c2-6.1,3.8-13.4,1.9-19.5
			c-5.1-6-11.2-13.8-19.5-13.9c-1.1,0-3,0.5-4.2,1.1c-1,0.7-1.9,1.5-2.8,2.3c-4.7-5.2-11.1-0.8-15.5,2.5c-4.6,3.4-9.6,7.9-9.4,14.2
			c0,0,0,0,0,0c-0.2,4.2,0.4,8.4,0.8,12.6c-0.6,0.5-1,1.3-1.3,2c0,0,0,0,0,0c-0.6,2-1,4.8,0.6,6.5c0.8,0.8,1.9,1.2,3,1.2
			c0.2,2.3,0.4,4.6,0.7,6.9c0,0,0,0,0,0c0.5,4.7,3.5,8.8,7.7,10.9c0,0,0,0,0,0c0.2,0.1,0.3,0.2,0.5,0.4c0,0,0,0,0-0.1
			c0.3,0.3,0.5,0.6,0.7,0.9c0.3,0.5,0.5,1,0.6,1.6c0.1,1.2,0.2,2.3,0.3,3.5c-0.1,0.1-0.1,0.3-0.1,0.4c-2.6,1.2-4.9,3.1-7.4,4.6
			c0,0,0,0,0,0C46.2,79.5,45.7,79.8,45.2,80.1z M61.4,95.3c-0.1,1-0.2,2-0.3,3.1c-0.4,4.9-0.9,9.8-1.3,14.7v-0.1
			c-0.1,0.7-0.1,1.3-0.2,2c-1.9-9.1-3.4-18.4-5-27.6c-0.2-0.9-0.3-1.7-0.4-2.6c1.7,1.5,3.3,2.9,5,4.4c0,0,0,0,0,0c0,0,0,0,0,0
			c0.1,0.1,0.1,0.1,0.2,0.2c0,0,0,0,0,0c0.2,0.4,0.8,0.7,1.1,0.2c0,0.4,0.1,0.7,0.1,1c0,0,0-0.1,0-0.1c0.2,1.4,0.5,2.8,0.8,4.3
			C61.4,95,61.4,95.1,61.4,95.3L61.4,95.3z M69.6,117.4c-0.5-4.7-1-9.4-1.6-14.1c-0.3-2.7-0.6-5.4-0.9-8h0c0.3-1.3,0.9-2.7,1.3-4
			c0,0,0,0,0,0c0.1-0.2,0.1-0.4,0.2-0.6c0.2,0.1,0.3,0.1,0.5,0c0,0,0,0,0,0c0.1,0,0.2-0.1,0.3-0.2h0c2.8-1.7,5.6-3.4,8.3-5.3
			C74.9,96,72.3,106.7,69.6,117.4z M66.7,11.6c0.1-0.1,0.1-0.1,0.2-0.2l0,0c0.9-0.7,1.7-1.6,2.8-2.1c0,0,0,0,0,0c0,0,0,0,0,0l0,0
			c0.7-0.3,1.4-0.8,2.2-0.8c0,0,1.2,0.1,1.2,0.1c0.1-0.1,3.2,0.7,3.2,0.7c1.8,0.8,2.5,1.2,2.5,1.2c0.8,0.4,1.2,0.6,1.4,0.7
			c0.6,0.4,1.5,1,2.5,1.9c0,0,3.2,2.6,5.7,5.8c0,0,0,0,0-0.1c1,1.1,1.9,2.1,2.8,3.3c0,0,0,0,0,0v0c0,0,0,0,0,0c0,0,0,0,0,0
			c0,0.1,0,0.2,0.1,0.3c0.1,0.4,0.2,0.9,0.2,1.4c0.3,3.3,0.1,6.6-0.6,9.9c-0.3,1.6-0.6,3.1-1.1,4.6c0,0,0,0,0-0.1
			c-0.2,0.7-0.5,1.5-0.8,2.2c-0.9-0.4-2,0-2.7,0.6c-0.3-2.5-0.4-5.1-1.3-7.5c-0.3-0.7-0.6-1.4-0.9-2.1c0,0,0,0,0,0.1
			c-0.7-1.4-0.8-3-0.3-4.5c0.4-0.3,0.3-1-0.1-1.2c-2.7-2.2-6-4-9.2-5.3c1.5-1.3,3.5-2,5.4-2.5c2.2-3.1-6.2,0.9-6.6,2.1
			c-0.9-0.3-1.7-0.6-2.6-0.7c0-0.1,0.1-0.1,0.1-0.2c0,0,0,0,0,0c1.2-1.9,3.3-3.3,5.6-3.4c0.7-0.2,1.9,0.3,2-0.7
			c-2.4-2.1-7.8,1.3-9,4c-1.3-0.2-2.5-0.2-3.8-0.2c0-0.5,0-1-0.1-1.4v0c0,0,0-0.1,0-0.1c0,0,0,0.1,0,0.1c-0.1-1.4-0.2-2.9-0.2-4.3
			C65.8,12.7,66.1,12,66.7,11.6z M41.8,27.9c0.1-0.8,0.1-1.7,0.2-2.5l0,0c0-0.1,0-0.2,0-0.2c0,0,0,0,0,0c0,0,0,0,0,0
			c1-6,16.5-19.8,22.1-13.6c-0.2,2.4,0.2,4.8,0.2,7.2c0,0,0-0.1,0-0.1c0,0.1,0,0.2,0,0.3c-1.1,0-2.2,0.2-3.3,0.4
			c-0.6-1.3-6.4-6.7-6.7-3.8c0.2,0.5,0.9,0.4,1.3,0.7c1.7,0.8,3,2,4.1,3.5c-0.5,0.2-1.1,0.3-1.6,0.5c-0.2-0.2-0.5-0.4-0.8-0.7
			c0,0,0,0,0,0c-0.6-0.9-4.9-3.1-3.5-0.5c1.2,0.1,2.2,0.9,3.1,1.7c-3,1.4-6.2,3.1-8,6c-1.1,0.6-0.4,2.4-0.7,3.4
			c-0.1,0.8-0.2,1.6-0.5,2.3c-0.1,0.1-0.1,0.3-0.2,0.4c-1.6,2.2-2.9,4.7-3.2,7.5c-0.5-0.3-1-0.3-1.5-0.4c-0.1,0-0.2,0-0.3,0
			C42.2,35.9,41.7,31.9,41.8,27.9z M48.2,63.1C48.2,63.1,48.2,63.1,48.2,63.1c-1.3-1.9-2.2-4-2.5-6.3c0,0,0,0,0,0c0,0,0-0.1,0-0.1
			c0,0,0,0.1,0,0.1c0-0.1,0-0.2,0-0.3c0,0,0,0,0,0c-0.2-3-0.9-6-0.5-9c0.2-1.2-1.4-1-1.3,0.1c0,0,0,0,0,0c0,0.4-0.1,0.8-0.1,1.2
			c-0.1,0-0.3,0-0.4,0c0,0,0,0,0,0c0,0,0,0-0.1,0h0c0,0,0,0,0,0h0c-0.2,0-0.4-0.1-0.6-0.1c0,0,0,0,0,0c-0.4-0.1-0.8-0.3-1.1-0.7
			c0,0,0,0,0,0c0,0,0,0-0.1-0.1c0,0,0,0,0,0c-0.2-0.2-0.4-0.5-0.5-0.8c0-0.1,0-0.3-0.1-0.4c-0.1-0.4-0.1-0.9-0.1-1.3v0.1
			c-0.3-2.1,1.3-6.2,3.7-3.6c0.4,0.9,1.7,0.1,1.1-0.7c0,0,0,0,0,0c0,0-0.1-0.1-0.1-0.1c0.1-1.5,0.5-3,1.1-4.4
			c1.9-2.8,3.3-5.6,3.2-9.1c0.4-0.1,0.4-0.4,0.6-0.7c0.3-0.4,0.6-0.8,0.9-1.1c0,0,0,0,0,0c0.5-0.5,1-0.9,1.5-1.3c0,0,0,0,0,0
			c0,0,0,0,0,0c0,0,0,0,0,0c0.7-0.5,1.4-1,2.2-1.4l0,0c1.1-0.6,2.2-1.2,3.4-1.7c0,0,0,0,0,0c4.5-1.8,9.6-1.8,14.2-0.4c0,0,0,0,0,0
			c0.9,0.3,1.7,0.6,2.6,0.9c0,0,0,0,0.1,0c0,0,0,0,0,0c1.3,0.6,2.6,1.2,3.8,2c0,0,0,0,0,0c1.3,0.8,2.6,1.5,3.9,2.4
			c-0.5,1.8-0.5,3.8,0.3,5.5c0,0,0,0,0-0.1c0.2,0.4,0.4,0.9,0.5,1.3c0,0,0,0,0-0.1c0,0.1,0.1,0.2,0.1,0.3c0,0,0,0,0-0.1
			c0.7,1.6,1,3.4,1.2,5.1c0,0,0-0.1,0-0.1c0.2,1.5,0.2,3,0.5,4.4c0,1,1.5,0.8,1.3-0.1c0.5-1.2,2.1-1.5,2.9-0.4c0,0,0,0,0,0
			c0,0,0,0,0.1,0.1l0,0c0.4,0.4,0.6,1,0.7,1.6c0,0,0,0,0,0c0,0,0,0,0,0c0.1,0.8,0.2,1.5,0.1,2.3c0,0,0,0,0,0c0,0,0,0,0,0
			c0,0,0,0,0,0c-0.2,0.9-0.6,1.8-1.3,2.4c-0.1,0.1-0.2,0.1-0.3,0.2c0,0,0,0,0,0c-0.5,0.3-1.1,0.4-1.6,0.6
			c-2.1-1.9-2.2,12.1-4.8,13.8c-1.3,1.9-3.8,2.8-4.7,4.9c-0.9,2.2-1,4.6-1.2,6.9c-3.8,2-7.7,3.8-11.7,5.4c-2.6-1.7-5.2-3.3-7.8-4.9
			c-0.6-0.4-1.2-0.8-1.8-1.2v0c0,0,0,0,0,0c-0.1-1.2-0.2-2.5-0.3-3.7C54.6,66.6,50.1,66,48.2,63.1z M55.1,75.5
			c3.2,2.1,6.5,4,9.7,6.1c0.3,0.4,1,0.2,1.1-0.3c3.7-1.5,7.3-3.1,10.9-5c0,0,0,0,0,0c0.3-0.2,0.7-0.3,1-0.5v0c0,0,0,0,0.1,0
			c0.7,0.3,1.3,0.7,2,1.1c-0.6,2.2-1.1,4.5-1.7,6.7c-2.4,1.6-4.8,3.3-7.3,4.8c0,0,0,0,0,0c0,0,0,0,0,0c0,0-0.1,0.1-0.1,0.1
			c0,0,0,0,0,0c-0.6,0.4-1.2,0.7-1.9,1.1c-1.1-1.9-2.2-3.8-3.1-5.7l0,0c-0.1-0.3-0.2-0.5-0.3-0.8c0-0.2-0.1-0.3-0.2-0.5
			c-0.3,0.3-0.6,0.7-0.9,1.1v0c-1.3,1.7-2.8,3.2-4.1,4.8c-2-1.9-4.2-3.7-6.2-5.6c-0.2-1.5-0.5-3.1-0.6-4.6c0,0,0,0.1,0,0.1
			c-0.2-0.6,0.3-1.4-0.3-1.8C53.7,76.1,54.3,75.7,55.1,75.5z"/>
		<path class="st4" d="M23.1,148.1C23.1,148.1,23.1,148.1,23.1,148.1C23.1,148.1,23.1,148.1,23.1,148.1
			C23.1,148.1,23.1,148.1,23.1,148.1z"/>
	</g>
</g>
<circle class="st0" cx="145.9" cy="126.3" r="6.7"/>
<circle class="st0" cx="132.5" cy="134.7" r="5"/>
<circle class="st0" cx="156.7" cy="110.4" r="9.2"/>
</svg>
