<?xml version="1.0" encoding="utf-8"?>
<!-- Generator: Adobe Illustrator 23.1.1, SVG Export Plug-In . SVG Version: 6.00 Build 0)  -->
<svg version="1.1" id="レイヤー_1" xmlns="http://www.w3.org/2000/svg" xmlns:xlink="http://www.w3.org/1999/xlink" x="0px"
	 y="0px" width="500px" height="500px" viewBox="0 0 500 500" style="enable-background:new 0 0 500 500;" xml:space="preserve">
<style type="text/css">
	.st0{fill:#FFFFFF;}
	.st1{fill:#53639B;}
	.st2{fill:#98B8E5;}
	.st3{fill:#AEC5BA;}
	.st4{fill:none;stroke:#768BB6;stroke-width:2.8063;stroke-miterlimit:10;}
	.st5{fill:none;stroke:#354471;stroke-width:3.1181;stroke-linecap:round;stroke-linejoin:round;stroke-miterlimit:10;}
	.st6{fill:none;stroke:#354471;stroke-width:2.0267;stroke-linecap:round;stroke-linejoin:round;stroke-miterlimit:10;}
	.st7{fill:none;stroke:#354471;stroke-width:2.8063;stroke-linecap:round;stroke-linejoin:round;stroke-miterlimit:10;}
	.st8{fill:#F6ED68;}
	.st9{fill:#354471;}
</style>
<g>
	<circle class="st0" cx="250" cy="250" r="245"/>
</g>
<g>
	<g>
		<g>
			<path class="st0" d="M373.3,497.4c-1,0-2.1-0.2-3.1-0.5c-2.6-0.9-4.7-3-5.7-5.6c-1.2-3.1-8.5-15.1-14.7-24.3
				c-0.1-0.1-0.2-0.2-0.2-0.4c-7-11.5-41-50.3-53.4-64.3c-2.1-2.4-2.9-5.7-2-8.7c0,0,0-0.1,0-0.2l-0.5-0.5c-0.9-0.9-1.7-2.1-2.2-3.3
				c-0.1,0-0.3,0-0.4-0.1c-2.2-0.4-4.6-0.8-7-1.3c-0.2,0-0.3,0-0.5,0l-81.4,0.2c-7.3,16.3-20,44.9-25,58.4
				c-11.1,30.5-11.9,36.7-11.9,37.7c-0.1,2.5-1.3,4.9-3.2,6.5c-1.9,1.7-4.4,2.5-6.9,2.3L99,489.3c-2.7-0.2-5.1-1.5-6.8-3.7
				c-1.6-2.1-2.2-4.9-1.7-7.5c0.2-1.1,0.5-2.4,0.8-3.9c1.8-9.5,5.3-27.2,12.4-47.9c2.8-8,8.6-21,17.2-38.7c-2.9-1.6-4.8-4.6-4.8-8.1
				l-0.4-140.3l-10-113.2c-0.1-1.6,0.1-3.2,0.8-4.6l2.2-4.9c1.5-3.4,4.9-5.6,8.6-5.6c0,0,0,0,0,0l226,0.3c3.8,0,7.2,2.3,8.7,5.9
				l1.8,4.5c0.6,1.5,0.8,3.1,0.6,4.7l-13.9,110.2c0.1,0.6,0.2,1.2,0.2,1.8l0.3,113.4c1.7,0.4,3.4,1.3,4.6,2.6
				c0.4,0.4,40.6,41.5,50.1,50.2c11.3,10.2,31.1,37.2,37.5,46.7c1.4,2.1,1.9,4.7,1.4,7.2c-0.5,2.5-2.1,4.7-4.3,6L378.2,496
				C376.7,496.9,375,497.4,373.3,497.4z"/>
		</g>
	</g>
	<g>
		<polygon class="st1" points="336.7,176.5 239,134.4 341.9,133.5 		"/>
		<path class="st2" d="M239.4,134.8l-107.7,0.3l7.4,98l191.2-1l6.8-55.3L239.4,134.8z M280.8,211.5l-77.3,0.3l-2.6-53.7l84.1,0.6
			L280.8,211.5z"/>
		<path class="st3" d="M107.7,474.9c0,0,6.5-29.1,9.4-37.5c2.9-8.4,38.5-83.2,38.5-83.2s12-2.9,26.9,1.3c14.9,4.2,23,19.1,23,19.1
			s-16.5,39.2-20.7,49.5c-4.2,10.4-18.1,45.9-19.4,51.4c-1.3,5.5-2.3,10.7-2.3,10.7L107.7,474.9z"/>
		<path class="st3" d="M380.8,488.7l47.9-37.9c0,0-23-29.1-26.9-34.6c-3.9-5.5-32.7-32-32.7-32l-22.6-23.6c0,0-15.9,3.9-20.4,8.4
			c-4.5,4.5-12.9,21-14.9,26.9c0,0,37.5,43,42.4,49.8C358.5,452.4,378.5,483.2,380.8,488.7z"/>
	</g>
	<g>
		<g>
			<g>
				<polyline class="st4" points="143.7,255.9 144,262.9 151.1,263.1 				"/>
				<polyline class="st4" points="156.5,255.8 156.7,262.9 163.8,263.1 				"/>
				<polyline class="st4" points="169.2,255.8 169.5,262.8 176.5,263.1 				"/>
				<polyline class="st4" points="181.9,255.8 182.2,262.8 189.2,263 				"/>
				<polyline class="st4" points="194.6,255.7 194.9,262.7 201.9,263 				"/>
				<line class="st4" x1="210.2" y1="262.8" x2="214.6" y2="263"/>
				<line class="st4" x1="207.3" y1="255.7" x2="207.5" y2="260.1"/>
				<line class="st4" x1="223.7" y1="262.8" x2="227.4" y2="262.9"/>
				<line class="st4" x1="220" y1="255.6" x2="220.2" y2="259.5"/>
				<polyline class="st4" points="232.7,255.6 233,262.6 240.1,262.9 				"/>
				<polyline class="st4" points="245.5,255.6 245.7,262.6 252.8,262.9 				"/>
				<polyline class="st4" points="258.2,255.5 258.5,262.6 265.5,262.8 				"/>
				<polyline class="st4" points="270.9,255.5 271.2,262.5 278.2,262.8 				"/>
				<polyline class="st4" points="283.6,255.5 283.9,262.5 290.9,262.8 				"/>
				<polyline class="st4" points="296.3,255.4 296.6,262.5 303.6,262.7 				"/>
				<polyline class="st4" points="309,255.4 309.3,262.4 316.4,262.7 				"/>
			</g>
			<g>
				<polyline class="st4" points="143.8,268.8 144.1,275.9 151.1,276.1 				"/>
				<polyline class="st4" points="156.5,268.8 156.8,275.8 163.8,276.1 				"/>
				<polyline class="st4" points="169.2,268.8 169.5,275.8 176.5,276.1 				"/>
				<polyline class="st4" points="181.9,268.7 182.2,275.8 185.2,275.9 				"/>
				<polyline class="st4" points="194.6,268.7 194.9,275.7 196.3,275.8 				"/>
				<polyline class="st4" points="220.2,271.5 220.4,275.7 223.8,275.8 				"/>
				<line class="st4" x1="235" y1="275.7" x2="240.1" y2="275.9"/>
				<line class="st4" x1="232.8" y1="268.6" x2="232.9" y2="270.8"/>
				<polyline class="st4" points="245.5,268.6 245.8,275.6 252.8,275.8 				"/>
				<polyline class="st4" points="258.2,268.5 258.5,275.6 265.5,275.8 				"/>
				<polyline class="st4" points="270.9,268.5 271.2,275.5 278.2,275.8 				"/>
				<polyline class="st4" points="283.6,268.5 283.9,275.5 291,275.7 				"/>
				<polyline class="st4" points="296.3,268.4 296.6,275.5 303.7,275.7 				"/>
				<polyline class="st4" points="309.1,268.4 309.4,275.4 316.4,275.7 				"/>
			</g>
			<g>
				<polyline class="st4" points="143.8,281.8 144.1,288.9 151.1,289.1 				"/>
				<polyline class="st4" points="156.5,281.8 156.8,288.8 163.8,289.1 				"/>
				<polyline class="st4" points="169.2,281.8 169.5,288.8 176.6,289 				"/>
				<polyline class="st4" points="232.8,281.6 233.1,288.6 240.1,288.9 				"/>
				<polyline class="st4" points="245.5,281.5 245.8,288.6 252.8,288.8 				"/>
				<polyline class="st4" points="258.2,281.5 258.5,288.5 265.6,288.8 				"/>
				<polyline class="st4" points="271,281.5 271.2,288.5 278.3,288.8 				"/>
				<polyline class="st4" points="283.7,281.4 284,288.5 291,288.7 				"/>
				<polyline class="st4" points="296.4,281.4 296.7,288.4 303.7,288.7 				"/>
				<polyline class="st4" points="309.1,281.4 309.4,288.4 316.4,288.7 				"/>
			</g>
			<g>
				<polyline class="st4" points="143.8,295.6 144.1,302.7 151.2,302.9 				"/>
				<polyline class="st4" points="156.6,295.6 156.9,302.6 163.9,302.9 				"/>
				<polyline class="st4" points="169.3,295.6 169.6,302.6 176.6,302.8 				"/>
				<line class="st4" x1="221" y1="302.5" x2="227.5" y2="302.7"/>
				<line class="st4" x1="232.8" y1="295.4" x2="233" y2="300"/>
				<polyline class="st4" points="245.6,295.3 245.9,302.4 252.9,302.6 				"/>
				<polyline class="st4" points="258.3,295.3 258.6,302.3 265.6,302.6 				"/>
				<polyline class="st4" points="271,295.3 271.3,302.3 278.3,302.6 				"/>
				<polyline class="st4" points="283.7,295.2 284,302.3 291,302.5 				"/>
				<polyline class="st4" points="296.4,295.2 296.7,302.2 303.7,302.5 				"/>
				<polyline class="st4" points="309.1,295.2 309.4,302.2 316.5,302.5 				"/>
			</g>
			<g>
				<polyline class="st4" points="143.9,310.2 144.2,317.3 151.2,317.5 				"/>
				<polyline class="st4" points="156.6,310.2 156.9,317.2 163.9,317.5 				"/>
				<polyline class="st4" points="169.3,310.2 169.6,317.2 173.5,317.3 				"/>
				<polyline class="st4" points="233.1,316.2 233.2,317 240.2,317.3 				"/>
				<line class="st4" x1="245.6" y1="310" x2="245.8" y2="315.7"/>
				<line class="st4" x1="258.3" y1="309.9" x2="258.5" y2="314.8"/>
				<line class="st4" x1="297.3" y1="316.9" x2="303.8" y2="317.1"/>
				<line class="st4" x1="296.5" y1="309.8" x2="296.7" y2="315.5"/>
				<polyline class="st4" points="309.2,309.8 309.5,316.8 316.5,317.1 				"/>
			</g>
			<polygon class="st5" points="126.7,238.3 116.6,124.7 118.8,119.9 344.7,120.1 346.5,124.6 332.2,238.3 			"/>
			<line class="st5" x1="333.1" y1="356" x2="332.8" y2="237.8"/>
			<line class="st5" x1="199.6" y1="378.8" x2="285.2" y2="378.6"/>
			<polyline class="st5" points="126.7,238.3 127,379 134.9,379 			"/>
			<line class="st6" x1="120.9" y1="124.7" x2="339.5" y2="124.1"/>
			<polygon class="st6" points="126,132.1 337.2,131.5 325,230.2 133.5,230.7 			"/>
			<g>
				<polygon class="st7" points="195.5,156.8 279.7,156.6 275.4,209.6 197.8,209.8 				"/>
				<polyline class="st7" points="200.8,167.1 238.2,190.9 274.2,166.7 				"/>
			</g>
			<line class="st6" x1="240.5" y1="135.2" x2="328.6" y2="173.9"/>
			<g>
				<path class="st6" d="M143.9,149.7c0,0,13-7.6,29.4-5.5c12.1,1.6,21.3,7.5,21.3,7.5"/>
				<path class="st6" d="M145.4,157.1c0,0,13.2-4.6,23.1-2.2c10.3,2.5,15.5,7.2,15.5,7.2"/>
				<path class="st6" d="M145.9,164.1c0,0,10.1-2,17,1.9"/>
			</g>
			<line class="st6" x1="202.6" y1="371.7" x2="269.1" y2="371.6"/>
		</g>
		<g>
			<path class="st5" d="M166.9,342.8c0,0,3.3-4.4,4.6-8.6c1.3-4.1,3.3-9.1,3.6-13.2c0.4-4,5.1-28.1,6.4-33.6
				c1.3-5.5,5.7-16.8,7.3-18.4c3.1-3.1,5.3,0.2,4.2,5.3c-1.1,5.1-3.8,18.9-3.6,23.1c0,0,0.7-0.4,0.7-1.1s4-11.8,4.9-16.2
				c0.9-4.4,7.5-17.1,12.4-19.1c5-2,0.9,8.4-1.2,13.8c-2.2,5.3-3.3,11.8-4,14.2c-0.7,2.4-2.5,7.9-2.5,7.9s8.9-24.1,10.4-26.5
				c1.5-2.4,7.5-9.6,11-10.3c3.5-0.7,2.2,5,0.9,7.2c-1.3,2.2-4.8,8.3-5.8,11c-1.1,2.8-2.5,8.3-3.5,11.2c-0.9,2.9-2.2,10.8-2.2,10.8
				s6.6-16.2,8.4-18.8s9-8.8,13-10.9c4-2,4.6,4.4,0.9,7.2c0,0-5.7,5.5-8.2,11.4c-2.6,5.9-3.6,14.2-4.7,18.2c-1.1,4-1.3,7.3-1.3,7.3
				c1.6,1.5,6-5.2,9-8.7c3-3.4,6.8-5.9,9.7-6.8c2.9-0.9,8.3-1.1,7.9,2.2s-2.9,3.1-4.8,5.3c-1.8,2.2-6,5.9-10.1,13.6
				c-4,7.7-6.5,13.2-11,17.1c-6.7,6-13.1,10-15.7,13.3c-2.6,3.3-4.7,7.9-4.7,7.9"/>
			<path class="st5" d="M156.2,351l3.1-6.9c0,0,12.5-2.5,21.8,1.3c9.3,3.8,18.8,14.8,20.6,16.6l-3.4,5.8"/>
			<path class="st5" d="M157.6,483.7c0.3-5,5.3-20.5,12.5-40.4c7.2-19.9,30.6-70.9,30.6-70.9s-5.7-12.8-22.5-19.2
				c-13.8-5.2-27.4-1.1-27.4-1.1s-29.3,55.3-36.8,76.8c-8.1,23.3-8.9,33.1-10.5,41.2"/>
		</g>
		<g>
			<path class="st5" d="M301.8,381.5c-3.7-1.2-13.6-2.1-19.1-4c-3.3-1.2-8.2-4.9-11.8-7.1c-3.5-2.2-9.1-5.9-11.1-6.3
				c-2-0.5-8.7-1.5-8-4.7c0.6-2.9,3.2-3.1,7.6-3.3c4.4-0.2,10.4,2.8,13.6,4.3c3.2,1.4,6.5,2,6.5,2s-17.8-14.1-20.8-15.6
				c-3-1.5-10.4-3.7-13.3-3.5c-7.3,0.4-11.4-1.6-11.3-3.6c0.1-1.9,3.6-4.6,10.7-4.9c5.6-0.2,7.6,0,12.2,1.4
				c2.9,0.9,18.1,7.3,18.1,7.3s-13.4-9.9-17.9-11.7c-2.4-1-11-0.8-14.2-0.9c-5.3-0.2-7.5-1.9-7-3.9c0.9-3.3,8.8-3.6,12.7-3.9
				c3.9-0.4,8.5-0.8,12.5,0.6c4.3,1.5,17.9,8.3,17.9,8.3s-14.6-9.5-15.7-10.1c-0.8-0.5-17.2,2.1-18.8-0.7c-2.1-3.4,0.7-3.9,4.1-4.8
				c3.5-0.9,18.5-1.9,20.9-1c2.3,0.9,20.7,9.2,20.7,9.2s-7.7-7.2-9.7-8.8c-2-1.6-14.7,0.1-16.3-1c-1.7-1.2-2.5-1.8-1.1-3.4
				c2-2.5,16.3-3.4,20.2-2.1c3.9,1.3,11.6,5.9,14.6,9.5c2.9,3.6,8.1,10.3,13.8,17.7c4.9,6.4,10.3,16.1,15.8,20.3"/>
			<path class="st5" d="M336.1,360.5l-4.4-4.4c-7.6,0.3-13.5,2.8-19.6,9.3c-7.6,8.1-10.4,20.5-10.4,20.5l4,3.7"/>
			<path class="st5" d="M422.7,449.1c-7.3-10.9-21.9-29.3-31.7-38.3c-9.8-8.9-50.5-50.5-50.5-50.5c-9.8,2-17.3,3.8-23.4,11.4
				c-8.6,10.6-12.3,24-12.3,24s45.5,50.9,54.5,65.7c0,0,13.5,20.1,15.8,26.3"/>
		</g>
	</g>
</g>
<g>
	<ellipse class="st8" cx="351.1" cy="82.3" rx="144.5" ry="74.1"/>
	<g>
		<g>
			<path class="st9" d="M228.5,98.7c-0.6,0.3-1.1,0.2-1.5-0.4c-0.1-0.2-0.2-0.5-0.1-0.8c0.1-0.3,0.2-0.5,0.5-0.6
				c7-3.7,12.4-8.2,16.4-13.3c0.2-0.3,0.2-0.5-0.1-0.7c-4-3.3-7.8-6.2-11.3-8.7c-0.5-0.4-0.6-0.9-0.2-1.4c0.5-0.5,1-0.6,1.5-0.2
				c3.8,2.7,7.5,5.6,11.2,8.6c0.3,0.2,0.5,0.2,0.6-0.1c2.7-4.1,4.9-9,6.6-14.7c0.2-0.7,0.6-0.9,1.3-0.8c0.3,0.1,0.5,0.2,0.7,0.4
				c0.2,0.2,0.2,0.5,0.1,0.8c-1.7,6-4,11.2-7,15.6c-0.2,0.3-0.2,0.5,0,0.7c3.6,3,7.2,6.2,10.7,9.6c0.2,0.2,0.3,0.4,0.3,0.7
				c0,0.3-0.1,0.5-0.3,0.8c-0.5,0.5-1,0.5-1.5,0c-3.6-3.4-7.1-6.5-10.5-9.4c-0.2-0.2-0.5-0.2-0.7,0.1
				C241.3,90.4,235.7,94.9,228.5,98.7z"/>
			<path class="st9" d="M269.6,83.1c-0.3,0-0.5-0.1-0.7-0.3c-0.2-0.2-0.3-0.4-0.3-0.7c0-0.3,0.1-0.5,0.3-0.7
				c0.2-0.2,0.4-0.3,0.7-0.3h32.3c0.3,0,0.5,0.1,0.7,0.3c0.2,0.2,0.3,0.4,0.3,0.7c0,0.3-0.1,0.5-0.3,0.7c-0.2,0.2-0.4,0.3-0.7,0.3
				H269.6z"/>
			<path class="st9" d="M312.3,98.1c-0.3,0.1-0.5,0.2-0.8,0.1c-0.3-0.1-0.5-0.3-0.7-0.5c-0.1-0.2-0.2-0.5-0.1-0.7
				c0.1-0.3,0.3-0.5,0.5-0.6c2-1,3.5-2.3,4.5-3.7s1.7-3.6,2.2-6.3c0.5-2.8,0.7-6.6,0.7-11.6v-7.2c0-0.3,0.1-0.6,0.3-0.8
				c0.2-0.2,0.5-0.3,0.7-0.3c0.3,0,0.5,0.1,0.7,0.3c0.2,0.2,0.3,0.5,0.3,0.8v7.2c0,5.2-0.3,9.3-0.9,12.4c-0.6,3-1.4,5.3-2.6,6.9
				C316.2,95.5,314.5,96.9,312.3,98.1z M333.1,98.2c-1,0.2-1.8-0.1-2.5-0.8c-0.7-0.7-1.1-1.6-1.1-2.6V67.5c0-0.3,0.1-0.6,0.3-0.8
				c0.2-0.2,0.5-0.3,0.8-0.3c0.3,0,0.6,0.1,0.8,0.3c0.2,0.2,0.3,0.5,0.3,0.8v28.4c0,0.1,0.1,0.2,0.2,0.3c0.1,0.1,0.2,0.1,0.3,0.1
				c3.6-0.5,6.6-2.1,9-4.9c2.4-2.8,3.9-6.4,4.4-10.7c0.1-0.3,0.2-0.5,0.4-0.7c0.2-0.2,0.4-0.2,0.7-0.2c0.3,0.1,0.5,0.2,0.7,0.4
				s0.2,0.5,0.2,0.7c-0.6,4.6-2.1,8.5-4.7,11.6C340.2,95.6,337,97.5,333.1,98.2z"/>
			<path class="st9" d="M353.9,70.1c-0.3,0-0.5-0.1-0.7-0.3c-0.2-0.2-0.3-0.4-0.3-0.7c0-0.3,0.1-0.5,0.3-0.7
				c0.2-0.2,0.4-0.3,0.7-0.3c9.7,0,20.4-0.3,32.4-0.9c0.3,0,0.5,0.1,0.7,0.3c0.2,0.2,0.3,0.4,0.3,0.7s0,0.5-0.2,0.7
				c-0.2,0.2-0.4,0.3-0.6,0.3c-7,0.7-12.4,2.5-16.3,5.5c-3.9,3-5.9,6.7-5.9,11.1c0,3.6,1.2,6.4,3.5,8.5c2.3,2.1,5.4,3.1,9.4,3.1
				c1.6,0,3.1-0.1,4.5-0.3c0.3,0,0.5,0,0.7,0.2c0.2,0.2,0.3,0.4,0.4,0.6c0,0.3,0,0.5-0.2,0.7c-0.2,0.2-0.4,0.3-0.7,0.4
				c-1.4,0.2-3,0.3-4.8,0.3c-4.6,0-8.2-1.2-10.9-3.6c-2.7-2.4-4-5.7-4-9.8c0-3.8,1.3-7.1,3.8-10c2.5-2.9,6.1-5,10.7-6.4
				c0,0,0,0,0-0.1c0,0,0,0,0,0C367,69.9,359.5,70.1,353.9,70.1z M379.6,75.9c0.5-0.3,1-0.2,1.3,0.4c0.9,1.5,2,3.3,3.2,5.5
				c0.3,0.5,0.1,0.9-0.4,1.1c-0.5,0.3-1,0.1-1.2-0.4c-1-1.9-2.1-3.6-3.2-5.3C379,76.6,379.1,76.2,379.6,75.9z M385.2,74.2
				c0.6-0.3,1-0.2,1.4,0.3c1.1,1.8,2.2,3.7,3.3,5.6c0.1,0.2,0.2,0.5,0.1,0.7c-0.1,0.2-0.2,0.4-0.5,0.5c-0.2,0.1-0.5,0.1-0.7,0
				c-0.3-0.1-0.5-0.2-0.6-0.5c-1.3-2.2-2.4-4.1-3.2-5.5C384.6,74.9,384.7,74.5,385.2,74.2z"/>
			<path class="st9" d="M395.5,81.1c-0.3,0-0.5-0.1-0.6-0.3c-0.2-0.2-0.3-0.4-0.3-0.7s0.1-0.5,0.3-0.7c0.2-0.2,0.4-0.3,0.6-0.3h3.8
				c1,0,1.8,0.4,2.6,1.1c0.7,0.7,1.1,1.6,1.1,2.6v9c0,0.4,0.1,0.7,0.2,0.9c1.2,2,2.9,3.4,5,4.1s5.5,1.1,10.3,1.1h12.7
				c0.3,0,0.5,0.1,0.6,0.3c0.2,0.2,0.3,0.4,0.3,0.7s-0.1,0.5-0.3,0.7c-0.2,0.2-0.4,0.3-0.7,0.3h-12.7c-4.6,0-8.1-0.4-10.5-1.1
				c-2.4-0.7-4.2-2-5.5-3.9c-0.2-0.2-0.3-0.2-0.5,0c-1.5,1.8-3.4,3.6-5.7,5.2c-0.2,0.1-0.4,0.2-0.7,0.1c-0.3-0.1-0.5-0.2-0.6-0.4
				c-0.3-0.5-0.2-1,0.3-1.4c2.3-1.6,4.1-3.3,5.5-5c0.2-0.2,0.3-0.5,0.3-0.9V81.6c0-0.3-0.2-0.5-0.5-0.5H395.5z M396.2,65.1
				c0.2-0.2,0.4-0.3,0.7-0.3c0.3,0,0.5,0.1,0.7,0.3c1.8,1.9,3.7,3.9,5.7,6c0.4,0.5,0.4,0.9-0.1,1.3s-0.9,0.4-1.3,0
				c-2.3-2.6-4.2-4.6-5.7-6C395.7,66,395.7,65.6,396.2,65.1z M430.7,65.2c0,0.6-0.2,1.1-0.7,1.4c-1.9,1.3-4.6,2.8-7.9,4.3
				c-0.1,0-0.1,0.1-0.1,0.2c0,0,0,0,0.1,0h5c1,0,1.8,0.4,2.6,1.1c0.7,0.7,1.1,1.6,1.1,2.6v15.8c0,1.8-0.2,2.9-0.6,3.3
				c-0.4,0.4-1.4,0.7-2.9,0.7c-0.8,0-2,0-3.6-0.1c-0.6-0.1-0.9-0.4-0.9-0.9c0-0.2,0.1-0.4,0.3-0.6s0.4-0.2,0.6-0.2
				c1.3,0.1,2.5,0.1,3.4,0.1c0.8,0,1.3-0.1,1.4-0.3c0.2-0.2,0.3-0.9,0.3-2v-3.7c0-0.1-0.1-0.2-0.2-0.3c-0.1-0.1-0.2-0.2-0.3-0.2h-8
				c-0.3,0-0.5,0.2-0.5,0.5v6.5c0,0.3-0.1,0.5-0.3,0.7c-0.2,0.2-0.4,0.3-0.7,0.3c-0.3,0-0.5-0.1-0.7-0.3c-0.2-0.2-0.3-0.4-0.3-0.7
				v-6.5c0-0.1,0-0.2-0.1-0.3c-0.1-0.1-0.2-0.2-0.4-0.2h-7.9c-0.1,0-0.2,0.1-0.3,0.2c-0.1,0.1-0.2,0.2-0.2,0.3v6.9
				c0,0.3-0.1,0.5-0.3,0.7c-0.2,0.2-0.4,0.3-0.7,0.3c-0.3,0-0.5-0.1-0.7-0.3c-0.2-0.2-0.3-0.4-0.3-0.7v-19c0-1,0.4-1.8,1.1-2.6
				c0.7-0.7,1.6-1.1,2.6-1.1h4.9c0.1,0,0.1,0,0.1-0.1c0-0.1,0-0.1-0.1-0.1c-0.9-0.6-2.3-1.4-4.2-2.4c-0.2-0.1-0.3-0.3-0.3-0.5
				c0-0.2,0-0.4,0.2-0.6c0.4-0.4,0.8-0.5,1.4-0.2c1.8,1,3.7,2.1,5.7,3.3c0.3,0.2,0.6,0.2,0.9,0.1c2.8-1.2,5.5-2.6,8-4.2
				c0.1-0.1,0.1-0.2,0-0.3h-20c-0.3,0-0.5-0.1-0.6-0.3c-0.2-0.2-0.3-0.4-0.3-0.6c0-0.3,0.1-0.5,0.3-0.6c0.2-0.2,0.4-0.3,0.6-0.3
				h22.8c0.3,0,0.5,0.1,0.6,0.3C430.6,64.8,430.7,65,430.7,65.2z M417.8,77.3v-4c0-0.1,0-0.3-0.1-0.4c-0.1-0.1-0.2-0.1-0.4-0.1h-7.9
				c-0.1,0-0.2,0.1-0.3,0.1c-0.1,0.1-0.2,0.2-0.2,0.4v4c0,0.1,0.1,0.2,0.2,0.3c0.1,0.1,0.2,0.2,0.3,0.2h7.9c0.1,0,0.3-0.1,0.4-0.2
				C417.7,77.5,417.8,77.4,417.8,77.3z M417.8,84.3V80c0-0.3-0.2-0.5-0.5-0.5h-7.9c-0.3,0-0.5,0.2-0.5,0.5v4.3
				c0,0.3,0.2,0.5,0.5,0.5h7.9C417.6,84.8,417.8,84.6,417.8,84.3z M428.2,72.8h-8c-0.3,0-0.5,0.2-0.5,0.5v4c0,0.3,0.2,0.5,0.5,0.5h8
				c0.1,0,0.2-0.1,0.3-0.2c0.1-0.1,0.2-0.2,0.2-0.3v-4c0-0.1-0.1-0.3-0.2-0.4C428.4,72.9,428.3,72.8,428.2,72.8z M428.7,84.3V80
				c0-0.3-0.2-0.5-0.5-0.5h-8c-0.3,0-0.5,0.2-0.5,0.5v4.3c0,0.3,0.2,0.5,0.5,0.5h8C428.5,84.8,428.7,84.6,428.7,84.3z"/>
			<path class="st9" d="M438.2,80.6c-0.3,0-0.5-0.1-0.7-0.3c-0.2-0.2-0.3-0.4-0.3-0.7c0-0.3,0.1-0.5,0.3-0.7
				c0.2-0.2,0.4-0.3,0.7-0.3h7.9c0.3,0,0.5-0.2,0.5-0.5v-9.1c0-0.3-0.2-0.5-0.5-0.5h-3.3c-0.3,0-0.5,0.2-0.6,0.5
				c-0.8,2.6-1.8,5-2.9,7.2c-0.3,0.5-0.8,0.7-1.3,0.4c-0.5-0.3-0.7-0.7-0.4-1.2c1.8-3.7,3.3-7.8,4.3-12.4c0.1-0.6,0.5-0.9,1.1-0.8
				c0.3,0,0.5,0.2,0.6,0.4c0.1,0.2,0.2,0.5,0.1,0.7c-0.3,1.2-0.5,2.1-0.7,2.9c-0.1,0.3,0.1,0.5,0.4,0.5h11.7c0.3,0,0.5,0.1,0.7,0.3
				c0.2,0.2,0.3,0.4,0.3,0.6c0,0.3-0.1,0.5-0.3,0.7c-0.2,0.2-0.4,0.3-0.7,0.3h-6c-0.3,0-0.5,0.2-0.5,0.5v9.1c0,0.3,0.2,0.5,0.5,0.5
				h6.7c0.3,0,0.5,0.1,0.7,0.3c0.2,0.2,0.3,0.4,0.3,0.7c0,0.3-0.1,0.5-0.3,0.7c-0.2,0.2-0.4,0.3-0.7,0.3h-6.8
				c-0.3,0-0.5,0.2-0.5,0.5c0,0.1-0.1,0.4-0.1,0.6c0,0.3-0.1,0.5-0.1,0.6c0,0.3,0,0.6,0.2,0.9c2.7,4.1,5.2,8.1,7.6,12.1
				c0.3,0.6,0.2,1.1-0.3,1.4c-0.2,0.1-0.5,0.2-0.7,0.1c-0.3-0.1-0.5-0.2-0.6-0.4c-1.8-3.1-3.9-6.6-6.5-10.6
				c-0.1-0.1-0.1-0.1-0.2-0.1c-0.1,0-0.1,0.1-0.2,0.2c-0.8,2.8-1.9,5.4-3.3,7.7c-1.4,2.3-3.1,4.2-5.1,5.6c-0.5,0.4-1,0.3-1.4-0.3
				c-0.4-0.5-0.3-1,0.2-1.4c2.4-1.8,4.3-4.1,5.7-7c1.5-2.9,2.4-6.1,2.7-9.5c0.1-0.3-0.1-0.4-0.4-0.4H438.2z M460,99.7
				c-0.2,0.2-0.4,0.3-0.7,0.3c-0.3,0-0.5-0.1-0.7-0.3c-0.2-0.2-0.3-0.4-0.3-0.7V69.4c0-1,0.4-1.8,1.1-2.6c0.7-0.7,1.6-1.1,2.6-1.1
				h8.8c1,0,1.8,0.4,2.6,1.1c0.7,0.7,1.1,1.6,1.1,2.6v29.5c0,0.3-0.1,0.5-0.3,0.7c-0.2,0.2-0.4,0.3-0.7,0.3c-0.3,0-0.5-0.1-0.7-0.3
				c-0.2-0.2-0.3-0.4-0.3-0.7v-1.5c0-0.2-0.1-0.3-0.3-0.3h-11.4c-0.2,0-0.3,0.1-0.3,0.3v1.5C460.3,99.2,460.2,99.5,460,99.7z
				 M460.3,68.2v26.6c0,0.3,0.2,0.5,0.5,0.5h11.1c0.3,0,0.5-0.2,0.5-0.5V68.2c0-0.1-0.1-0.2-0.2-0.3c-0.1-0.1-0.2-0.2-0.3-0.2h-11.1
				C460.4,67.7,460.3,67.9,460.3,68.2z"/>
		</g>
	</g>
	<path class="st8" d="M302.2,130c-11.3,15.1-30.3,64.3-30.3,64.3l56.7-41.6"/>
</g>
</svg>
