<?xml version="1.0" encoding="utf-8"?>
<!-- Generator: Adobe Illustrator 23.1.1, SVG Export Plug-In . SVG Version: 6.00 Build 0)  -->
<svg version="1.1" id="レイヤー_1" xmlns="http://www.w3.org/2000/svg" xmlns:xlink="http://www.w3.org/1999/xlink" x="0px"
	 y="0px" width="500px" height="500px" viewBox="0 0 500 500" style="enable-background:new 0 0 500 500;" xml:space="preserve">
<style type="text/css">
	.st0{fill:#FFFFFF;}
	.st1{fill:#354471;}
	.st2{fill:#F6ED68;}
	.st3{fill:#A3B0C8;}
	.st4{fill:#555258;}
	.st5{fill:#E8E9C1;}
	.st6{fill:#ADB9B0;}
	.st7{fill:none;stroke:#354471;stroke-width:3.2289;stroke-linecap:round;stroke-linejoin:round;stroke-miterlimit:10;}
	.st8{fill:#EBCBCB;}
	.st9{fill:none;stroke:#354471;stroke-width:2.4217;stroke-linecap:round;stroke-linejoin:round;stroke-miterlimit:10;}
	.st10{fill:none;stroke:#354471;stroke-width:2.0988;stroke-linecap:round;stroke-linejoin:round;stroke-miterlimit:10;}
	.st11{fill:none;stroke:#354471;stroke-width:3.053;stroke-linecap:round;stroke-linejoin:round;stroke-miterlimit:10;}
	.st12{fill:none;stroke:#354471;stroke-width:2.906;stroke-linecap:round;stroke-linejoin:round;stroke-miterlimit:10;}
	.st13{fill:none;stroke:#354471;stroke-width:1.6144;stroke-linecap:round;stroke-linejoin:round;stroke-miterlimit:10;}
</style>
<g>
	<circle class="st0" cx="250" cy="250" r="245"/>
</g>
<g>
	<path class="st1" d="M45.3,50.8c-3.1,3.3-7.2,4.9-12.3,4.9c-5.1,0-9.2-1.6-12.3-4.9c-3.1-3.3-4.7-7.6-4.7-13.1
		c0-5.4,1.6-9.8,4.7-13.1c3.1-3.3,7.2-4.9,12.3-4.9c5.1,0,9.2,1.6,12.3,4.9c3.1,3.3,4.7,7.6,4.7,13.1C49.9,43.2,48.4,47.5,45.3,50.8
		z M43.5,26.2c-2.7-2.9-6.2-4.4-10.5-4.4c-4.4,0-7.9,1.5-10.5,4.4c-2.7,2.9-4,6.8-4,11.6s1.3,8.7,4,11.6c2.7,2.9,6.2,4.4,10.5,4.4
		c4.4,0,7.9-1.5,10.5-4.4c2.7-2.9,4-6.8,4-11.6S46.2,29.1,43.5,26.2z"/>
	<path class="st1" d="M57.6,55c-0.2,0.2-0.5,0.3-0.8,0.3c-0.3,0-0.6-0.1-0.8-0.3c-0.2-0.2-0.3-0.5-0.3-0.8V31.4
		c0-0.3,0.1-0.5,0.3-0.7c0.2-0.2,0.5-0.3,0.7-0.3c0.3,0,0.5,0.1,0.8,0.3c0.2,0.2,0.3,0.5,0.3,0.7l0,4.2c0,0,0,0,0,0
		c0.1,0,0.1,0,0.1,0c0.9-1.7,2.1-3.1,3.6-4.2c1.5-1,3.2-1.6,5-1.6c2.9,0,5.1,0.8,6.4,2.5c1.4,1.7,2.1,4.4,2.1,8.2v13.6
		c0,0.3-0.1,0.6-0.3,0.8c-0.2,0.2-0.5,0.3-0.8,0.3s-0.6-0.1-0.8-0.3c-0.2-0.2-0.3-0.5-0.3-0.8V40.7c0-3.3-0.5-5.6-1.6-6.9
		c-1-1.3-2.8-2-5.3-2c-2.1,0-4,1-5.7,3c-1.7,2-2.5,4.4-2.5,7.2v12.2C58,54.5,57.9,54.8,57.6,55z"/>
	<path class="st1" d="M92.6,55.8c-3.6,0-6.4-1.2-8.6-3.5c-2.1-2.3-3.2-5.5-3.2-9.5c0-4,1-7.2,3-9.5c2-2.3,4.8-3.5,8.3-3.5
		c2.9,0,5.2,0.8,7,2.5c1.8,1.7,2.9,4,3.3,7.2c0.2,1.1-0.2,2.1-0.9,2.9c-0.8,0.8-1.8,1.2-3,1.2H83.7c-0.4,0-0.5,0.2-0.5,0.5
		c0.1,3,1.1,5.4,2.8,7.2s4,2.6,6.9,2.6c2.3,0,4.6-0.5,6.7-1.6c0.2-0.1,0.5-0.1,0.7,0c0.2,0.1,0.4,0.3,0.5,0.5c0.2,0.6,0,1.1-0.5,1.3
		C97.8,55.2,95.3,55.8,92.6,55.8z M92.1,31.7c-2.7,0-4.8,0.8-6.3,2.4c-1.6,1.6-2.4,4-2.6,7c0,0.4,0.2,0.6,0.5,0.6h16.2
		c0.4,0,0.5-0.2,0.5-0.5c-0.2-3-0.9-5.4-2.4-7C96.6,32.5,94.6,31.7,92.1,31.7z"/>
	<path class="st1" d="M109.7,42.4c-0.3,0-0.5-0.1-0.7-0.3c-0.2-0.2-0.3-0.4-0.3-0.7s0.1-0.5,0.3-0.7s0.4-0.3,0.7-0.3h11.6
		c0.3,0,0.5,0.1,0.7,0.3s0.3,0.4,0.3,0.7s-0.1,0.5-0.3,0.7c-0.2,0.2-0.4,0.3-0.7,0.3H109.7z"/>
	<path class="st1" d="M129.8,33.2c-0.3,0-0.5-0.1-0.7-0.3c-0.2-0.2-0.3-0.4-0.3-0.7c0-0.3,0.1-0.5,0.3-0.7s0.4-0.3,0.7-0.3h4.3
		c0.4,0,0.5-0.2,0.5-0.5v-7.4c0-0.3,0.1-0.6,0.3-0.8c0.2-0.2,0.5-0.3,0.8-0.3c0.3,0,0.6,0.1,0.8,0.3c0.2,0.2,0.3,0.5,0.3,0.8v7.4
		c0,0.4,0.2,0.5,0.6,0.5h8.4c0.3,0,0.5,0.1,0.7,0.3c0.2,0.2,0.3,0.4,0.3,0.7c0,0.3-0.1,0.5-0.3,0.7c-0.2,0.2-0.4,0.3-0.7,0.3h-8.4
		c-0.4,0-0.6,0.2-0.6,0.5v14.2c0,2.4,0.4,4,1.1,4.8c0.7,0.8,2,1.2,3.9,1.2c1.1,0,2.2-0.1,3.2-0.4c0.3-0.1,0.5,0,0.7,0.1
		c0.2,0.1,0.4,0.3,0.4,0.6c0.2,0.6-0.1,1-0.7,1.2c-1.2,0.4-2.5,0.5-3.8,0.5c-2.6,0-4.4-0.6-5.4-1.7c-1-1.1-1.5-3.1-1.5-5.9V33.7
		c0-0.4-0.2-0.5-0.5-0.5H129.8z"/>
	<path class="st1" d="M158.4,24.2c-0.2,0.2-0.5,0.3-0.8,0.3c-0.3,0-0.6-0.1-0.8-0.3c-0.2-0.2-0.3-0.5-0.3-0.8v-3
		c0-0.3,0.1-0.6,0.3-0.8c0.2-0.2,0.5-0.3,0.8-0.3c0.3,0,0.6,0.1,0.8,0.3c0.2,0.2,0.3,0.5,0.3,0.8v3C158.7,23.7,158.6,24,158.4,24.2z
		 M158.4,54.9c-0.2,0.2-0.5,0.3-0.8,0.3c-0.3,0-0.6-0.1-0.8-0.3c-0.2-0.2-0.3-0.5-0.3-0.8V31.5c0-0.3,0.1-0.6,0.3-0.8
		c0.2-0.2,0.5-0.3,0.8-0.3c0.3,0,0.6,0.1,0.8,0.3c0.2,0.2,0.3,0.5,0.3,0.8v22.7C158.7,54.4,158.6,54.7,158.4,54.9z"/>
	<path class="st1" d="M170.3,55c-0.2,0.2-0.5,0.3-0.8,0.3c-0.3,0-0.6-0.1-0.8-0.3c-0.2-0.2-0.3-0.5-0.3-0.8V31.4
		c0-0.3,0.1-0.5,0.3-0.7c0.2-0.2,0.5-0.3,0.7-0.3c0.3,0,0.5,0.1,0.8,0.3c0.2,0.2,0.3,0.5,0.3,0.7l0,3.7c0,0,0,0,0,0c0,0,0,0,0,0
		c0.8-1.7,1.7-3,2.9-3.9c1.2-0.9,2.5-1.4,3.9-1.4c3.4,0,5.7,1.7,6.7,5.2c0,0,0,0,0.1,0c0.1,0,0.1,0,0.1,0c0.7-1.6,1.7-2.9,3-3.8
		c1.3-0.9,2.7-1.4,4.4-1.4c2.5,0,4.3,0.8,5.5,2.3c1.2,1.5,1.8,4,1.8,7.3v14.7c0,0.3-0.1,0.6-0.3,0.8c-0.2,0.2-0.5,0.3-0.8,0.3
		c-0.3,0-0.6-0.1-0.8-0.3c-0.2-0.2-0.3-0.5-0.3-0.8V39.9c0-3-0.4-5.1-1.3-6.3c-0.9-1.2-2.3-1.8-4.3-1.8c-1.8,0-3.3,0.8-4.6,2.5
		c-1.3,1.6-1.9,3.7-1.9,6.2v13.8c0,0.3-0.1,0.6-0.3,0.8c-0.2,0.2-0.5,0.3-0.8,0.3c-0.3,0-0.6-0.1-0.8-0.3c-0.2-0.2-0.3-0.5-0.3-0.8
		V39.9c0-3-0.4-5.1-1.3-6.3c-0.8-1.2-2.3-1.8-4.2-1.8c-1.6,0-3.1,1-4.4,2.9c-1.4,1.9-2,4.3-2,7v12.5C170.6,54.5,170.5,54.8,170.3,55
		z"/>
	<path class="st1" d="M216.4,55.8c-3.6,0-6.4-1.2-8.6-3.5c-2.1-2.3-3.2-5.5-3.2-9.5c0-4,1-7.2,3-9.5c2-2.3,4.8-3.5,8.3-3.5
		c2.9,0,5.2,0.8,7,2.5c1.8,1.7,2.9,4,3.3,7.2c0.2,1.1-0.2,2.1-0.9,2.9c-0.8,0.8-1.8,1.2-3,1.2h-14.8c-0.4,0-0.5,0.2-0.5,0.5
		c0.1,3,1.1,5.4,2.8,7.2s4,2.6,6.9,2.6c2.3,0,4.6-0.5,6.7-1.6c0.2-0.1,0.5-0.1,0.7,0c0.2,0.1,0.4,0.3,0.5,0.5c0.2,0.6,0,1.1-0.5,1.3
		C221.6,55.2,219.1,55.8,216.4,55.8z M215.9,31.7c-2.7,0-4.8,0.8-6.3,2.4c-1.6,1.6-2.4,4-2.6,7c0,0.4,0.2,0.6,0.5,0.6h16.2
		c0.4,0,0.5-0.2,0.5-0.5c-0.2-3-0.9-5.4-2.4-7C220.4,32.5,218.5,31.7,215.9,31.7z"/>
	<path class="st1" d="M20.3,102.9c-0.2,0.2-0.5,0.3-0.9,0.3c-0.4,0-0.6-0.1-0.9-0.3c-0.2-0.2-0.3-0.5-0.3-0.9V72.6
		c0-1.2,0.4-2.2,1.2-3.1c0.8-0.9,1.7-1.4,2.9-1.5c1.8-0.2,3.5-0.2,4.9-0.2c4.3,0,7.5,0.9,9.7,2.7c2.2,1.8,3.4,4.4,3.4,7.8
		c0,3.5-1.1,6.2-3.4,8.1c-2.3,1.9-5.5,2.9-9.7,2.9c-1.8,0-3.8-0.1-6-0.3c-0.1,0-0.3,0-0.4,0.1c-0.1,0.1-0.2,0.2-0.2,0.4v12.7
		C20.7,102.4,20.5,102.7,20.3,102.9z M20.7,70.9v15.4c0,0.3,0.2,0.5,0.6,0.6c2,0.3,3.9,0.4,5.8,0.4c3.5,0,6.2-0.8,8.1-2.3
		c1.9-1.5,2.8-3.7,2.8-6.5s-0.9-5-2.8-6.4c-1.9-1.5-4.6-2.2-8.2-2.2c-2,0-4,0.1-5.8,0.4C20.9,70.3,20.7,70.5,20.7,70.9z"/>
	<path class="st1" d="M52.5,103.8c-2.4,0-4.3-0.6-5.7-1.9s-2.1-3-2.1-5.3c0-2.8,1.2-5,3.7-6.6s6-2.4,10.6-2.4h2.2
		c0.4,0,0.5-0.2,0.5-0.5c0-2.8-0.6-4.7-1.6-5.7c-1-1.1-2.8-1.6-5.4-1.6c-2.7,0-5.2,0.6-7.5,1.8c-0.2,0.1-0.4,0.1-0.7,0
		c-0.2-0.1-0.4-0.3-0.4-0.5c-0.2-0.6,0-1.1,0.6-1.3c2.6-1.2,5.2-1.9,8.1-1.9c3.3,0,5.7,0.7,7.1,2.1c1.4,1.4,2.1,3.9,2.1,7.3v9.3
		c0,1.8,0.2,3.7,0.5,5.7c0.1,0.3,0,0.5-0.2,0.7c-0.2,0.2-0.4,0.3-0.7,0.3c-0.7,0-1.2-0.4-1.2-1.1c-0.2-1.4-0.4-2.7-0.4-3.8
		c0,0,0,0,0,0c-0.1,0-0.1,0-0.1,0c-0.9,1.7-2.1,3-3.7,3.9S54.6,103.8,52.5,103.8z M59.1,89.4c-3.9,0-6.9,0.6-9,1.9
		c-2.1,1.2-3.2,3-3.2,5.2c0,1.7,0.5,3,1.6,4c1.1,1,2.5,1.5,4.3,1.5c2.4,0,4.5-0.9,6.2-2.7c1.8-1.8,2.6-4,2.6-6.6v-2.7
		c0-0.4-0.2-0.5-0.5-0.5H59.1z"/>
	<path class="st1" d="M79.2,91.4c-3.1-0.5-5.3-1.4-6.6-2.5c-1.3-1.1-2-2.7-2-4.6c0-2,0.8-3.5,2.4-4.7c1.6-1.2,3.7-1.8,6.4-1.8
		c2.7,0,5.1,0.5,7.4,1.5c0.6,0.3,0.8,0.7,0.6,1.3c-0.2,0.6-0.6,0.8-1.2,0.5c-2.1-1-4.4-1.4-6.9-1.4c-2,0-3.7,0.4-4.8,1.2
		c-1.2,0.8-1.8,1.9-1.8,3.3c0,1.3,0.5,2.3,1.4,3.1c0.9,0.8,2.7,1.4,5.3,1.9c3.2,0.6,5.5,1.5,6.9,2.7c1.4,1.2,2.1,2.8,2.1,4.9
		c0,2.1-0.8,3.8-2.4,5c-1.6,1.2-3.8,1.8-6.7,1.8c-2.9,0-5.6-0.6-8-1.9c-0.6-0.3-0.8-0.8-0.5-1.4c0.1-0.2,0.3-0.4,0.5-0.5
		c0.2-0.1,0.5-0.1,0.7,0c2.2,1.2,4.7,1.8,7.3,1.8c2.1,0,3.8-0.4,5-1.3c1.2-0.9,1.8-2.1,1.8-3.6c0-1.5-0.5-2.6-1.6-3.5
		C83.5,92.6,81.7,91.9,79.2,91.4z"/>
	<path class="st1" d="M102.7,91.4c-3.1-0.5-5.3-1.4-6.6-2.5c-1.3-1.1-2-2.7-2-4.6c0-2,0.8-3.5,2.4-4.7c1.6-1.2,3.7-1.8,6.4-1.8
		c2.7,0,5.1,0.5,7.4,1.5c0.6,0.3,0.8,0.7,0.6,1.3c-0.2,0.6-0.6,0.8-1.2,0.5c-2.1-1-4.4-1.4-6.9-1.4c-2,0-3.7,0.4-4.8,1.2
		c-1.2,0.8-1.8,1.9-1.8,3.3c0,1.3,0.5,2.3,1.4,3.1c0.9,0.8,2.7,1.4,5.3,1.9c3.2,0.6,5.5,1.5,6.9,2.7c1.4,1.2,2.1,2.8,2.1,4.9
		c0,2.1-0.8,3.8-2.4,5c-1.6,1.2-3.8,1.8-6.7,1.8c-2.9,0-5.6-0.6-8-1.9c-0.6-0.3-0.8-0.8-0.5-1.4c0.1-0.2,0.3-0.4,0.5-0.5
		c0.2-0.1,0.5-0.1,0.7,0c2.2,1.2,4.7,1.8,7.3,1.8c2.1,0,3.8-0.4,5-1.3c1.2-0.9,1.8-2.1,1.8-3.6c0-1.5-0.5-2.6-1.6-3.5
		C107,92.6,105.2,91.9,102.7,91.4z"/>
	<path class="st1" d="M123.8,101.8l-6.7-22.3c-0.1-0.3,0-0.6,0.1-0.8c0.2-0.3,0.4-0.4,0.8-0.4c0.4,0,0.7,0.1,1,0.3
		c0.3,0.2,0.5,0.5,0.6,0.9l6.2,21.6c0,0,0,0,0,0c0,0,0,0,0,0l5.9-21.3c0.1-0.4,0.4-0.8,0.8-1.1c0.4-0.3,0.8-0.4,1.3-0.4
		s0.9,0.1,1.3,0.4c0.4,0.3,0.6,0.7,0.7,1.1l5.9,21.3c0,0,0,0,0,0c0.1,0,0.1,0,0.1,0l6.2-21.7c0.1-0.4,0.3-0.6,0.6-0.8
		c0.3-0.2,0.6-0.3,1-0.3c0.3,0,0.5,0.1,0.7,0.4c0.2,0.2,0.2,0.5,0.1,0.8l-6.7,22.3c-0.2,0.4-0.4,0.8-0.8,1.1
		c-0.4,0.3-0.8,0.4-1.2,0.4c-0.4,0-0.9-0.1-1.2-0.4c-0.4-0.3-0.6-0.6-0.7-1.1l-6-21.2c0,0,0,0,0,0c0,0,0,0,0,0l-6,21.2
		c-0.1,0.4-0.4,0.8-0.7,1.1c-0.4,0.3-0.8,0.4-1.2,0.4c-0.4,0-0.9-0.1-1.2-0.4C124.2,102.6,123.9,102.2,123.8,101.8z"/>
	<path class="st1" d="M174.8,100.2c-2.1,2.3-4.9,3.5-8.4,3.5c-3.5,0-6.3-1.2-8.4-3.5c-2.1-2.3-3.1-5.5-3.1-9.5c0-4,1-7.1,3.1-9.5
		c2.1-2.3,4.9-3.5,8.4-3.5c3.5,0,6.3,1.2,8.4,3.5c2.1,2.3,3.1,5.5,3.1,9.5C178,94.8,176.9,97.9,174.8,100.2z M173.2,82.7
		c-1.7-2-3.9-3-6.8-3c-2.8,0-5.1,1-6.8,3c-1.7,2-2.5,4.7-2.5,8.1c0,3.4,0.8,6.1,2.5,8.1c1.7,2,3.9,3,6.8,3c2.8,0,5.1-1,6.8-3
		c1.7-2,2.5-4.7,2.5-8.1C175.7,87.4,174.9,84.7,173.2,82.7z"/>
	<path class="st1" d="M185.7,102.9c-0.2,0.2-0.5,0.3-0.8,0.3c-0.3,0-0.6-0.1-0.8-0.3c-0.2-0.2-0.3-0.5-0.3-0.8V79.4
		c0-0.3,0.1-0.6,0.3-0.8c0.2-0.2,0.4-0.3,0.8-0.3s0.6,0.1,0.8,0.3c0.2,0.2,0.3,0.5,0.3,0.8l0,4.8c0,0,0,0,0,0c0.1,0,0.1,0,0.1,0
		c2.5-3.9,6.3-6,11.3-6.3c0.3,0,0.5,0.1,0.7,0.3c0.2,0.2,0.3,0.4,0.3,0.7c0,0.6-0.3,0.9-1,1c-3.3,0.2-6.1,1.3-8.2,3.3
		c-2.2,2-3.2,4.4-3.2,7.3v11.7C186,102.4,185.9,102.7,185.7,102.9z"/>
	<path class="st1" d="M213.6,103.8c-3.1,0-5.6-1.1-7.4-3.4c-1.8-2.3-2.7-5.5-2.7-9.6c0-4.1,0.9-7.3,2.7-9.6c1.8-2.3,4.3-3.4,7.4-3.4
		c4,0,6.9,1.7,8.5,5.2c0,0.1,0,0.1,0,0.1c0,0,0,0,0,0V68.4c0-0.3,0.1-0.6,0.3-0.8c0.2-0.2,0.5-0.3,0.8-0.3s0.6,0.1,0.8,0.3
		c0.2,0.2,0.3,0.5,0.3,0.8v33.8c0,0.3-0.1,0.5-0.3,0.8c-0.2,0.2-0.5,0.3-0.7,0.3s-0.5-0.1-0.8-0.3c-0.2-0.2-0.3-0.5-0.3-0.8l0-3.7
		c0,0,0,0,0,0c0,0,0,0,0,0C220.6,102,217.7,103.8,213.6,103.8z M214,79.8c-2.6,0-4.6,1-6.1,2.9c-1.5,1.9-2.2,4.6-2.2,8.1
		c0,3.5,0.7,6.2,2.2,8.1c1.5,1.9,3.5,2.9,6.1,2.9c2.4,0,4.4-0.9,5.9-2.8c1.5-1.9,2.3-4.5,2.3-7.9v-0.8c0-3.3-0.8-5.9-2.3-7.8
		C218.5,80.7,216.5,79.8,214,79.8z"/>
</g>
<g>
	<ellipse class="st2" cx="136.4" cy="379.5" rx="117.6" ry="60.4"/>
	<path class="st2" d="M156.1,345.3c4.7-6.3,6.1-4,24.8-52.6l-46.4,34"/>
</g>
<g>
	<path class="st0" d="M379.9,494.4c-0.1,0-0.3,0-0.4,0l-110-4.5c-2.6-0.1-5.1-1.3-6.8-3.2c-1.7-1.9-2.6-4.5-2.5-7.1l4.3-66.9
		c-3.5-2-5.5-5.9-4.8-10.1l2.9-17.1c-2.5-3.1-3.8-7.3-2.5-12.3c0.5-1.9,1.9-5.8,9.7-24.7l0.1-0.8l-1.6-29.9
		c-4.5,6.3-8.4,11.2-10.9,13c-4.4,3.3-9.9,4.5-15.5,3.4c-5.8-1.1-10.9-4.6-14-9.6c-3.7-6-25.6-61.7-32.3-78.6
		c-1.5-3.8-0.4-8,2.4-10.6c0,0,0,0,0,0c-8.7-7.9-14.2-14.4-17-19.9c-0.7-1.4-4.2-8.7-4.2-14.5c0-4,1-8.3,2.8-11.8
		c1.7-3.3,4.8-5.6,7.2-7c1.8-1.8,3.9-3.7,5.4-4.7c0.6-0.4,2.3-1.5,6.1-2.3c2.1-1.9,5-3.4,8.7-4c0.3,0,0.6-0.1,0.9-0.1
		c0.3-4.7,0.7-9.5,1-11.7l0.1-0.5c0.9-5.6,2.9-18.6,14.5-18.6c3.4,0,6.5,1.4,8.7,3.8c4.6,5,3.9,12.4,3.4,18.3
		c-0.3,3.4-0.3,13.6-0.2,19.9c0.4,3,1.3,6.6,2,7.7c5,7.9,2.9,18.8,1.1,23.4c-0.6,1.6-1.2,3.9-1.7,6c-0.1,0.6-0.3,1.2-0.4,1.7
		c1.6,1.1,2.8,2.7,3.5,4.5l11,29.9l14.1-29.6c0.6-1.3,4.1-7.9,12.2-11.6c2.7-1.2,15.6-5.1,23.1-7.4c0.9-0.3,1.9-0.4,2.9-0.4l0.1-5
		c-4.8-2.6-9.2-6-11.9-8.8c-6.3-6.3-10.5-16.5-11.5-28c-0.1-0.7-0.1-1.4-0.1-2.1c-1.4-1.2-2.7-2.7-3.9-4.5
		c-3.8-5.8-4.6-18.2,3.6-25.4c0.1-0.1,0.3-0.2,0.4-0.4c0.9-7.2,3.5-20.3,11.5-30.6c8.2-10.6,16.7-14,20.4-15c5.5-2.5,27-10.7,51,2.2
		c24.7,13.3,32.8,38.6,22.7,70c1.6,2.5,2.5,5.4,2.7,8.3c0.4,6.8-3.1,12.6-7.9,16.3c0.2,1.9,0.2,3.5,0,5.1c-0.1,0.6-0.2,1.2-0.4,1.8
		c5.3,9.4,13.5,27.5,17.7,53.9c0.1,0.3,0.2,0.6,0.3,0.9c1.5,5.1,11.3,32.8,17.8,51.1c4.4,12.3,6.7,18.8,7.2,20.4
		c1.4,4.3,2.2,12.8-7.5,21.5c4.2,3,7.2,8.8,5.3,16.3c-0.1,0.5-0.3,1-0.5,1.5l-29.1,66.8c-0.2,0.4-0.4,0.9-0.7,1.3
		c-2.1,3.3-5.6,5.9-9.7,6.8l8.8,52.1c0.5,2.9-0.4,5.8-2.3,8C385.3,493.2,382.7,494.4,379.9,494.4z M221.1,200.5
		C221.1,200.5,221.1,200.5,221.1,200.5C221.1,200.5,221.1,200.5,221.1,200.5z M196,199.5L196,199.5L196,199.5z M201.8,194.4
		C201.8,194.4,201.8,194.4,201.8,194.4L201.8,194.4z M212.6,187.6C212.6,187.6,212.6,187.6,212.6,187.6
		C212.6,187.6,212.6,187.6,212.6,187.6z M292.1,147.6C292.1,147.6,292.1,147.6,292.1,147.6C292.1,147.6,292.1,147.6,292.1,147.6z
		 M290.9,147.2C290.9,147.2,291,147.2,290.9,147.2C291,147.2,290.9,147.2,290.9,147.2z"/>
	<g>
		<path class="st3" d="M295.4,140.2l-1.4-6c0,0,1.4-14.6,4.6-21.3c3.2-6.8,12.1-16,18.1-18.1s17.4-6,26.3-5.3
			c8.9,0.7,29.9,8.5,35.2,18.8c5.3,10.3,7.1,17.1,6,27.4c-1.1,10.3-3.2,18.5-3.2,18.5l-1.8,4.6l-5,0.7l-4.6,11
			c0,0-1.1-10.7-1.1-13.9c0-3.2-0.7-11.4-0.7-11.4s-19.2-5-33.8-13.9c-14.6-8.9-19.9-18.1-19.9-18.1s-3.9,10-8.9,14.6
			c-5,4.6-6.8,4.6-6.8,4.6L295.4,140.2z"/>
		<path class="st3" d="M362.6,195.7l10.7-1.4c0,0,10,18.5,11.7,24.9c1.8,6.4,7.5,28.8,7.5,28.8s-4.3-7.5-10.3-9.6
			c-6-2.1-23.5-13.5-23.5-13.5S360.1,205.6,362.6,195.7z"/>
		<polygon class="st4" points="274.5,480.4 384.6,485.4 374,419.3 342.3,406.1 320.3,407.5 312.8,397.9 307.9,407.9 280.1,406.1 		
			"/>
		<g>
			<path class="st5" d="M375.4,334.7l-28.4,27l-8.5-3.6c0,0-2.1,0.7-2.5,2.5c-0.4,1.8-2.5,4.6-1.4,5c1.1,0.4,8.2,3.9,8.2,3.9
				s-4.6,1.8-5.7,1.8c-1.1,0-5.3,0.4-5.3,0.4s-10,3.9-12.4,4.3c-2.5,0.4-6.4,2.1-6.4,2.1s-2.5,3.6,2.5,3.6c5,0,11.4,0,11.4,0
				s-6.4,6-8.5,7.8s-11.7,6-11.7,6L278,384.8c0,0-3.2-1.4-2.8-5.3l27.7-67.9c0,0,1.4-6,7.8-3.9L375.4,334.7z"/>
			<path class="st5" d="M338.1,404c0,0,8.9-7.5,11-10.7c2.1-3.2,8.2-14.9,8.2-14.9l1.8,1.1l44.4-36.6l11.4,5.3c0,0,3.2,2.1,1.4,6.4
				l-28.4,65.8c0,0-3.2,3.6-6.8,2.1L338.1,404z"/>
		</g>
		<polygon class="st6" points="310,238.3 345.5,242.9 317.1,306.9 		"/>
	</g>
	<g>
		<g>
			<path class="st7" d="M354.1,219.1c-0.7-9.4,3.5-27.4,3.5-27.4"/>
			<path class="st7" d="M368.5,190.3c5.7,8.9,15.1,27.9,19.4,56.9"/>
			<path class="st7" d="M355.6,184.6c-0.2,2.4,0.3,4.3,0.6,5.2c0.9,2,6.9,1.4,9.4,1.1c2.8-0.4,4.3-2,4.6-4.3
				c0.2-1.3-0.1-3.5-0.6-7.5"/>
		</g>
		<path class="st7" d="M347.2,218.5l-8.9-4.7l-0.8-19.5c2.7-0.9,6-2.3,9-3.8c10.2-5.2,14.6-13.2,14.6-13.2s4.6,1.3,8.7,0.2
			c4.3-1.2,8.7-5.5,8.4-10.2c-0.3-4.7-5.3-9-9.2-7.2"/>
		<line class="st7" x1="305.7" y1="234.2" x2="338.5" y2="238.4"/>
		<path class="st7" d="M290.6,144.4c-1.3,6.3-2.1,13.1-1.6,18.9c0.7,8.2,3.6,16.9,8.7,22c3.2,3.2,9.3,7.7,14.9,9.3l-0.5,19.6
			l-7.7,1.7"/>
		<g>
			<circle class="st8" cx="299.6" cy="165.1" r="7.1"/>
			<circle class="st8" cx="340.3" cy="179.1" r="7.1"/>
			<path class="st1" d="M314.4,148.7c0,2.2-1.8,4-4,4c-2.2,0-4-1.8-4-4c0-2.2,1.8-4,4-4C312.6,144.7,314.4,146.5,314.4,148.7z"/>
			<circle class="st1" cx="342.3" cy="157.1" r="4"/>
			<path class="st7" d="M322,153c0,0-1.8,5-4,6.1c-2.3,1.1-5.2,1.4-5.2,1.4s0.5,3.2,4.7,5.8"/>
			<path class="st9" d="M308.4,172c0,0,0.4,4.5,4.5,7.2c3.4,2.2,10.4,2.8,14.7-2.1"/>
			<path class="st10" d="M303.3,137.8c0,0,3.3-4.5,8.8-3.6c5.5,1,6.7,6.8,6.7,6.8"/>
			<path class="st10" d="M352.5,150.7c0,0-0.2-5.5-5.5-7.5c-5.2-2-9.2,1.9-9.2,1.9"/>
		</g>
		<g>
			<path class="st7" d="M290.4,144.1c0,0,0.5-5.3-0.2-6.2c-0.7-0.9-1.6-0.4-1.6-0.4s0.3-17.8,9.9-30.3c8-10.4,16-11.7,16-11.7
				s20.2-10.8,43.2,1.5c25.1,13.5,25.7,39,16.3,63.7c0,0-4.6-1.8-5.7,0.9c-1.1,2.7-4.3,10.7-4.3,10.7s0.2-10.1-0.2-15.6
				c-0.4-5.5-1.4-10.5-1.4-10.5s-13.3-3-28.4-10c-15.1-6.9-24.3-22-24.3-22s-3.8,8.7-7.6,13.2c-2.8,3.4-8.4,6.2-8.4,6.2L290.4,144.1
				z"/>
			<path class="st10" d="M309.5,111.7c0,0-1.3-3.2-0.4-9.5"/>
			<path class="st10" d="M317.3,108.6c0,0,5.8,8.8,14.3,14.8c8.5,6,21.3,9.6,21.3,9.6"/>
			<path class="st10" d="M344.7,104.3c0,0,24.7,2.7,25.1,36.4"/>
		</g>
		<g>
			<path class="st7" d="M209.2,238.8c-1-3.1-2.8-9.1-4.5-10.7c-2.3-2-12.1-10.8-15.5-17.6c-1.1-2.1-3.2-7.3-3.2-10.1
				c0-2.2,0.5-5,1.7-7.3c1-1.9,4.4-3.5,4.4-3.5s3.7-3.6,5-4.5c1.4-0.9,5.8-1.4,5.8-1.4s1-2.8,5.1-3.4c2.3-0.4,7.6,6.1,7.6,6.1
				l0.8-4.2c0,0,0.8-17.5,1.5-21.8c0.7-4.3,1.6-10.9,5-10.9s2.9,6.4,2.5,11.6c-0.5,5.2-0.3,21.3-0.3,21.3s0.8,8.1,3.5,12.3
				c2.8,4.4,1.4,11.8,0.3,14.7c-1.3,3.4-2.1,8-2.9,10.7c-1,3.5,0.7,7.1,1.6,9.8"/>
			<path class="st11" d="M189.5,199.3c0,0,4.9,3.5,5.4,4.1c1.5,2,2.8,5.1,3.4,5.8c1.5,1.7,2.9,3.2,4.8,2.7c1.9-0.5,0.5-6.1,0.5-6.1
				s4.1,3.8,6.4,2.9c2.3-0.9,4.1-1.2,1.5-7.1c0,0,2.7,5.4,5.4,4.2s3.1-4.3,1.2-9.3"/>
			<path class="st11" d="M227.1,192.2c-1.4-1.8-3.3-2-4-3.4c-1.2-2.4-5.1-6.2-6.7-2.7c-1.4,3,0.3,7.2,3.6,12.3
				c1.2,1.9,2.7,3.3,2.7,3.3"/>
			<path class="st9" d="M210.3,218.6c0,0-0.1-7.7,10.5-13.7"/>
			<polyline class="st11" points="203.9,205 201.3,197.9 193.9,192.1 			"/>
			<polyline class="st11" points="211.8,201.8 209.4,192.2 203.6,186 			"/>
		</g>
		<line class="st7" x1="368.1" y1="417.4" x2="379.3" y2="484"/>
		<line class="st7" x1="269.3" y1="479.5" x2="274.1" y2="404.8"/>
		<path class="st7" d="M300.6,390.6l-28.8-10.5c0,0-3.9-1.1-2.8-5.3c1.1-4.3,28.3-69.1,28.3-69.1s2.7-6.1,6.4-3.5l65.4,26.4"/>
		<path class="st7" d="M397.3,340.7l11.4,4.4c0,0,3.4,1.4,2.1,6.4l-29.1,66.8c0,0-2.6,4.1-6.8,2l-42.7-18"/>
		<g>
			<g>
				<line class="st7" x1="249.2" y1="279.8" x2="254.3" y2="292.9"/>
				<path class="st7" d="M272.5,381.2l-3.8,22.3c0,0,18.9,3.7,33.6,3.5l5.3-11.7l5.9,12c0,0,7.9-0.5,23.9-1.9"/>
				<path class="st7" d="M358.3,322.5l9.6-49.3l17.3,41.6l-47.3,45.5l15.6,17.3c0,0,51.1-43.6,53.2-45.8c0.7-0.7,8.5-6.1,6.4-12.8
					c-1.4-4.4-22.7-63.5-25.1-71.7c-2.4-8.3-10.1-11.2-12.3-13.1c-2.1-1.9-26.4-16-26.4-16l-38.6,86.6l-8.4-89.2
					c0,0-19.4,5.8-21.9,6.9c-5.3,2.4-7.5,6.9-7.5,6.9l-24,50.4l-18.9-51.5l-26.1,13.4c0,0,27.9,71.3,31.5,77
					c3.2,5.2,10.4,7.2,15.5,3.5c5.1-3.7,24.8-35,24.8-35l3.2,60l-0.4,3"/>
			</g>
			<line class="st7" x1="275.9" y1="287.3" x2="274" y2="254.8"/>
		</g>
		<g>
			<line class="st12" x1="199.9" y1="119.6" x2="208.2" y2="132.1"/>
			<line class="st12" x1="224.7" y1="115.6" x2="224.2" y2="130.5"/>
			<line class="st12" x1="248.7" y1="120.1" x2="241.5" y2="132.4"/>
		</g>
		<path class="st7" d="M287.4,138.2c-0.6,0.3-1.3,0.7-2.1,1.4c-4.1,3.6-3.4,10.3-1.8,12.8c1.4,2.1,2.7,3,3.7,3.4"/>
		<path class="st7" d="M339.6,362.6c0,0-3,3.1-5.3,3.8c-3.6,1.1-7.5,0.3-9.1,0.9c-5.3,2-11.6,4.3-14.3,4.7c-1.9,0.3-5.9,1.4-5.2,3
			c0.7,1.5,3.7,2.2,8.5,2.3s8.9-0.9,8.9-0.9s-7.8,5.7-10.8,8.1c-3,2.4-8.4,5-8.4,5s-7.8,2.7-5.6,4.9c2,2,9.1,0.2,12.8,0.2
			c0,0-0.9,2.8,0.5,4.3c1.5,1.5,6-0.7,6-0.7s-1.2,3.2,0.5,4.6c1.7,1.5,5.7-1.6,5.7-1.6s-0.7,4.2,1.4,4.3c2.1,0.1,5.9-3,5.9-3
			s9.2-8.3,12.6-12.6c3.4-4.3,5.1-9.1,6-10.5c0.9-1.4,1.6-3.6,1.6-3.6"/>
		<path class="st13" d="M337.1,364.8l-6.9-2.8c-1.2-0.5-1.8-1.9-1.3-3.1l1.6-3.8c0.5-1.2,1.9-1.8,3.1-1.3l8.1,3.3"/>
	</g>
</g>
<g>
	<g>
		<path class="st1" d="M78.8,374c-0.4,0-0.7-0.1-1-0.4c-0.3-0.3-0.4-0.6-0.4-1s0.1-0.7,0.4-1c0.3-0.3,0.6-0.4,1-0.4h15.5
			c0.5,0,0.8-0.2,1.1-0.6c1.2-2.3,2.2-4.8,3.3-7.7c0.4-0.9,1-1.3,2-1.2c0.4,0,0.7,0.2,0.9,0.6c0.2,0.4,0.2,0.7,0.1,1.1
			c-0.7,2.1-1.8,4.6-3,7.2c-0.2,0.4,0,0.6,0.4,0.6h30.8c0.4,0,0.7,0.1,1,0.4c0.3,0.3,0.4,0.6,0.4,1s-0.1,0.7-0.4,1
			c-0.3,0.3-0.6,0.4-1,0.4h-8c-0.5,0-0.7,0.2-0.9,0.6c-2.1,7.7-5.5,13.8-10.2,18.2c-0.3,0.3-0.3,0.6,0.2,0.7
			c5.9,2.7,11.9,5.9,18.1,9.6c0.3,0.2,0.5,0.5,0.6,0.9c0.1,0.4,0,0.8-0.2,1.1c-0.6,0.8-1.3,0.9-2.1,0.4c-6.5-3.9-12.7-7.3-18.7-10
			c-0.4-0.2-0.8-0.2-1.2,0.1c-6.2,4.6-15.2,7.9-26.8,9.9c-0.4,0.1-0.7,0-1.1-0.2c-0.3-0.2-0.5-0.5-0.6-0.9c-0.1-0.4,0-0.7,0.2-1
			c0.2-0.3,0.5-0.5,0.9-0.6c10.3-1.7,18.4-4.6,24.2-8.5c0.1-0.1,0.2-0.2,0.2-0.4c0-0.2-0.1-0.3-0.2-0.3c-5.6-2.3-11.1-4.1-16.6-5.6
			c-0.3-0.1-0.6,0-0.9,0.3c-0.4,0.4-0.9,1-1.7,1.7c-0.7,0.7-1.4,0.8-2.1,0.2c-0.3-0.2-0.5-0.5-0.5-0.9c0-0.4,0.1-0.7,0.3-0.9
			c4.1-4.2,7.6-8.9,10.5-13.9c0.1-0.1,0.1-0.2,0-0.4c-0.1-0.1-0.2-0.2-0.4-0.2H78.8z M129.1,368c-0.3,0.3-0.6,0.4-1.1,0.4
			c-0.4,0-0.8-0.1-1.1-0.4c-0.3-0.3-0.4-0.6-0.4-1v-6.2c0-0.5-0.2-0.7-0.7-0.7h-43c-0.5,0-0.7,0.2-0.7,0.7v6.2c0,0.4-0.1,0.8-0.4,1
			c-0.3,0.3-0.6,0.4-1.1,0.4c-0.4,0-0.8-0.1-1.1-0.4c-0.3-0.3-0.4-0.6-0.4-1v-4.3c0-1.4,0.5-2.7,1.5-3.7c1-1,2.3-1.5,3.7-1.5h17.7
			c0.5,0,0.7-0.2,0.7-0.7v-4.4c0-0.5,0.2-0.8,0.5-1.1c0.3-0.3,0.7-0.4,1.1-0.4c0.4,0,0.8,0.1,1.1,0.4c0.3,0.3,0.5,0.7,0.5,1.1v4.4
			c0,0.5,0.2,0.7,0.7,0.7h17.7c1.4,0,2.7,0.5,3.7,1.5c1,1,1.5,2.3,1.5,3.7v4.3C129.5,367.4,129.3,367.7,129.1,368z M96.6,374.6
			c-2.1,3.8-4.4,7.4-7.1,10.6c-0.3,0.4-0.2,0.6,0.2,0.7c6.3,1.7,11.9,3.7,17,5.8c0.5,0.2,0.9,0.2,1.2-0.1c4.7-4.3,8.1-9.9,10.1-16.9
			c0-0.2,0-0.3-0.1-0.5c-0.1-0.1-0.2-0.2-0.4-0.2H97.6C97.1,374,96.8,374.2,96.6,374.6z"/>
		<path class="st1" d="M138.8,398.4c-0.4-0.1-0.6-0.4-0.8-0.8s-0.2-0.8,0-1.1c2.6-6.8,4.5-14.7,5.6-23.8c0-0.4,0.2-0.7,0.6-1
			c0.3-0.2,0.7-0.3,1.1-0.3c0.4,0,0.7,0.2,1,0.5c0.2,0.3,0.4,0.6,0.3,1.1c-1,9.3-2.9,17.5-5.6,24.5c-0.2,0.4-0.4,0.7-0.8,0.9
			C139.6,398.6,139.2,398.6,138.8,398.4z M154.5,355.5c-0.4-0.1-0.7-0.3-0.9-0.6c-0.2-0.3-0.3-0.6-0.2-1c0.2-0.9,0.8-1.2,1.7-1.1
			c8.4,1.4,16.7,3.6,25.1,6.7c0.4,0.1,0.6,0.4,0.8,0.7c0.1,0.4,0.2,0.7,0,1.1c-0.3,0.9-0.9,1.2-1.8,0.9
			C170.9,359,162.6,356.8,154.5,355.5z M181.7,387.8c0.5,0.1,0.8,0.3,1.1,0.6c0.3,0.3,0.4,0.7,0.3,1.1c-0.2,2.6-0.3,4.7-0.4,6.2
			c-0.1,1.5-0.3,2.9-0.6,4.2c-0.3,1.3-0.6,2.2-0.9,2.8c-0.3,0.5-0.8,1-1.5,1.5c-0.7,0.5-1.4,0.8-2.1,0.9c-0.7,0.1-1.7,0.2-3,0.4
			c-2.5,0.2-4.9,0.3-7.2,0.3c-2.4,0-4.8-0.1-7.2-0.3c-2.6-0.2-4.1-0.7-4.7-1.6c-0.6-0.9-0.9-3.1-0.9-6.6v-31.7
			c0-0.4,0.2-0.8,0.5-1.1s0.7-0.5,1.1-0.5c0.4,0,0.8,0.1,1.1,0.4c0.3,0.3,0.5,0.7,0.5,1.1v31.4c0,2.7,0.2,4.3,0.5,4.8
			c0.3,0.5,1.3,0.8,2.9,1c2.1,0.2,4.2,0.3,6.2,0.3c2,0,4.1-0.1,6.2-0.3c0.9-0.1,1.5-0.1,1.9-0.2c0.4,0,0.8-0.1,1.4-0.3
			c0.5-0.2,0.9-0.4,1.1-0.5c0.2-0.1,0.4-0.5,0.7-1.1c0.3-0.6,0.5-1.1,0.6-1.5c0.1-0.5,0.2-1.2,0.3-2.4c0.2-1.1,0.3-2.2,0.3-3.2
			c0-1,0.1-2.5,0.2-4.4c0-0.4,0.2-0.7,0.5-1S181.3,387.7,181.7,387.8z M191.8,396.6c-1.7-8.3-4-16.5-6.8-24.6
			c-0.1-0.4-0.1-0.7,0.1-1.1c0.2-0.4,0.5-0.6,0.9-0.7c0.4-0.1,0.8-0.1,1.1,0.1c0.3,0.2,0.6,0.5,0.7,0.8c2.8,8.3,5.2,16.6,6.9,24.9
			c0.2,0.9-0.2,1.5-1.2,1.7c-0.4,0.1-0.8,0-1.1-0.2C192.1,397.3,191.9,397,191.8,396.6z"/>
	</g>
</g>
</svg>
