<?xml version="1.0" encoding="utf-8"?>
<!-- Generator: Adobe Illustrator 23.1.1, SVG Export Plug-In . SVG Version: 6.00 Build 0)  -->
<svg version="1.1" id="レイヤー_1" xmlns="http://www.w3.org/2000/svg" xmlns:xlink="http://www.w3.org/1999/xlink" x="0px"
	 y="0px" width="660px" height="385px" viewBox="0 0 660 385" style="enable-background:new 0 0 660 385;" xml:space="preserve">
<style type="text/css">
	.st0{fill:#F8E695;}
	.st1{fill:#282322;}
	.st2{fill:#4C77B9;}
	.st3{fill:#FFFFFF;}
</style>
<g>
	<rect y="0" class="st0" width="660" height="385"/>
</g>
<g>
	<path d="M178.4,44c-0.1,0.2-0.3,0.5-0.6,0.5c3,4.2,8.6,8.2,13.4,10.4c-0.6,0.6-0.9,1.2-1.3,1.8c-4.8-2.4-10.4-6.6-13.3-10.7
		c-2.6,3.8-7.6,8.1-13,10.8c-0.2-0.5-0.7-1.2-1.2-1.6c5.4-2.6,10.7-7.2,13-11.4L178.4,44z M163.9,61.5v-1.9h25.7v1.9h-14.8l0.3,0.1
		c-0.1,0.2-0.3,0.3-0.7,0.3c-0.9,2-2.2,4.8-3.6,7.1c4.1-0.1,8.8-0.2,13.5-0.5c-1.4-1.6-3-3.2-4.5-4.6l1.8-0.9c2.9,2.5,6,5.9,7.4,8.1
		l-1.8,1.2c-0.7-0.6-1-1.3-1.7-2.1c-7.4,0.5-15.4,0.7-20.3,0.8c-0.1,0.3-0.2,0.5-0.6,0.5l-0.6-2.5c1.3,0,2.8,0,4.5-0.1
		c1.3-2.2,2.7-5.3,3.6-7.6h-8.2C163.9,61.4,163.9,61.5,163.9,61.5z M169.1,53.6h14.9v1.9h-14.9V53.6z"/>
	<path d="M205.2,49.1v1.8h-12.3v-1.8H205.2z M203.9,61.6v9h-7.7V72h-1.8V61.5L203.9,61.6L203.9,61.6z M194.4,55v-1.8h9.6V55H194.4z
		 M194.4,59v-1.8h9.6V59H194.4z M204.1,45v1.8h-9.4V45H204.1z M202.1,63.4h-5.9v5.5h5.9V63.4z M221.9,54.6v2h-7.1v15.7h-2V56.6h-7.4
		v-2h7.4V44l2.7,0.2c0,0.2-0.2,0.3-0.6,0.5v10C214.8,54.6,221.9,54.6,221.9,54.6z"/>
	<path d="M251.9,62v1.7h-3.2v5.5h-2v-1.4h-7.9v2c0,1.4-0.5,1.9-1.3,2.2c-0.9,0.3-2.6,0.3-5.2,0.3c-0.1-0.6-0.5-1.3-0.7-1.8
		c1.2,0,2.2,0.1,3.1,0.1c1.8,0,2,0,2-0.7v-2.1h-10.2V66h10.2v-2.3h-12.9v-1.8h12.9v-2.2h-10v-1.6h10v-2h-9v-5.9h9v-1.9h-12.3v-1.8
		h12.3v-2.6l2.7,0.1c0,0.2-0.2,0.5-0.6,0.5v2h12.6v1.8h-12.6v1.9h9.4v5.9h-9.4v2h9.9V62H251.9z M229.8,54.6h6.9v-3h-6.9V54.6z
		 M246.1,51.7h-7.3v2.9h7.3V51.7z M238.9,59.7v2.4h7.9v-2.4H238.9z M246.6,66.2v-2.5h-7.9v2.5H246.6z"/>
	<path d="M282.4,49.1h-2.6c-0.8,2.2-2.1,4.3-3.8,5.9c2,1.5,4.3,2.7,6.8,3.3c-0.5,0.5-0.9,1.2-1.3,1.8c-2.6-0.7-4.9-2-6.9-3.8
		c-2,1.8-4.5,3-7.3,4c-0.2-0.3-0.6-0.9-0.9-1.4c-0.5,1.4-0.9,2.7-1.5,3.6l-1.5-0.7c0.6-1.3,1.3-3.3,1.8-5.2H262v13.3
		c0,2.2-0.9,2.4-4.8,2.4c-0.1-0.6-0.3-1.4-0.6-1.9c0.7,0,1.6,0.1,2.1,0.1c1.2,0,1.4,0,1.4-0.6V59.1c-1.2,3.1-2.9,6.3-4.7,8
		c-0.2-0.6-0.7-1.4-1.1-1.8c1.9-1.9,4-5.5,5.2-8.7h-4.8v-1.8h8.6c-1.5-1.4-4.5-3.3-7.1-4.4l1.3-1.3c0.9,0.5,2,0.9,3,1.5
		c1.3-0.9,2.6-2.1,3.5-3.3h-9v-1.8h10.6l0.3-0.1l1.5,0.9c-0.1,0.1-0.3,0.2-0.5,0.3c-1.2,1.6-3.1,3.5-5,4.9c1.1,0.6,2,1.4,2.7,1.9
		l-1.3,1.4h3.1l1.1,0.1c0,0.5-0.7,2.9-0.9,3.6c2.5-0.8,4.8-2,6.7-3.5c-1.2-1.2-2.2-2.6-3.1-4.1c-0.7,0.9-1.5,1.9-2.4,2.7
		c-0.5-0.3-1.2-0.9-1.6-1.2c2.1-1.9,4.2-5.2,5.3-8.5l2.5,0.7c-0.1,0.2-0.3,0.3-0.6,0.3c-0.3,0.7-0.6,1.5-0.9,2.2h10L282.4,49.1
		L282.4,49.1z M279.9,61.8L281,62c0,0.2,0,0.5-0.1,0.6c-0.6,5.6-1.1,8-1.9,8.9c-0.6,0.6-1.4,0.7-3.1,0.7c-0.6,0-1.4,0-2.1-0.1
		c-0.1-0.6-0.2-1.4-0.6-1.9c1.4,0.1,2.7,0.1,3.1,0.1c0.6,0,0.7-0.1,1.1-0.3c0.6-0.6,1.1-2.4,1.5-6.6h-5c-1.1,3.5-3.1,6.8-7.6,8.8
		c-0.2-0.5-0.7-1.2-1.2-1.5c3.9-1.5,5.8-4.2,6.8-7.3h-4.7v-1.7h5.3c0.2-1.1,0.5-2.2,0.6-3.3l2.7,0.2c-0.1,0.2-0.3,0.3-0.6,0.5
		c-0.1,0.8-0.2,1.8-0.5,2.7H279.9L279.9,61.8z M271.2,49.1l-0.1,0.2c0.8,1.6,2,3.1,3.4,4.5c1.3-1.4,2.4-2.9,3.1-4.7
		C277.8,49.1,271.2,49.1,271.2,49.1z"/>
	<path d="M298,60.6h-9.2c-0.1,3.8-0.6,8.6-2.8,11.9c-0.3-0.3-1.2-0.9-1.6-1.3c2.2-3.3,2.5-8.1,2.5-11.7V51h11.3v9.5
		C298.2,60.6,298,60.6,298,60.6z M299,45.6v1.9h-13.7v-1.9H299z M295.9,52.9h-7.2v5.8h7.2V52.9z M313.8,54.6v1.9h-3.6v15.9h-2v-16
		h-5.7c-0.1,4.8-0.9,11.2-5.3,15.7c-0.3-0.5-0.9-1.2-1.5-1.4c4.3-4.6,4.8-10.8,4.8-15.5v-8.1l1.6,0.5c3.4-0.8,7.1-2,9.2-3.2l2,1.6
		c-0.1,0.1-0.3,0.2-0.6,0.1c-2.5,1.2-6.6,2.4-10.2,3.2v5.3C302.4,54.6,313.8,54.6,313.8,54.6z"/>
	<path d="M331.6,49.5c-0.1,0.3-0.3,0.6-0.7,0.6c-1.1,9.5-4.3,17.8-9.4,17.8c-2.6,0-4.9-2.6-4.9-7.4c0-7.4,5.6-13.5,13.9-13.5
		c8.9,0,12.7,5.5,12.7,11.6c0,7.3-4.2,10.8-11.7,12.6c-0.3-0.6-0.7-1.3-1.3-1.8c7.1-1.4,10.7-4.8,10.7-10.6c0-5-3.2-9.6-10.4-9.6
		c-0.3,0-0.6,0-0.9,0.1L331.6,49.5z M328.8,49.1c-6.2,0.7-10.1,5.9-10.1,11.3c0,3.3,1.4,5.4,2.9,5.4
		C325.4,65.7,327.9,57.5,328.8,49.1z"/>
	<path d="M371.9,52.8c-0.1,0.3-0.5,0.6-0.8,0.6c-0.3,2.1-0.8,4.4-1.4,6.2c1.6,0.7,3.4,1.5,5.2,2.4l-0.9,2c-1.6-0.8-3.2-1.6-4.8-2.2
		c-1.5,4.4-3.5,7.6-6.8,9.7c-0.5-0.5-1.2-0.9-1.8-1.3c3.2-2.1,5.3-5,6.7-9.4c-3.1-1.2-5.9-2-8.1-2.2c-2.1,7.7-4,9.7-7.7,9.7
		c-3.7,0-4.4-2.9-4.4-4.8c0-4.7,4.9-6.9,10.4-6.9c0.6-2.5,1.2-5.5,1.6-8.7c-1.4,0.1-6.3,0.5-8.7,0.6c-0.1,0.2-0.3,0.3-0.6,0.5
		l-0.3-2.5c2.7-0.1,8.3-0.5,10.2-0.6c0.3,0,0.5-0.2,0.6-0.3l1.9,1.2c-0.1,0.2-0.5,0.3-0.7,0.6c-0.6,3.4-1.2,6.9-1.9,9.5
		c2.4,0.2,5.2,0.9,8.2,2.1c0.6-1.8,0.9-4.2,1.3-6.7L371.9,52.8z M356.6,58.4c-4.4,0.1-8,1.8-8,5c0,1.8,0.8,2.9,2.2,2.9
		C353.2,66.4,354.6,65.6,356.6,58.4z"/>
	<path d="M388.9,44.8c-0.1,0.2-0.5,0.6-0.9,0.6c-0.2,1.4-0.6,2.9-0.7,4.2c3-0.2,6.3-0.7,9-1.5l0.3,2c-2.9,0.7-6.2,1.2-9.7,1.5
		c-1.5,5.9-3.5,10.7-6.6,15.1l-2-0.8c2.8-4,4.9-8.6,6.2-14.2h-6v-2h3.6c0.9,0,1.9,0,2.8,0c0.3-1.6,0.6-3.3,0.8-5.2L388.9,44.8z
		 M396.9,57.9c0,2.5,0.2,4.2,0.5,6.3c1.9,0.7,4.5,2,6.6,3.5l-1.1,1.9c-1.8-1.3-3.8-2.5-5.5-3.2c0,3.1-1.2,5.5-5.6,5.5
		c-3.4,0-6-1.5-6-4.4c0-3.1,3.2-4.5,6-4.5c1.1,0,2.2,0.2,3.4,0.6c-0.1-1.9-0.3-4-0.3-5.4L396.9,57.9z M395.4,65.5
		c-1.3-0.6-2.6-0.7-3.6-0.7c-1.8,0-4,0.7-4.1,2.7c0,1.8,1.8,2.6,4.1,2.6c2.2,0,3.6-1.1,3.6-3.1C395.4,66.4,395.4,65.9,395.4,65.5z
		 M403.8,54.7c-3.4,0-7.6,0.6-10.8,1.5l-0.3-1.9c3.5-0.9,7.7-1.6,11-1.6L403.8,54.7z"/>
	<path d="M434.1,50.9c-2.8,0.7-6.6,1.4-10.2,1.8c1.2,4.2,2.5,6.7,5.8,8l-1.5,1.8c-1.4-1.1-2.9-1.9-6.8-2.1l-0.3-1.8
		c1.5,0.1,2.7,0.3,3.4,0.5c-1.1-1.3-1.9-3.2-2.7-6.3c-1.4,0.1-3.2,0.2-5,0.2c-2,0-5.3,0-7.2-0.1v-2.1c1.8,0.1,4.4,0.1,7.2,0.1
		c1.6,0,3.3,0,4.6-0.1c-0.3-1.6-0.7-4-1.1-6.3l3.3,0.1c0,0.3-0.3,0.6-0.7,0.7c0.2,1.8,0.6,3.6,0.8,5.4c3.5-0.3,7.5-0.9,10.2-1.8
		L434.1,50.9z M428.8,71.1c-1.5,0.1-3,0.1-5.6,0.1c-6.5,0-10.9-1.9-10.9-6.1c0-1.8,1.1-3.5,2.8-5.2l1.6,1.3
		c-1.4,1.1-2.2,2.6-2.2,3.8c0,3,4,4,8.8,4c2.7,0,4.2-0.1,5.8-0.1L428.8,71.1z"/>
	<path d="M440.8,48.7c1.9,0.1,4.4,0.1,6.6,0.1c1.4,0,2.9,0,4.2-0.1c0-1.5-0.1-3.2-0.1-4.3l3.1,0.1c0,0.3-0.3,0.6-0.8,0.6
		c0,0.6,0,2.9,0,3.3c3.5-0.2,7.2-0.6,10.2-1.2l0.3,2c-3,0.6-6.6,0.9-10.5,1.2c0,1.8,0.1,3.8,0.1,5.6c3-0.2,6.1-0.6,8.7-1.2l0.2,2
		c-2.6,0.6-5.8,0.9-8.9,1.1l0.2,5.2c2.8,0.9,5.8,2.5,9,4.8l-1.6,2.1c-2.8-2.1-5.4-3.6-7.6-4.5c0,0.6,0,1.1,0,1.4
		c0,2.9-1.8,4.6-5.5,4.6c-3.9,0-6.8-1.6-6.8-4.5c0-3,3.3-4.6,6.8-4.6c0.9,0,2,0.1,3.2,0.3c0-1.3-0.1-2.9-0.1-4.6c-0.9,0-2,0.1-3,0.1
		c-5.3,0-6.8-0.8-6.8-2.6c0-1.2,0.8-2.1,2.9-3.3l1.5,0.9c-1.4,0.7-2.1,1.4-2.1,2c0,0.9,1.4,1.1,5.4,1.1c0.6,0,1.4,0,2,0l-0.2-5.6
		c-1.3,0.1-2.9,0.1-4.2,0.1c-1.9,0-4.7,0-6.6-0.1v-1.9L440.8,48.7L440.8,48.7z M452.1,64.7c-1.2-0.3-2.4-0.6-3.4-0.6
		c-2.4,0-4.7,0.9-4.7,2.8s2.1,2.7,4.8,2.7c2.5,0,3.3-1.1,3.3-3.2L452.1,64.7L452.1,64.7z"/>
	<path d="M468.9,58.5c1.3-1.2,4.4-4.6,6.1-6.3c2.4-2.6,3.5-3.2,5-3.2c1.8,0,3.1,1.2,5.9,4.4c2.1,2.7,7.2,8.2,11.6,12.2l-1.6,1.9
		c-4.2-3.8-9.2-9.5-11-11.8c-2.6-3.2-3.5-4.4-4.8-4.4c-1.2,0-2.1,0.9-4.1,3.1c-1.1,1.2-3.5,4-4.8,5.4c0,0.5-0.1,0.7-0.3,0.8
		L468.9,58.5z"/>
</g>
<g>
	<path d="M140.3,109h-6.9c-0.1,0.1-0.3,0.1-0.6,0.1c-1.2,4.2-3.2,7.4-5.9,9.9c4.5,1.8,8.6,3.5,11.5,5.3l-1.8,2.1
		c-2.8-1.8-7.2-3.8-11.9-5.5c-4.1,2.9-9.4,4.6-16,5.5c-0.2-0.6-0.9-1.6-1.5-2.1c5.9-0.7,10.8-2.1,14.6-4.5c-2.6-0.9-5.3-1.8-7.7-2.6
		c-0.3,0.6-0.6,1.2-0.8,1.6l-2.6-0.6c1.3-2.4,2.9-5.6,4.4-9.2h-9.2v-2.5h10.3c1.1-2.5,2-4.8,2.9-6.8l3.2,0.6
		c-0.1,0.3-0.3,0.5-0.8,0.5c-0.7,1.8-1.6,3.8-2.5,5.8h21.1v2.5L140.3,109L140.3,109z M109.8,98.4v5.8h-2.6V96h14.4v-4.7l3.4,0.2
		c0,0.2-0.2,0.5-0.7,0.6v4h14.6v8.1h-2.7v-5.8C136.3,98.4,109.8,98.4,109.8,98.4z M118.1,109c-0.9,2.1-1.9,4.2-2.8,6.1
		c2.9,0.7,6,1.8,9.2,2.9c2.7-2.2,4.6-5.2,5.8-9C130.2,109,118.1,109,118.1,109z"/>
	<path d="M162.9,91.3c-0.1,0.3-0.5,0.6-0.7,0.6c3.6,4.9,10.5,10.7,16.3,13.7c-0.6,0.6-1.3,1.5-1.8,2.2c-5.9-3.4-12.7-9.2-16.2-14.1
		c-3.1,4.7-9.3,10.5-15.9,14.3c-0.3-0.6-1.1-1.5-1.6-2c6.7-3.8,13.2-10,16.1-14.9L162.9,91.3z M162,116.3v6.7h15.3v2.4h-32.6V123
		h14.7v-6.7h-11.6v-2.2h11.6v-6.2h-10v-2.2h22.9v2.2h-10.4v6.2h11.8v2.2H162z"/>
	<path d="M183,116c2.8,2.2,6.6,6,8.6,8.3l-2.2,2c-1.9-2.5-5.8-6.3-8.2-8.7L183,116z"/>
	<path d="M227.6,100.2c-0.3-1.1-1.1-2.6-1.8-3.9H224c-1.1,1.6-2.2,3.1-3.4,4.2c-0.5-0.5-1.3-1.1-1.9-1.4c2.1-1.8,4.2-4.9,5.5-8
		l2.9,0.9c-0.1,0.2-0.5,0.3-0.7,0.3c-0.2,0.6-0.6,1.3-0.9,1.9h10.4v2h-7.4c0.6,1.1,1.2,2.4,1.5,3.2L227.6,100.2z M233.9,110.8h-10.3
		v15.5h-2.4V101h12.7V110.8L233.9,110.8z M231.5,102.8h-8v2.2h8V102.8z M223.7,109h8v-2.2h-8V109z M243.4,123.3h-11.8v1.5h-2.2
		v-11.9h14V123.3z M241.1,114.5h-9.7v2.7h9.6L241.1,114.5L241.1,114.5z M231.5,121.6h9.6v-2.7h-9.6V121.6z M242.1,92.1
		c-0.1,0.2-0.5,0.3-0.7,0.3c-0.3,0.6-0.6,1.3-0.9,1.9h13.4v2H245c0.8,1.1,1.6,2.2,2,3.2l-2.2,0.7c-0.6-1.1-1.5-2.7-2.6-4h-3.3
		c-1.2,1.5-2.5,2.8-3.8,3.9c-0.6-0.5-1.4-0.9-2-1.3c2.5-1.8,4.7-4.7,6-7.9L242.1,92.1z M251.4,101v22.3c0,2.8-1.2,3.1-7.3,3
		c-0.1-0.6-0.5-1.6-0.7-2.2c1.3,0,2.6,0.1,3.4,0.1c1.9,0,2.1,0,2.1-0.7v-12.6h-10.6v-9.7L251.4,101L251.4,101L251.4,101z M249,102.8
		h-8.2v2.2h8.2V102.8z M240.8,109h8.2v-2.2h-8.2V109z"/>
	<path d="M291.1,117v2.5h-16v6.9h-2.6v-6.9H257V117h15.6v-3.8h-12V98.1h3.6c-0.7-1.5-2.4-3.8-3.8-5.4l2.1-0.9c1.5,1.6,3.2,3.9,4,5.4
		c-0.8,0.6-1.4,0.7-1.8,1.1h8.5c-0.5-1.6-1.8-4.1-2.9-6l2.2-0.8c1.3,1.8,2.7,4.3,3.1,5.9l-2.1,0.8h6.9c1.4-1.8,3.2-4.7,4.2-6.8
		l3.1,1.2c-0.1,0.2-0.5,0.3-0.8,0.3c-0.8,1.5-2.2,3.5-3.5,5.3h4.3v15.3h-12.6v3.6L291.1,117L291.1,117L291.1,117z M263.1,100.4v4.3
		h9.5v-4.3H263.1z M263.1,111.2h9.5v-4.4h-9.5V111.2z M285.1,104.6v-4.3h-10v4.3H285.1z M285.1,111.2v-4.4h-10v4.4H285.1z"/>
	<path d="M326.8,107.2h-12.4l0.6,0.2c0,0.2-0.3,0.5-0.7,0.5c-0.9,6.8-4.1,13.6-11.7,17.5c-0.5-0.6-1.4-1.4-2-1.8
		c7.4-3.8,10.1-9.4,10.9-16.2h-14.4v-2.6h29.8L326.8,107.2C326.9,107.2,326.8,107.2,326.8,107.2z M321.2,96.9h-20.9v-2.6h20.9V96.9z
		 M321.6,91.3c1.5,1.6,3.3,4.2,4.2,6l-1.5,1.1c-0.7-1.8-2.6-4.4-4.1-6L321.6,91.3z M326.2,90c1.5,1.6,3.3,4.2,4.3,5.9l-1.5,0.9
		c-0.7-1.6-2.7-4.3-4.2-5.9L326.2,90z"/>
	<path d="M333.6,106.9h31.5v2.7h-30.2c-0.2,0.5-0.7,0.6-1.2,0.7L333.6,106.9z"/>
	<path d="M399.7,98.7c0,0.2-0.2,0.3-0.5,0.5c-1.4,4.7-3.3,9-5.5,12.6c1.6,0.9,3.4,2.1,4.8,3.1l-1.6,2.5c-1.4-1.1-3.3-2.2-4.8-3.3
		c-3.4,4.8-8,8.7-13.6,11.5c-0.5-0.6-1.4-1.5-2-1.9c5.5-2.6,10-6.3,13.4-10.8c-2.8-1.5-5.5-2.9-8.3-4l1.4-2.1
		c2.8,0.9,5.5,2.2,8.5,3.9c1.9-3.1,3.5-6.3,4.6-10h-12.9c-2.2,3.9-5.4,7.6-8.7,10.4c-0.6-0.5-1.5-1.3-2.1-1.8
		c4.9-3.8,9.6-10.6,11.9-17l3.5,0.8c-0.1,0.5-0.6,0.6-1.1,0.6c-0.6,1.3-1.4,3.1-2.1,4.5h12.6l0.6-0.1L399.7,98.7z"/>
	<path d="M435,109.2l1.9,1.1c-0.1,0.2-0.3,0.3-0.6,0.5c-2,4-5,7.1-8.8,9.5c4.2,1.9,9,3.2,14.4,4c-0.6,0.6-1.3,1.8-1.6,2.5
		c-5.8-0.8-11-2.5-15.4-4.8c-4.5,2.4-9.6,3.9-15,4.8c-0.3-0.6-0.9-1.8-1.5-2.4c5-0.7,9.9-2,14.1-4c-3.1-2.1-5.6-4.7-7.6-7.9l2-0.8
		H413v-2.2h21.5L435,109.2z M411.1,104.6v5.6h-2.5v-8h6.1c-0.6-1.4-1.6-3.4-2.6-5l2.2-0.6c1.2,1.6,2.4,3.9,2.8,5.3l-1.4,0.6h16
		c1.3-1.9,2.9-4.7,3.9-6.8l3,1.2c-0.1,0.2-0.5,0.3-0.7,0.3c-0.8,1.5-2.1,3.5-3.3,5.3h6.8v8h-2.5v-5.6h-27.8V104.6L411.1,104.6z
		 M439.1,93.6c-0.1,0.1-0.2,0.1-0.5,0.1c-0.1,0-0.2,0-0.5-0.1c-6.8,1.4-18.8,2.5-28.8,2.8c0-0.6-0.5-1.6-0.6-2.1
		c9.9-0.5,21.6-1.5,28.2-2.9L439.1,93.6z M417.4,111.5c1.8,2.9,4.5,5.4,7.9,7.3c3.2-1.9,5.9-4.3,7.7-7.3H417.4z M424.5,96
		c0.8,1.8,1.8,4.2,2.1,5.5l-2.5,0.6c-0.2-1.5-1.1-4-1.9-5.8L424.5,96z"/>
	<path d="M453.1,94.4c-0.1,0.3-0.5,0.6-0.9,0.6c-1.1,4.7-1.9,11.4-1.9,15.5c0,2.6,0.1,4.8,0.5,6.3c0.8-1.8,2.7-5.3,3.9-7.5l1.8,1.8
		c-2.8,4.9-4.5,8-4.5,9.5c0,0.5,0.1,0.9,0.3,1.5l-2.7,0.6c-0.9-2.7-1.8-6.8-1.8-12.1c0-4.8,0.7-11.4,1.9-16.9L453.1,94.4z
		 M458.6,102.9c3,0,7.5-0.1,10.2-0.2c-0.2-4.4-0.6-9.5-0.6-10.4l3.9,0.1c0,0.5-0.5,0.7-0.9,0.8c0.1,2,0.2,5.9,0.5,9.2
		c2.6-0.2,5.4-0.6,7.4-1.2l0.2,2.7c-2.1,0.5-4.8,0.8-7.6,1.1c0,0.2,0,0.8,0,3.1c0,8.1-1.8,14-9.2,17.6c-0.3-0.5-1.4-1.4-2-1.9
		c6.9-3.4,8.5-8.3,8.5-15.4v-3.1c-2.6,0.1-6.8,0.2-10.2,0.2L458.6,102.9L458.6,102.9z"/>
	<path d="M484.2,102c2.4,0.9,5.3,2.6,6.7,3.9l-1.5,2c-1.4-1.3-4.2-3-6.6-4.1L484.2,102z M483.8,124.3c1.8-3,4.3-8,6.1-12.4l2,1.5
		c-1.6,4.1-3.9,8.8-5.5,11.7c0.1,0.2,0.2,0.5,0.2,0.6s0,0.2-0.1,0.5L483.8,124.3z M486.2,91.7c2.2,1.1,5.2,2.8,6.6,4.2
		c-0.8,1.1-1.2,1.6-1.5,2c-1.4-1.4-4.2-3.2-6.6-4.4L486.2,91.7z M497,104.2v1.8c0,6-0.6,14.6-4.6,20.3c-0.6-0.5-1.5-0.9-2.1-1.2
		c3.9-5.5,4.3-13.5,4.3-19.1V95.9h10.3v-4.5l3.3,0.2c0,0.2-0.2,0.5-0.7,0.6v3.6h10.5V98h-21v4.1h4.1V99l3.1,0.2
		c0,0.2-0.2,0.5-0.7,0.6v2.5h6.9v-3.2c0.5,0,0.7,0,3.1,0.2c0,0.2-0.2,0.5-0.7,0.6v2.5h5.2v2.1h-5.2v5.5H501v-5.5
		C501.1,104.2,497,104.2,497,104.2z M513.5,112l1.6,0.7c-0.1,0.1-0.2,0.2-0.3,0.5c-1.3,3.2-3.4,5.8-6,7.9c2.7,1.5,5.8,2.7,9.3,3.2
		c-0.6,0.6-1.2,1.5-1.5,2.1c-3.8-0.7-7.1-2.1-9.9-4c-3,1.8-6.6,3.2-10.1,4c-0.2-0.6-0.7-1.6-1.3-2c3.3-0.6,6.7-1.8,9.4-3.4
		c-2-1.8-3.6-3.9-4.8-6.3l1.3-0.5h-3.8v-2.1H513L513.5,112L513.5,112z M502.2,114.3c1.1,2.1,2.7,4,4.6,5.5c2-1.5,3.6-3.3,4.8-5.5
		H502.2z M510.4,104.2h-6.9v3.5h6.9V104.2z"/>
	<path d="M533,93c-0.1,0.5-0.5,0.7-1.2,0.8c-0.3,4.4-0.6,14.3-0.6,20s2.8,8.3,7.5,8.3c4.6,0,9.3-2.2,13.6-7.2
		c0.5,0.6,1.3,1.8,1.8,2.2c-4.4,5-9.7,7.6-15.4,7.6c-6.8,0-10.4-4-10.4-11c0-4.7,0.3-16.4,0.6-21.1L533,93z"/>
</g>
<g>
	<path d="M97.3,149.1c-0.1,0.2-0.3,0.5-0.6,0.6c-4,12.2-10.2,20.1-20.6,25.4c-0.5-0.6-1.2-1.5-1.9-2c9.9-4.8,16-12.3,19.1-22.3H79.9
		c-2.1,3.4-5.2,6.7-8.5,9.3c-0.6-0.6-1.4-1.3-2.1-1.8c5.2-4,9.4-9.7,12-16.4l3.5,1.1c-0.1,0.5-0.6,0.6-1.1,0.6
		c-0.7,1.6-1.5,3.2-2.5,4.7h13.4l0.5-0.2L97.3,149.1z"/>
	<path d="M135.9,154.1c-0.1,0.1-0.2,0.3-0.6,0.5c-3.1,11.4-9.4,16.9-20.6,20.1c-0.3-0.6-1.1-1.6-1.6-2.1c10.3-2.6,16.6-7.9,19-16.6
		h-25v-2.6h26.1l0.5-0.2L135.9,154.1z M132.4,146.1h-21.5v-2.5h21.5V146.1z"/>
	<path d="M158.1,141.7l3.8,0.2c0,0.5-0.6,0.7-1.1,0.7v5.9h10.1l0.6-0.2l2.4,1.1c-0.1,0.1-0.2,0.3-0.5,0.5
		c-1.8,13.2-7.2,20.9-19.1,25.1c-0.5-0.6-1.2-1.6-1.8-2.2c11.3-3.9,16.4-10.8,17.7-21.5h-21.4v9.3h-2.6v-11.9h11.9L158.1,141.7
		L158.1,141.7L158.1,141.7z"/>
	<path d="M207.9,162c-3.9-2-9.2-4.5-13.3-6.1v18.9h-2.8V142l3.9,0.2c0,0.5-0.3,0.6-0.9,0.7V154l0.6-0.8c4.4,1.6,10.3,4.2,14.2,6.3
		L207.9,162z M203.9,144.3c1.8,1.4,4,3.9,5.3,5.5l-1.4,1.2c-1.2-1.6-3.4-4.2-5.2-5.5L203.9,144.3z M209,141c1.8,1.5,4.1,3.9,5.2,5.5
		l-1.4,1.2c-1.2-1.6-3.4-4.1-5.2-5.5L209,141z"/>
	<path d="M228.2,153.1c1.8,2.5,3.5,5.6,4.2,7.9l-2,0.9c-0.2-0.6-0.6-1.4-0.8-2.2c-1.2,0.1-2.4,0.1-3.5,0.2V176h-2.2v-16
		c-2.1,0.1-4,0.2-5.5,0.2c0,0.3-0.2,0.5-0.6,0.6l-0.6-2.8h2.7c0.8-1.1,1.8-2.1,2.6-3.4c-1.2-1.8-3.1-4-4.8-5.5l1.3-1.6
		c0.5,0.3,0.7,0.7,1.2,1.2c1.3-2.1,2.8-5.3,3.5-7.4l2.7,1.2c-0.1,0.2-0.5,0.3-0.7,0.3c-0.9,2.1-2.7,5.3-4.1,7.3
		c0.8,0.8,1.6,1.8,2.2,2.7c1.6-2.5,3.1-5,4.2-7.2l2.7,1.3c-0.1,0.2-0.5,0.3-0.8,0.3c-1.9,3.2-4.9,7.7-7.6,10.9l6.6-0.1
		c-0.6-1.3-1.4-2.6-2.2-3.8L228.2,153.1z M222.2,163.3c-0.1,0.2-0.3,0.5-0.7,0.5c-0.6,3.2-1.4,6.8-2.6,9c-0.6-0.3-1.4-0.7-1.9-0.9
		c1.1-2.1,1.9-5.8,2.4-9.2L222.2,163.3z M230.1,170.7c-0.3-2-1.4-5.2-2.5-7.5l1.9-0.6c1.2,2.4,2.2,5.5,2.6,7.4L230.1,170.7z
		 M243,165.9v6.7h9.5v2.4H231v-2.4h9.5v-6.7h-7.4v-2.4h7.4v-5.6l3.2,0.2c0,0.2-0.2,0.5-0.7,0.6v4.9h7.7v2.4L243,165.9L243,165.9z
		 M249.1,142.7l1.8,0.8c-0.1,0.1-0.2,0.3-0.5,0.5c-1.5,4.1-3.9,7.3-6.8,9.9c2.6,1.8,5.8,3.1,9.2,3.9c-0.6,0.6-1.3,1.5-1.6,2.1
		c-3.8-0.9-6.8-2.5-9.6-4.5c-2.7,1.9-5.6,3.3-8.9,4.5c-0.3-0.6-0.9-1.5-1.5-2c3-0.8,5.9-2.2,8.5-4.1c-2.4-2.2-4.2-4.9-5.5-8l1.8-0.6
		h-4.1v-2.4h16.7L249.1,142.7z M236.7,145.2c1.2,2.7,2.9,5.2,5.2,7.1c2.2-1.9,4.2-4.3,5.5-7.1H236.7z"/>
	<path d="M263,156.5v9.3l5.2-1.5c0,0.2,0.1,0.5,0.3,2.1c-4.4,1.4-9,2.9-11.9,3.8c0,0.3-0.2,0.6-0.6,0.6l-1.1-2.8
		c1.5-0.5,3.4-0.8,5.5-1.5v-10.1h-4.7V154h4.7v-8.5h-5V143h12.4v2.5h-4.9v8.5h4.6v2.4L263,156.5L263,156.5L263,156.5z M280.1,172.3
		h10.6v2.4h-24.2v-2.4h11.4v-5.9h-8.8v-2.2h8.8v-4.3h-8.6v-16.7h19.8v16.7h-9v4.4h9.3v2.2h-9.3V172.3L280.1,172.3z M271.4,145.2v5
		h6.3v-5H271.4z M271.4,157.6h6.3v-5.2h-6.3V157.6z M286.6,150.3v-5h-6.5v5H286.6z M286.6,157.6v-5.2h-6.5v5.2H286.6z"/>
	<path d="M327.9,149.9h-6.8c0.9,0.3,1.3,0.5,1.5,0.6c-0.1,0.2-0.5,0.5-0.9,0.5c-2.1,6.2-5.2,11-9.2,15c4.3,3.5,9.5,6.1,15.7,7.6
		c-0.6,0.6-1.4,1.8-1.8,2.6c-6.5-1.6-11.7-4.4-16.1-8.2c-4.3,3.5-9.5,6.2-16,8.1c-0.2-0.6-0.9-1.8-1.5-2.2
		c6.2-1.8,11.4-4.3,15.4-7.7c-4.1-4.2-7.2-9.4-9.4-15.5l1.5-0.6H293v-2.5h16v-6.7l3.3,0.2c0,0.2-0.2,0.5-0.7,0.6v5.9h16.1v2.5
		L327.9,149.9L327.9,149.9z M301.7,149.9c1.9,5.5,4.9,10.3,8.9,14.2c3.8-3.8,6.6-8.3,8.6-14.2H301.7z"/>
	<path d="M349.4,160.4h16v1.9h-34.2v-1.9h15.6v-2.5h-12.9v-1.8h12.9v-2.2H335v-1.8h11.8v-2.4h-15.5v-1.9h15.5v-2.4h-11.4v-1.8h11.4
		v-2.8l3.3,0.2c0,0.2-0.2,0.5-0.7,0.6v2h10.9v4.2h4.9v1.9h-4.9v4.2h-10.9v2.2h13.3v1.8h-13.3L349.4,160.4L349.4,160.4z M336.2,176
		v-11.9h24.4V176H358v-1.3h-19.5v1.3H336.2L336.2,176L336.2,176z M358.1,166.1h-19.5v2.5h19.5V166.1z M338.7,172.8h19.5v-2.6h-19.5
		V172.8z M349.4,145.2v2.4h8.3v-2.4H349.4z M349.4,149.7v2.5h8.3v-2.5H349.4z"/>
	<path d="M377.4,150c-0.3-1.1-1.1-2.7-1.8-4.1h-1.8c-1.1,1.6-2.2,3.1-3.4,4.2c-0.5-0.5-1.3-1.1-1.9-1.4c2.1-1.8,4.2-4.9,5.5-8
		l2.9,0.9c-0.1,0.2-0.5,0.3-0.7,0.3c-0.2,0.6-0.6,1.3-0.9,1.9h10.1v2.1h-7.3c0.6,1.2,1.3,2.5,1.6,3.3L377.4,150z M403.4,143.9v2.1
		h-8.8c0.8,1.2,1.8,2.4,2.1,3.3l-2.2,0.7c-0.6-1.2-1.6-2.8-2.7-4.1h-3.3c-0.7,0.9-1.5,1.9-2.4,2.7l1.8,0.1c0,0.2-0.2,0.5-0.7,0.6
		v2.4h15v7.2h-2.5v-5.2h-27.1v5.2H370v-7.2h14.6v-2.1c-0.6-0.3-1.3-0.7-1.8-1.1c2.4-1.8,4.7-4.6,5.9-7.7l2.9,0.8
		c-0.1,0.2-0.3,0.3-0.7,0.3c-0.3,0.6-0.6,1.3-1.1,1.9L403.4,143.9L403.4,143.9z M377.9,163.7v2.8h21v9.3h-2.6v-1.3h-18.6v1.3h-2.5
		v-19.7h21.1v7.5L377.9,163.7L377.9,163.7z M394.1,158.1h-16.2v3.5h16.2V158.1z M396.5,168.6h-18.6v4h18.6V168.6z"/>
	<path d="M414,156.5v9.3l5.2-1.5c0,0.2,0.1,0.5,0.3,2.1c-4.4,1.4-9,2.9-11.9,3.8c0,0.3-0.2,0.6-0.6,0.6l-1.1-2.8
		c1.5-0.5,3.4-0.8,5.5-1.5v-10.1h-4.7V154h4.7v-8.5h-5V143h12.4v2.5h-4.9v8.5h4.6v2.4L414,156.5L414,156.5L414,156.5z M431.1,172.3
		h10.6v2.4h-24.3v-2.4h11.4v-5.9H420v-2.2h8.8v-4.3h-8.6v-16.7h19.7v16.7h-8.8v4.4h9.3v2.2h-9.3V172.3z M422.4,145.2v5h6.3v-5H422.4
		z M422.4,157.6h6.3v-5.2h-6.3V157.6z M437.5,150.3v-5H431v5H437.5z M437.5,157.6v-5.2H431v5.2H437.5z"/>
	<path d="M477.9,153.2h-8v2.6c0,7.2-2.2,14.6-12.1,19c-0.6-0.6-1.3-1.4-1.9-1.9c9.5-4.2,11.4-10.8,11.4-17v-2.7H455v9.4h-2.7v-9.4
		H445v-2.6h7.4v-8.1l3.6,0.2c0,0.5-0.5,0.7-0.9,0.7v7.2h12.2v-8.7l3.6,0.2c0,0.3-0.3,0.6-0.9,0.7v7.7h8L477.9,153.2L477.9,153.2z"/>
	<path d="M483.2,156.4h31.5v2.7h-30.2c-0.2,0.5-0.7,0.6-1.2,0.7L483.2,156.4z"/>
	<path d="M542.6,170.7c1.5,0,5.5-0.2,8-0.6c0,0.8,0.1,1.9,0.1,2.7c-2.5,0.2-6.2,0.5-7.9,0.5h-9.4c-5.6,0-8.5-2.5-8.5-8v-22l3.8,0.2
		c-0.1,0.5-0.3,0.6-1.1,0.6v12.3c5.8-1.8,13.9-4.8,18.8-7.5l1.9,2.6c-0.1,0.1-0.3,0.1-0.5,0.1s-0.3,0-0.6-0.1
		c-4.6,2.2-13.2,5.5-19.6,7.4v6.3c0,3.9,1.8,5.3,5.8,5.3h9.2L542.6,170.7L542.6,170.7z M546.1,142.3c1.8,1.5,3.6,3.9,4.7,5.5
		l-1.4,1.1c-1.1-1.6-3-4.1-4.6-5.5L546.1,142.3z M550.8,140c1.8,1.5,3.6,3.9,4.7,5.5l-1.4,1.1c-1.1-1.6-3.1-4.1-4.6-5.5L550.8,140z"
		/>
	<path d="M584.9,145.8c-0.1,0.2-0.2,0.3-0.6,0.5c-2,4.8-4.5,8.9-7.5,12.9c4.1,3.3,10.3,8.9,13.9,12.8l-2.2,2
		c-3.3-3.9-9.4-9.5-13.3-12.7c-3.3,4.1-9,9.5-14.6,12.7c-0.5-0.6-1.3-1.5-1.9-2c10.5-5.8,18.8-16.4,22.1-24.7h-18.6v-2.6h20.1
		l0.6-0.2L584.9,145.8z"/>
</g>
<g>
	<path class="st1" d="M222.1,246.9h-36.5v62.9h60.6V271L222.1,246.9z M222.5,256.9l13.7,13.7h-13.7V256.9z M192.1,303v-49.4h23.7
		v23.8h23.6V303H192.1z"/>
	<path class="st2" d="M230.3,309.5c-0.5-4.3-2.8-8.1-6.3-10.6c0-0.6,0-1.4-0.1-2c-0.6-6.8-6.4-11.9-13.2-11.9c-0.5,0-0.9,0-1.4,0.1
		l0,0c-3.4-4.6-8.7-7.4-14.6-7.4c-0.6,0-1.3,0-1.9,0.1c-8.1,0.8-14.4,7-15.8,14.9c-6.7,3.1-10.8,10.2-10,17.7
		c0.4,3.1,1.6,6.1,3.4,8.6c3.2,4.4,8.5,7,14,7h4.8v-15.7h-9.6l18.2-18.2l18.2,18.2h-9.6v15.6h8.8c0.1,0,0.1,0,0.2,0
		c0.1,0,0.2,0,0.2,0c0.5,0,0.8,0,1.5-0.1l0,0l0,0c2.7-0.3,5.2-1.3,7.3-2.9l0.1-0.1c0.2-0.1,0.5-0.3,0.6-0.6l0,0l0.3-0.3l0.1-0.1
		l0.1-0.1C229.2,318.7,231,314.1,230.3,309.5z"/>
	<polygon class="st3" points="216.2,310.2 197.9,291.9 179.7,310.2 189.4,310.2 189.4,325.8 206.5,325.8 206.5,310.2 	"/>
	<g>
		<path class="st1" d="M216,218.5c-0.6,3.2-2.2,13-14.2,14.6l-0.9-2c6.5-0.9,10.3-3.4,12.1-10.5h-7c-1.8,2.2-3.2,3.7-4.7,4.5
			l-1.5-1.7c1.2-0.6,4.6-2.7,6.5-7.9l2.4,0.5c-0.2,0.6-0.5,1.2-1.2,2.3L216,218.5L216,218.5z"/>
		<path class="st1" d="M235.8,221.3c-0.5,4.2-1.3,10.6-12.9,11.7l-0.6-2c1.2,0,4.4-0.2,7.4-2c2.6-1.7,3.1-4.2,3.5-5.5h-13.4v-2.2
			H235.8L235.8,221.3z M234.7,216.7v2.1h-13.6v-2.1H234.7z"/>
		<path class="st1" d="M248.7,215.8v3h6.6v1.8c0,1.4-0.3,6.1-3.1,8.9c-1.8,1.7-4.5,3-9.2,3.5l-0.7-2.1c1.8-0.1,7.4-0.6,9.6-4.4
			c1.2-2,1.3-5.1,1.3-5.5h-10.8v4.7h-2.1v-6.8h6.4v-3L248.7,215.8L248.7,215.8L248.7,215.8z"/>
		<path class="st1" d="M266.1,215.8v5.1c4.4,1.3,8.9,3.7,9.9,4.3l-1,2.4c-2.5-1.7-6.4-3.5-8.9-4.3v10h-2.4v-17.5H266.1L266.1,215.8z
			 M271.8,220.4c-0.4-0.8-0.7-1.7-1.7-3l1.6-0.7c0.7,1.3,1.3,1.9,1.7,3L271.8,220.4z M274.6,219.2c-0.5-0.9-1-2.1-1.7-2.9l1.5-0.7
			c0.7,1,1.2,1.6,1.8,2.8L274.6,219.2z"/>
		<path class="st1" d="M277.8,223.7c0.5,0,0.6,0,1.6,0c0.4-0.5,0.8-1,1.2-1.6c-1.5-1.7-2.2-2.1-2.8-2.5l1-1.8
			c0.3,0.2,0.4,0.3,0.6,0.5c0.2-0.3,1-1.7,1.8-3.2l1.8,0.6c-0.5,0.9-1.3,2.4-2.2,3.9c0.6,0.6,0.7,0.7,0.8,0.9c0.7-1.2,1.2-1.8,2-3.1
			l1.8,0.8c-0.9,1.7-3.1,4.6-3.8,5.5l2-0.1c-0.2-0.6-0.2-0.7-0.4-1.2l1.6-0.6c0.4,1,0.7,2.3,1,3.6l-1.7,0.6c0-0.3-0.1-0.5-0.1-0.6
			c-0.2,0-0.8,0.1-1,0.1v8.5h-1.9v-8.3c-0.9,0.1-2.5,0.2-3.1,0.2L277.8,223.7z M280.4,226.9c0,0.6-0.2,3.4-0.7,5.5l-1.8-0.6
			c0.5-1.8,0.6-3.1,0.8-5.2L280.4,226.9z M285.2,226.5c0.4,1.4,0.6,2.5,0.6,4.3l-1.8,0.3c0-1.2-0.2-2.9-0.5-4.1L285.2,226.5z
			 M295.8,226.5v1.9h-4v2.8h4.7v1.8H285v-1.8h4.8v-2.8h-3.7v-1.9h3.7v-1.9h2v1.9H295.8z M288.3,217.8c0.5,0.6,1,1.6,2.5,2.8
			c1.6-1.4,2.1-2.1,2.5-2.8h-7.6V216h9.7v1.8c-0.3,0.6-0.8,2-3,4c2.1,1.3,3.7,1.5,4.4,1.6l-0.6,1.9c-2.8-0.7-4.3-1.6-5.4-2.2
			c-1.9,1.3-3.5,1.8-4.4,2.2l-0.9-1.8c0.6-0.2,1.9-0.6,3.8-1.7c-1-0.9-1.8-1.9-2.5-3.1L288.3,217.8z"/>
		<path class="st1" d="M297.4,230.3c0.6-0.2,0.6-0.2,2.5-0.7v-5.4h-2v-2h2v-4.1h-2.2v-2h6.4v2H302v4.1h1.8v2H302v4.7
			c0.6-0.2,1.3-0.5,2.1-0.8v1.9c-1.7,0.7-4.3,1.8-6.4,2.3L297.4,230.3z M304.9,215.7h11v9.4h-4.5v2h4.7v1.8h-4.7v2.2h5v1.9h-12.8
			v-1.7h5.8v-2.2h-4.6v-1.8h4.6v-2h-4.5V215.7L304.9,215.7z M306.7,217.6v2.1h2.6v-2.1H306.7z M306.7,221.2v2.2h2.6v-2.2H306.7z
			 M311.3,217.6v2.1h2.6v-2.1H311.3z M311.3,221.2v2.2h2.6v-2.2H311.3z"/>
		<path class="st1" d="M317.5,220v-2h8.2v-2.8h2.1v2.8h8.2v2h-2.8c-1.3,4.6-3.6,7.5-4.8,8.8c2.9,1.9,5.9,2.6,7.5,2.9l-1,2.1
			c-4.2-1-6.4-2.4-8-3.7c-3,2.3-6.4,3.1-8.2,3.7l-0.9-2.1c1.9-0.4,4.7-0.9,7.5-3c-2.6-2.5-4.2-5.8-4.9-8.8L317.5,220L317.5,220
			L317.5,220z M322.4,220c1.3,4.2,3.4,6.6,4.3,7.4c2.2-2.1,3.6-4.8,4.3-7.4H322.4z"/>
		<path class="st1" d="M338.8,216.3h6.7v-1.1h1.9v1.2h6.7v2.2h1.8v1.4h-1.8v2.3h-6.7v0.7h7.1v1.3h-7.1v0.7h8.5v1.6h-18.6V225h8.2
			v-0.7h-7.2V223h7.1v-0.7h-6.7v-1.4h6.7V220h-8.2v-1.4h8.2v-0.9h-6.7v-1.4L338.8,216.3L338.8,216.3z M339.3,227.4h14.6v6.4h-2v-0.6
			h-10.6v0.6h-1.9v-6.4H339.3z M341.2,228.8v0.9h10.6v-0.9H341.2z M341.2,230.9v0.9h10.6v-0.9H341.2z M347.4,217.6v0.9h4.7v-0.9
			H347.4z M347.4,219.9v0.9h4.7v-0.9H347.4z"/>
		<path class="st1" d="M360.6,218.1c-1,1.6-1.8,2.1-2.2,2.3l-1.5-1.4c1.4-0.9,2.8-2.6,3.1-4.1l1.9,0.4c-0.1,0.3-0.1,0.5-0.4,1h4.4
			v1.8H363c0.2,0.4,0.5,0.8,0.6,1.3l-1.8,0.7c-0.2-0.6-0.6-1.6-0.7-2H360.6L360.6,218.1z M366.5,219.9l-1.2-0.7
			c0.6-0.5,2-1.8,2.7-4.1l1.8,0.3c-0.1,0.3-0.1,0.6-0.4,1h6v1.8h-3.9c0.3,0.4,0.6,0.7,0.7,1.4l-1.8,0.7c-0.2-0.4-0.6-1.4-0.9-2.1
			h-0.9c-0.6,0.8-0.9,1.4-1.4,1.8v0.9h8v3.8h-1.9v-2.1h-14v2.1h-1.8v-3.8h8V220L366.5,219.9L366.5,219.9z M359.9,223.3h12.9v4.1
			h-10.9v1.2H374v5.2h-2V233h-10.4v0.8h-1.9v-10.5H359.9z M361.9,225.9h8.9v-1.3h-8.9V225.9z M361.9,231.4h10.4V230h-10.4V231.4z"/>
		<path class="st1" d="M376.6,230.3c0.6-0.2,0.6-0.2,2.5-0.7v-5.4h-2v-2h2v-4.1h-2.2v-2h6.4v2h-2.1v4.1h1.8v2h-1.8v4.7
			c0.6-0.2,1.3-0.5,2.1-0.8v1.9c-1.7,0.7-4.3,1.8-6.4,2.3L376.6,230.3z M383.9,215.7h11v9.4h-4.5v2h4.7v1.8h-4.7v2.2h5v1.9h-12.7
			v-1.7h5.8v-2.2h-4.6v-1.8h4.6v-2H384L383.9,215.7L383.9,215.7z M385.9,217.6v2.1h2.6v-2.1H385.9z M385.9,221.2v2.2h2.6v-2.2H385.9
			z M390.4,217.6v2.1h2.6v-2.1H390.4z M390.4,221.2v2.2h2.6v-2.2H390.4z"/>
		<path class="st1" d="M409.1,215.8h2.3v3.9h3.4v2h-3.4v1.7c0,1.3-0.2,4.9-2.8,7c-2,1.7-4.9,2.2-6.4,2.5l-0.9-2
			c1.9-0.3,4.6-0.7,6.2-2.4c1.5-1.5,1.7-4.1,1.7-5.1v-1.8h-6.4v5.1h-2.3v-5.1h-3.4v-2h3.4v-3.8h2.3v3.8h6.4L409.1,215.8L409.1,215.8
			z"/>
		<path class="st1" d="M434.6,223.1v2.4H417v-2.4H434.6z"/>
		<path class="st1" d="M441,216.8v5.9c3.9-0.7,6.7-2,9.2-3.4l1.3,2c-4.2,2.1-7.7,3-10.5,3.6v4.3c0,0.8,0.4,1,1.7,1h6.7
			c2.1,0,3.2-0.2,3.9-0.3l0.1,2.4c-0.7,0.1-1.8,0.2-4.2,0.2h-6.8c-2.7,0-3.6-0.8-3.6-2.7v-13H441z M451.2,219.3
			c-0.6-1.5-0.7-2-1.5-3.1l1.5-0.6c0.6,1,1,2,1.5,3.1L451.2,219.3z M453.8,218.8c-0.6-1.7-0.9-2.3-1.4-3.1l1.5-0.6
			c0.5,0.8,1,1.9,1.4,3L453.8,218.8z"/>
		<path class="st1" d="M456.8,231c4.3-1.6,9.2-5.9,11.4-11.8h-10.4v-2.1h13.3c-0.3,1.2-0.9,4.3-3.8,8.2c2.3,1.8,4.5,3.8,6.7,5.9
			l-1.8,1.8c-2.2-2.6-5.3-5.3-6.2-6.1c-2.3,2.6-4.8,4.7-8,6L456.8,231z"/>
	</g>
	<g>
		<path class="st1" d="M270.6,336.1c-0.8,5.3-3.9,7.4-5.9,8.5l-1.5-1.8c1.4-0.6,3.2-1.7,4.3-4.6h-13.9v-2.1H270.6L270.6,336.1z
			 M254.4,350.5c3.6-1.4,5.9-3.6,6-10.5l2.4,0.1c-0.2,7.1-2.7,10.2-6.9,12.2L254.4,350.5z"/>
		<path class="st1" d="M275,345.6c-0.3-1.7-0.7-3.1-1.6-4.6l1.8-0.6c0.9,1.9,1.4,3.1,1.8,4.7L275,345.6z M275,350.7
			c6.3-1.2,8.5-4,9.6-10.8l2.1,0.4c-1,4.8-2.2,10.3-10.9,12.2L275,350.7z M279.2,344.8c-0.3-2.2-0.8-3.6-1.4-4.6l1.8-0.5
			c0.8,1.8,1.3,3.5,1.5,4.6L279.2,344.8z"/>
		<path class="st1" d="M291.8,350c7.7-1.3,10.4-4.5,11.2-11.1h-12.9v-2.1h13.2c0-0.1-0.1-0.2-0.1-0.4c0-1.2,0.9-2,2-2
			c1.2,0,2,0.9,2,2s-0.7,2-2,2c-0.2,2.4-0.9,5.5-2.2,7.4c-2.1,3.7-6.2,5.4-10.4,6.3L291.8,350z M304.5,336.4c0,0.6,0.5,0.9,0.9,0.9
			c0.6,0,0.9-0.4,0.9-0.9s-0.4-0.9-0.9-0.9C304.9,335.4,304.5,335.9,304.5,336.4z"/>
		<path class="st1" d="M325.4,336.8c-0.5,5.8-2.2,13.4-13,15.4l-0.8-2.1c9.6-1.5,10.7-7.7,11.3-11.2h-13v-2.1L325.4,336.8
			L325.4,336.8z"/>
		<path class="st1" d="M342.8,339.4c-0.6,3.4-1.8,5.2-4.8,7l-1.3-1.7c2.4-1.4,3.1-2.8,3.4-3.5h-11v-1.9L342.8,339.4L342.8,339.4z
			 M329.5,351c3.2-1.6,4.9-3.6,4.8-8.5h2.1c-0.3,5.8-2.1,8.2-5.6,10L329.5,351z"/>
		<path class="st1" d="M356.3,352.5H354v-9c-2.2,1.6-4.7,2.6-7.3,3.5l-1.2-1.9c2.7-0.8,8.6-2.8,14.2-9.7l2.1,1.4
			c-0.7,0.7-2.9,3-5.6,5.2L356.3,352.5L356.3,352.5z"/>
		<path class="st1" d="M368.8,346.9h-2.3v-10.7h2.3V346.9z M378.7,343.3c0,8-4.7,8.9-10.5,9.4l-0.7-2.2c2.9-0.2,4.7-0.5,6.5-1.4
			c2.3-1.2,2.4-4.1,2.4-4.8v-8.6h2.3L378.7,343.3L378.7,343.3L378.7,343.3z"/>
		<path class="st1" d="M388.8,341.3c-1.5-1-4-2.3-6-2.9l1-1.9c1.8,0.5,3.5,1,6.2,2.7L388.8,341.3z M383.1,349.6
			c7.4-0.6,11.7-3.4,14.4-11.7l2.2,0.9c-2.9,8.5-7.1,12.1-15.9,13.3L383.1,349.6z"/>
		<path class="st1" d="M402.1,342.7c4.4-2.3,5.7-6.3,6.1-7.5l2.4,0.4c-0.2,0.6-0.6,1.5-1,2.5h8.5c-1.7,12.1-10.5,13.7-13.9,14.2
			l-0.9-2c6.5-0.8,10.3-3.5,12.1-10.2h-7.1c-1.7,2.2-3.1,3.2-4.6,4.2L402.1,342.7z M415.3,337.6c-0.5-1.7-0.6-1.9-0.9-2.9l1.6-0.4
			c0.2,0.5,0.6,1.2,1,2.9L415.3,337.6z M418.1,337.5c-0.5-1.6-0.7-2.3-1-2.8l1.6-0.4c0.3,0.6,0.6,1.5,1,2.8L418.1,337.5z"/>
	</g>
	<path class="st2" d="M288.3,305.9c-3,3.1-6.9,4.5-11.6,4.5s-8.7-1.5-11.7-4.5c-2.7-2.8-4.3-6.8-4.3-11.5v-47h9.8v47.4
		c0,4.4,2.8,6.7,6.1,6.7c3.2,0,6.1-2.2,6.1-6.7v-47.4h9.8v47C292.6,299.2,291.1,303.1,288.3,305.9z"/>
	<path class="st2" d="M326.6,306.9c-2.1,2.6-4.6,3.6-8.1,3.6c-1.7,0-3.2-0.5-4.6-1.3c-0.9-0.6-1.9-1.5-2.7-2.4V326H302v-62.3h9v3.4
		c0.5-0.8,2.1-2.3,3.1-2.9c1.4-0.7,3-1.3,4.6-1.3c3.5,0,6.1,0.9,8.1,3.6c3,3.8,3.2,10.2,3.2,20.2
		C329.9,296.7,329.6,303.1,326.6,306.9z M319.1,273c-0.7-1.2-2-1.8-3.4-1.8s-2.3,0.5-3.1,1.4c-0.8,0.9-1.5,2.3-1.5,4.3v19.9
		c0,2,0.5,3.2,1.5,4.3c0.7,0.7,1.8,1.3,3.1,1.3c1.5,0,2.6-0.6,3.4-1.8c1.3-1.6,1.5-5,1.5-13.7C320.7,278,320.4,274.6,319.1,273z"/>
	<path class="st1" d="M348,256.3V274h14.1v8.9H348v26.9h-9.8v-62.3h26.2v8.9L348,256.3L348,256.3z"/>
	<path class="st1" d="M371.7,309.8v-44.9h9.2v44.9H371.7z"/>
	<path class="st1" d="M394.5,307c-2.9-2.2-4.6-5.7-4.6-11.2v-48.4h9.2v47.7c0,4.2,2,6.2,6.3,6.2v8.3
		C401.1,309.8,397.5,309.4,394.5,307z"/>
	<path class="st1" d="M411.4,309.8v-44.9h9.2v44.9H411.4z"/>
	<path class="st1" d="M448.2,309.8v-33.2c0-3.6-2-5.3-4.5-5.3s-4.5,1.8-4.5,5.3v33.2H430v-46.2h8.9v3.4c0.7-1,1.9-2.3,3.1-2.9
		c1.4-0.7,3-1.3,4.6-1.3c3.8,0,6.3,1.2,8.4,3.6c1.8,2.1,2.6,4.6,2.6,9.9v33.3L448.2,309.8L448.2,309.8z"/>
	<path class="st1" d="M492.9,310.6c0,6-1.5,9.4-4,11.9c-2.3,2.3-6.2,3.8-9.9,3.8c-3.9,0-7.5-1.2-9.9-3.6c-2.9-2.8-3.9-6.4-3.9-10.2
		h9.2c0,1.8,0.4,3.2,1.3,4.3c0.7,0.9,2,1.5,3.4,1.5c1.5,0,2.5-0.5,3.2-1.5c0.8-1.2,1.4-2.8,1.4-5.7v-8c-0.6,0.8-1.6,1.8-2.5,2.4
		c-1.4,0.8-2.8,1.3-4.6,1.3c-3.5,0-5.8-1-8-3.4c-3-3.5-3.7-8.6-3.7-18.6c0-9.9,0.6-15.1,3.7-18.5c2.1-2.3,4.3-3.4,8-3.4
		c1.8,0,3.5,0.4,4.8,1.3c1,0.6,2,1.6,2.7,2.4v-3h9v46.9L492.9,310.6L492.9,310.6z M483.6,276.8c0-2-0.5-3.2-1.5-4.3
		c-0.8-0.8-1.8-1.4-3.1-1.4c-1.4,0-2.6,0.6-3.4,1.8c-1.3,1.6-1.5,4.4-1.5,12s0.3,10.5,1.5,12c0.8,1,2.1,1.8,3.4,1.8s2.3-0.4,3.1-1.3
		c0.9-0.9,1.5-2.3,1.5-4.3V276.8z"/>
	<circle class="st2" cx="376.6" cy="252" r="6.3"/>
	<circle class="st2" cx="416.1" cy="252" r="6.3"/>
</g>
</svg>
