<?xml version="1.0" encoding="utf-8"?>
<!-- Generator: Adobe Illustrator 23.1.1, SVG Export Plug-In . SVG Version: 6.00 Build 0)  -->
<svg version="1.1" id="レイヤー_1" xmlns="http://www.w3.org/2000/svg" xmlns:xlink="http://www.w3.org/1999/xlink" x="0px"
	 y="0px" width="660px" height="385px" viewBox="0 0 660 385" style="enable-background:new 0 0 660 385;" xml:space="preserve">
<style type="text/css">
	.st0{fill:#F8E695;}
	.st1{fill:#282322;}
	.st2{fill:#4C77B9;}
	.st3{fill:#FFFFFF;}
</style>
<g>
	<rect y="0" class="st0" width="660" height="385"/>
</g>
<g>
	<path d="M84,44c-0.1,0.2-0.3,0.5-0.6,0.5c3,4.2,8.6,8.2,13.4,10.4c-0.6,0.6-0.9,1.2-1.3,1.8c-4.8-2.4-10.4-6.6-13.3-10.7
		c-2.6,3.8-7.6,8.1-13,10.8c-0.2-0.5-0.7-1.2-1.2-1.6c5.4-2.6,10.7-7.2,13-11.4L84,44z M69.4,61.5v-1.9h25.7v1.9H80.3l0.3,0.1
		c-0.1,0.2-0.3,0.3-0.7,0.3c-0.9,2-2.2,4.8-3.6,7.1c4.1-0.1,8.8-0.2,13.5-0.5c-1.4-1.6-3-3.2-4.5-4.6l1.8-0.9c2.9,2.5,6,5.9,7.4,8.1
		l-1.8,1.2C92,71.7,91.7,71,91,70.2c-7.4,0.5-15.4,0.7-20.3,0.8c-0.1,0.3-0.2,0.5-0.6,0.5L69.5,69c1.3,0,2.8,0,4.5-0.1
		c1.3-2.2,2.7-5.3,3.6-7.6h-8.2C69.4,61.4,69.4,61.5,69.4,61.5z M74.6,53.6h14.9v1.9H74.6V53.6z"/>
	<path d="M110.8,49.1v1.8H98.5v-1.8H110.8z M109.5,61.6v9h-7.7V72H100V61.5L109.5,61.6L109.5,61.6z M99.9,55v-1.8h9.6V55H99.9z
		 M99.9,59v-1.8h9.6V59H99.9z M109.6,45v1.8h-9.4V45H109.6z M107.7,63.4h-5.9v5.5h5.9V63.4z M127.4,54.6v2h-7.1v15.7h-2V56.6h-7.4
		v-2h7.4V44l2.7,0.2c0,0.2-0.2,0.3-0.6,0.5v10C120.3,54.6,127.4,54.6,127.4,54.6z"/>
	<path d="M157.5,62v1.7h-3.2v5.5h-2v-1.4h-7.9v2c0,1.4-0.5,1.9-1.3,2.2c-0.9,0.3-2.6,0.3-5.2,0.3c-0.1-0.6-0.5-1.3-0.7-1.8
		c1.2,0,2.2,0.1,3.1,0.1c1.8,0,2,0,2-0.7v-2.1h-10.2V66h10.2v-2.3h-12.9v-1.8h12.9v-2.2h-10v-1.6h10v-2h-9v-5.9h9v-1.9H130v-1.8
		h12.3v-2.6L145,44c0,0.2-0.2,0.5-0.6,0.5v2h12.6v1.8h-12.6v1.9h9.4v5.9h-9.4v2h9.9V62H157.5z M135.3,54.6h6.9v-3h-6.9V54.6z
		 M151.7,51.7h-7.3v2.9h7.3V51.7z M144.4,59.7v2.4h7.9v-2.4H144.4z M152.2,66.2v-2.5h-7.9v2.5H152.2z"/>
	<path d="M187.9,49.1h-2.6c-0.8,2.2-2.1,4.3-3.8,5.9c2,1.5,4.3,2.7,6.8,3.3c-0.5,0.5-0.9,1.2-1.3,1.8c-2.6-0.7-4.9-2-6.9-3.8
		c-2,1.8-4.5,3-7.3,4c-0.2-0.3-0.6-0.9-0.9-1.4c-0.5,1.4-0.9,2.7-1.5,3.6l-1.5-0.7c0.6-1.3,1.3-3.3,1.8-5.2h-3.2v13.3
		c0,2.2-0.9,2.4-4.8,2.4c-0.1-0.6-0.3-1.4-0.6-1.9c0.7,0,1.6,0.1,2.1,0.1c1.2,0,1.4,0,1.4-0.6V59.1c-1.2,3.1-2.9,6.3-4.7,8
		c-0.2-0.6-0.7-1.4-1.1-1.8c1.9-1.9,4-5.5,5.2-8.7h-4.8v-1.8h8.6c-1.5-1.4-4.5-3.3-7.1-4.4l1.3-1.3c0.9,0.5,2,0.9,3,1.5
		c1.3-0.9,2.6-2.1,3.5-3.3h-9v-1.8h10.6l0.3-0.1l1.5,0.9c-0.1,0.1-0.3,0.2-0.5,0.3c-1.2,1.6-3.1,3.5-5,4.9c1.1,0.6,2,1.4,2.7,1.9
		l-1.3,1.4h3.1l1.1,0.1c0,0.5-0.7,2.9-0.9,3.6c2.5-0.8,4.8-2,6.7-3.5c-1.2-1.2-2.2-2.6-3.1-4.1c-0.7,0.9-1.5,1.9-2.4,2.7
		c-0.5-0.3-1.2-0.9-1.6-1.2c2.1-1.9,4.2-5.2,5.3-8.5l2.5,0.7c-0.1,0.2-0.3,0.3-0.6,0.3c-0.3,0.7-0.6,1.5-0.9,2.2H188L187.9,49.1
		L187.9,49.1z M185.4,61.8l1.2,0.2c0,0.2,0,0.5-0.1,0.6c-0.6,5.6-1.1,8-1.9,8.9c-0.6,0.6-1.4,0.7-3.1,0.7c-0.6,0-1.4,0-2.1-0.1
		c-0.1-0.6-0.2-1.4-0.6-1.9c1.4,0.1,2.7,0.1,3.1,0.1c0.6,0,0.7-0.1,1.1-0.3c0.6-0.6,1.1-2.4,1.5-6.6h-5c-1.1,3.5-3.1,6.8-7.6,8.8
		c-0.2-0.5-0.7-1.2-1.2-1.5c3.9-1.5,5.8-4.2,6.8-7.3h-4.7v-1.7h5.3c0.2-1.1,0.5-2.2,0.6-3.3l2.7,0.2c-0.1,0.2-0.3,0.3-0.6,0.5
		c-0.1,0.8-0.2,1.8-0.5,2.7L185.4,61.8L185.4,61.8z M176.8,49.1l-0.1,0.2c0.8,1.6,2,3.1,3.4,4.5c1.3-1.4,2.4-2.9,3.1-4.7
		C183.3,49.1,176.8,49.1,176.8,49.1z"/>
	<path d="M203.6,60.6h-9.2c-0.1,3.8-0.6,8.6-2.8,11.9c-0.3-0.3-1.2-0.9-1.6-1.3c2.2-3.3,2.5-8.1,2.5-11.7v-8.5h11.3v9.5
		C203.8,60.6,203.6,60.6,203.6,60.6z M204.6,45.6v1.9h-13.7v-1.9H204.6z M201.5,52.9h-7.2v5.8h7.2V52.9z M219.3,54.6v1.9h-3.6v15.9
		h-2v-16h-5.7c-0.1,4.8-0.9,11.2-5.3,15.7c-0.3-0.5-0.9-1.2-1.5-1.4c4.3-4.6,4.8-10.8,4.8-15.5v-8.1l1.6,0.5c3.4-0.8,7.1-2,9.2-3.2
		l2,1.6c-0.1,0.1-0.3,0.2-0.6,0.1c-2.5,1.2-6.6,2.4-10.2,3.2v5.3C208,54.6,219.3,54.6,219.3,54.6z"/>
	<path d="M237.2,49.5c-0.1,0.3-0.3,0.6-0.7,0.6c-1.1,9.5-4.3,17.8-9.4,17.8c-2.6,0-4.9-2.6-4.9-7.4c0-7.4,5.6-13.5,13.9-13.5
		c8.9,0,12.7,5.5,12.7,11.6c0,7.3-4.2,10.8-11.7,12.6c-0.3-0.6-0.7-1.3-1.3-1.8c7.1-1.4,10.7-4.8,10.7-10.6c0-5-3.2-9.6-10.4-9.6
		c-0.3,0-0.6,0-0.9,0.1L237.2,49.5z M234.3,49.1c-6.2,0.7-10.1,5.9-10.1,11.3c0,3.3,1.4,5.4,2.9,5.4
		C230.9,65.7,233.5,57.5,234.3,49.1z"/>
	<path d="M277.4,52.8c-0.1,0.3-0.5,0.6-0.8,0.6c-0.3,2.1-0.8,4.4-1.4,6.2c1.6,0.7,3.4,1.5,5.2,2.4l-0.9,2c-1.6-0.8-3.2-1.6-4.8-2.2
		c-1.5,4.4-3.5,7.6-6.8,9.7c-0.5-0.5-1.2-0.9-1.8-1.3c3.2-2.1,5.3-5,6.7-9.4c-3.1-1.2-5.9-2-8.1-2.2c-2.1,7.7-4,9.7-7.7,9.7
		c-3.7,0-4.4-2.9-4.4-4.8c0-4.7,4.9-6.9,10.4-6.9c0.6-2.5,1.2-5.5,1.6-8.7c-1.4,0.1-6.3,0.5-8.7,0.6c-0.1,0.2-0.3,0.3-0.6,0.5
		l-0.3-2.5c2.7-0.1,8.3-0.5,10.2-0.6c0.3,0,0.5-0.2,0.6-0.3l1.9,1.2c-0.1,0.2-0.5,0.3-0.7,0.6c-0.6,3.4-1.2,6.9-1.9,9.5
		c2.4,0.2,5.2,0.9,8.2,2.1c0.6-1.8,0.9-4.2,1.3-6.7L277.4,52.8z M262.2,58.4c-4.4,0.1-8,1.8-8,5c0,1.8,0.8,2.9,2.2,2.9
		C258.8,66.4,260.2,65.6,262.2,58.4z"/>
	<path d="M294.4,44.8c-0.1,0.2-0.5,0.6-0.9,0.6c-0.2,1.4-0.6,2.9-0.7,4.2c3-0.2,6.3-0.7,9-1.5l0.3,2c-2.9,0.7-6.2,1.2-9.7,1.5
		c-1.5,5.9-3.5,10.7-6.6,15.1l-2-0.8c2.8-4,4.9-8.6,6.2-14.2h-6v-2h3.6c0.9,0,1.9,0,2.8,0c0.3-1.6,0.6-3.3,0.8-5.2L294.4,44.8z
		 M302.5,57.9c0,2.5,0.2,4.2,0.5,6.3c1.9,0.7,4.5,2,6.6,3.5l-1.1,1.9c-1.8-1.3-3.8-2.5-5.5-3.2c0,3.1-1.2,5.5-5.6,5.5
		c-3.4,0-6-1.5-6-4.4c0-3.1,3.2-4.5,6-4.5c1.1,0,2.2,0.2,3.4,0.6c-0.1-1.9-0.3-4-0.3-5.4L302.5,57.9z M300.9,65.5
		c-1.3-0.6-2.6-0.7-3.6-0.7c-1.8,0-4,0.7-4.1,2.7c0,1.8,1.8,2.6,4.1,2.6c2.2,0,3.6-1.1,3.6-3.1C301,66.4,301,65.9,300.9,65.5z
		 M309.3,54.7c-3.4,0-7.6,0.6-10.8,1.5l-0.3-1.9c3.5-0.9,7.7-1.6,11-1.6L309.3,54.7z"/>
	<path d="M339.7,50.9c-2.8,0.7-6.6,1.4-10.2,1.8c1.2,4.2,2.5,6.7,5.8,8l-1.5,1.8c-1.4-1.1-2.9-1.9-6.8-2.1l-0.3-1.8
		c1.5,0.1,2.7,0.3,3.4,0.5c-1.1-1.3-1.9-3.2-2.7-6.3c-1.4,0.1-3.2,0.2-5,0.2c-2,0-5.3,0-7.2-0.1v-2.1c1.8,0.1,4.4,0.1,7.2,0.1
		c1.6,0,3.3,0,4.6-0.1c-0.3-1.6-0.7-4-1.1-6.3l3.3,0.1c0,0.3-0.3,0.6-0.7,0.7c0.2,1.8,0.6,3.6,0.8,5.4c3.5-0.3,7.5-0.9,10.2-1.8
		L339.7,50.9z M334.3,71.1c-1.5,0.1-3,0.1-5.6,0.1c-6.5,0-10.9-1.9-10.9-6.1c0-1.8,1.1-3.5,2.8-5.2l1.6,1.3
		c-1.4,1.1-2.2,2.6-2.2,3.8c0,3,4,4,8.8,4c2.7,0,4.2-0.1,5.8-0.1L334.3,71.1z"/>
	<path d="M346.3,48.7c1.9,0.1,4.4,0.1,6.6,0.1c1.4,0,2.9,0,4.2-0.1c0-1.5-0.1-3.2-0.1-4.3l3.1,0.1c0,0.3-0.3,0.6-0.8,0.6
		c0,0.6,0,2.9,0,3.3c3.5-0.2,7.2-0.6,10.2-1.2l0.3,2c-3,0.6-6.6,0.9-10.5,1.2c0,1.8,0.1,3.8,0.1,5.6c3-0.2,6.1-0.6,8.7-1.2l0.2,2
		c-2.6,0.6-5.8,0.9-8.9,1.1l0.2,5.2c2.8,0.9,5.8,2.5,9,4.8L367,70c-2.8-2.1-5.4-3.6-7.6-4.5c0,0.6,0,1.1,0,1.4
		c0,2.9-1.8,4.6-5.5,4.6c-3.9,0-6.8-1.6-6.8-4.5c0-3,3.3-4.6,6.8-4.6c0.9,0,2,0.1,3.2,0.3c0-1.3-0.1-2.9-0.1-4.6c-0.9,0-2,0.1-3,0.1
		c-5.3,0-6.8-0.8-6.8-2.6c0-1.2,0.8-2.1,2.9-3.3l1.5,0.9c-1.4,0.7-2.1,1.4-2.1,2c0,0.9,1.4,1.1,5.4,1.1c0.6,0,1.4,0,2,0l-0.2-5.6
		c-1.3,0.1-2.9,0.1-4.2,0.1c-1.9,0-4.7,0-6.6-0.1v-1.9L346.3,48.7L346.3,48.7z M357.7,64.7c-1.2-0.3-2.4-0.6-3.4-0.6
		c-2.4,0-4.7,0.9-4.7,2.8s2.1,2.7,4.8,2.7c2.5,0,3.3-1.1,3.3-3.2V64.7z"/>
	<path d="M374.5,58.5c1.3-1.2,4.4-4.6,6.1-6.3c2.4-2.6,3.5-3.2,5-3.2c1.8,0,3.1,1.2,5.9,4.4c2.1,2.7,7.2,8.2,11.6,12.2l-1.6,1.9
		c-4.2-3.8-9.2-9.5-11-11.8c-2.6-3.2-3.5-4.4-4.8-4.4c-1.2,0-2.1,0.9-4.1,3.1c-1.1,1.2-3.5,4-4.8,5.4c0,0.5-0.1,0.7-0.3,0.8
		L374.5,58.5z"/>
	<path d="M102.9,109H96c-0.1,0.1-0.3,0.1-0.6,0.1c-1.2,4.2-3.2,7.4-5.9,9.9c4.5,1.8,8.6,3.5,11.5,5.3l-1.8,2.1
		c-2.8-1.8-7.2-3.8-11.9-5.5c-4.1,2.9-9.4,4.6-16,5.5c-0.2-0.6-0.9-1.6-1.5-2.1c5.9-0.7,10.8-2.1,14.6-4.5c-2.6-0.9-5.3-1.8-7.7-2.6
		c-0.3,0.6-0.6,1.2-0.8,1.6l-2.6-0.6c1.3-2.4,2.9-5.6,4.4-9.2h-9.2v-2.5h10.3c1.1-2.5,2-4.8,2.9-6.8l3.2,0.6
		c-0.1,0.3-0.3,0.5-0.8,0.5c-0.7,1.8-1.6,3.8-2.5,5.8h21.1v2.5L102.9,109L102.9,109z M72.4,98.4v5.8h-2.6V96h14.4v-4.7l3.4,0.2
		c0,0.2-0.2,0.5-0.7,0.6v4h14.6v8.1h-2.7v-5.8C98.9,98.4,72.4,98.4,72.4,98.4z M80.7,109c-0.9,2.1-1.9,4.2-2.8,6.1
		c2.9,0.7,6,1.8,9.2,2.9c2.7-2.2,4.6-5.2,5.8-9C92.8,109,80.7,109,80.7,109z"/>
	<path d="M125.5,91.3c-0.1,0.3-0.5,0.6-0.7,0.6c3.6,4.9,10.5,10.7,16.3,13.7c-0.6,0.6-1.3,1.5-1.8,2.2c-5.9-3.4-12.7-9.2-16.2-14.1
		c-3.1,4.7-9.3,10.5-15.9,14.3c-0.3-0.6-1.1-1.5-1.6-2c6.7-3.8,13.2-10,16.1-14.9L125.5,91.3z M124.6,116.3v6.7h15.3v2.4h-32.6V123
		H122v-6.7h-11.6v-2.2H122v-6.2h-10v-2.2h22.9v2.2h-10.4v6.2h11.8v2.2H124.6z"/>
	<path d="M145.6,116c2.8,2.2,6.6,6,8.6,8.3l-2.2,2c-1.9-2.5-5.8-6.3-8.2-8.7L145.6,116z"/>
	<path d="M190.2,100.2c-0.3-1.1-1.1-2.6-1.8-3.9h-1.8c-1.1,1.6-2.2,3.1-3.4,4.2c-0.5-0.5-1.3-1.1-1.9-1.4c2.1-1.8,4.2-4.9,5.5-8
		l2.9,0.9c-0.1,0.2-0.5,0.3-0.7,0.3c-0.2,0.6-0.6,1.3-0.9,1.9h10.4v2h-7.4c0.6,1.1,1.2,2.4,1.5,3.2L190.2,100.2z M196.5,110.8h-10.3
		v15.5h-2.4V101h12.7L196.5,110.8L196.5,110.8z M194.1,102.8h-8v2.2h8V102.8z M186.3,109h8v-2.2h-8V109z M206,123.3h-11.8v1.5h-2.2
		v-11.9H206V123.3z M203.7,114.5H194v2.7h9.6V114.5z M194.1,121.6h9.6v-2.7h-9.6V121.6z M204.7,92.1c-0.1,0.2-0.5,0.3-0.7,0.3
		c-0.3,0.6-0.6,1.3-0.9,1.9h13.4v2h-8.9c0.8,1.1,1.6,2.2,2,3.2l-2.2,0.7c-0.6-1.1-1.5-2.7-2.6-4h-3.3c-1.2,1.5-2.5,2.8-3.8,3.9
		c-0.6-0.5-1.4-0.9-2-1.3c2.5-1.8,4.7-4.7,6-7.9L204.7,92.1z M214,101v22.3c0,2.8-1.2,3.1-7.3,3c-0.1-0.6-0.5-1.6-0.7-2.2
		c1.3,0,2.6,0.1,3.4,0.1c1.9,0,2.1,0,2.1-0.7v-12.6h-10.6v-9.7L214,101L214,101L214,101z M211.6,102.8h-8.2v2.2h8.2V102.8z
		 M203.4,109h8.2v-2.2h-8.2V109z"/>
	<path d="M253.8,117v2.5h-16v6.9h-2.6v-6.9h-15.6V117h15.6v-3.8h-12V98.1h3.6c-0.7-1.5-2.4-3.8-3.8-5.4l2.1-0.9
		c1.5,1.6,3.2,3.9,4,5.4c-0.8,0.6-1.4,0.7-1.8,1.1h8.5c-0.5-1.6-1.8-4.1-2.9-6l2.2-0.8c1.3,1.8,2.7,4.3,3.1,5.9l-2.1,0.8h6.9
		c1.4-1.8,3.2-4.7,4.2-6.8l3.1,1.2c-0.1,0.2-0.5,0.3-0.8,0.3c-0.8,1.5-2.2,3.5-3.5,5.3h4.3v15.3h-12.6v3.6H253.8L253.8,117
		L253.8,117z M225.7,100.4v4.3h9.5v-4.3H225.7z M225.7,111.2h9.5v-4.4h-9.5V111.2z M247.8,104.6v-4.3h-10v4.3H247.8z M247.8,111.2
		v-4.4h-10v4.4H247.8z"/>
	<path d="M289.4,107.2H277l0.6,0.2c0,0.2-0.3,0.5-0.7,0.5c-0.9,6.8-4.1,13.6-11.7,17.5c-0.5-0.6-1.4-1.4-2-1.8
		c7.4-3.8,10.1-9.4,10.9-16.2h-14.4v-2.6h29.8L289.4,107.2C289.5,107.2,289.4,107.2,289.4,107.2z M283.9,96.9H263v-2.6h20.9V96.9z
		 M284.3,91.3c1.5,1.6,3.3,4.2,4.2,6l-1.5,1.1c-0.7-1.8-2.6-4.4-4.1-6L284.3,91.3z M288.9,90c1.5,1.6,3.3,4.2,4.3,5.9l-1.5,0.9
		c-0.7-1.6-2.7-4.3-4.2-5.9L288.9,90z"/>
	<path d="M296.2,106.9h31.5v2.7h-30.2c-0.2,0.5-0.7,0.6-1.2,0.7L296.2,106.9z"/>
	<path d="M362.3,98.7c0,0.2-0.2,0.3-0.5,0.5c-1.4,4.7-3.3,9-5.5,12.6c1.6,0.9,3.4,2.1,4.8,3.1l-1.6,2.5c-1.4-1.1-3.3-2.2-4.8-3.3
		c-3.4,4.8-8,8.7-13.6,11.5c-0.5-0.6-1.4-1.5-2-1.9c5.5-2.6,10-6.3,13.4-10.8c-2.8-1.5-5.5-2.9-8.3-4l1.4-2.1
		c2.8,0.9,5.5,2.2,8.5,3.9c1.9-3.1,3.5-6.3,4.6-10h-12.9c-2.2,3.9-5.4,7.6-8.7,10.4c-0.6-0.5-1.5-1.3-2.1-1.8
		c4.9-3.8,9.6-10.6,11.9-17l3.5,0.8c-0.1,0.5-0.6,0.6-1.1,0.6c-0.6,1.3-1.4,3.1-2.1,4.5h12.6l0.6-0.1L362.3,98.7z"/>
	<path d="M397.6,109.2l1.9,1.1c-0.1,0.2-0.3,0.3-0.6,0.5c-2,4-5,7.1-8.8,9.5c4.2,1.9,9,3.2,14.4,4c-0.6,0.6-1.3,1.8-1.6,2.5
		c-5.8-0.8-11-2.5-15.4-4.8c-4.5,2.4-9.6,3.9-15,4.8c-0.3-0.6-0.9-1.8-1.5-2.4c5-0.7,9.9-2,14.1-4c-3.1-2.1-5.6-4.7-7.6-7.9l2-0.8
		h-3.9v-2.2h21.5L397.6,109.2z M373.7,104.6v5.6h-2.5v-8h6.1c-0.6-1.4-1.6-3.4-2.6-5l2.2-0.6c1.2,1.6,2.4,3.9,2.8,5.3l-1.4,0.6h16
		c1.3-1.9,2.9-4.7,3.9-6.8l3,1.2c-0.1,0.2-0.5,0.3-0.7,0.3c-0.8,1.5-2.1,3.5-3.3,5.3h6.8v8h-2.5v-5.6h-27.8L373.7,104.6L373.7,104.6
		z M401.7,93.6c-0.1,0.1-0.2,0.1-0.5,0.1c-0.1,0-0.2,0-0.5-0.1c-6.8,1.4-18.8,2.5-28.8,2.8c0-0.6-0.5-1.6-0.6-2.1
		c9.9-0.5,21.6-1.5,28.2-2.9L401.7,93.6z M380,111.5c1.8,2.9,4.5,5.4,7.9,7.3c3.2-1.9,5.9-4.3,7.7-7.3H380z M387.1,96
		c0.8,1.8,1.8,4.2,2.1,5.5l-2.5,0.6c-0.2-1.5-1.1-4-1.9-5.8L387.1,96z"/>
	<path d="M415.7,94.4c-0.1,0.3-0.5,0.6-0.9,0.6c-1.1,4.7-1.9,11.4-1.9,15.5c0,2.6,0.1,4.8,0.5,6.3c0.8-1.8,2.7-5.3,3.9-7.5l1.8,1.8
		c-2.8,4.9-4.5,8-4.5,9.5c0,0.5,0.1,0.9,0.3,1.5l-2.7,0.6c-0.9-2.7-1.8-6.8-1.8-12.1c0-4.8,0.7-11.4,1.9-16.9L415.7,94.4z
		 M421.2,102.9c3,0,7.5-0.1,10.2-0.2c-0.2-4.4-0.6-9.5-0.6-10.4l3.9,0.1c0,0.5-0.5,0.7-0.9,0.8c0.1,2,0.2,5.9,0.5,9.2
		c2.6-0.2,5.4-0.6,7.4-1.2l0.2,2.7c-2.1,0.5-4.8,0.8-7.6,1.1c0,0.2,0,0.8,0,3.1c0,8.1-1.8,14-9.2,17.6c-0.3-0.5-1.4-1.4-2-1.9
		c6.9-3.4,8.5-8.3,8.5-15.4v-3.1c-2.6,0.1-6.8,0.2-10.2,0.2L421.2,102.9L421.2,102.9z"/>
	<path d="M446.8,102c2.4,0.9,5.3,2.6,6.7,3.9l-1.5,2c-1.4-1.3-4.2-3-6.6-4.1L446.8,102z M446.4,124.3c1.8-3,4.3-8,6.1-12.4l2,1.5
		c-1.6,4.1-3.9,8.8-5.5,11.7c0.1,0.2,0.2,0.5,0.2,0.6c0,0.1,0,0.2-0.1,0.5L446.4,124.3z M448.9,91.7c2.2,1.1,5.2,2.8,6.6,4.2
		c-0.8,1.1-1.2,1.6-1.5,2c-1.4-1.4-4.2-3.2-6.6-4.4L448.9,91.7z M459.6,104.2v1.8c0,6-0.6,14.6-4.6,20.3c-0.6-0.5-1.5-0.9-2.1-1.2
		c3.9-5.5,4.3-13.5,4.3-19.1V95.9h10.3v-4.5l3.3,0.2c0,0.2-0.2,0.5-0.7,0.6v3.6h10.5v2.2h-21v4.1h4.1v-3.1l3.1,0.2
		c0,0.2-0.2,0.5-0.7,0.6v2.5h6.9v-3.2c0.5,0,0.7,0,3.1,0.2c0,0.2-0.2,0.5-0.7,0.6v2.5h5.2v2.1h-5.2v5.5h-11.7v-5.5
		C463.7,104.2,459.6,104.2,459.6,104.2z M476.2,112l1.6,0.7c-0.1,0.1-0.2,0.2-0.3,0.5c-1.3,3.2-3.4,5.8-6,7.9
		c2.7,1.5,5.8,2.7,9.3,3.2c-0.6,0.6-1.2,1.5-1.5,2.1c-3.8-0.7-7.1-2.1-9.9-4c-3,1.8-6.6,3.2-10.1,4c-0.2-0.6-0.7-1.6-1.3-2
		c3.3-0.6,6.7-1.8,9.4-3.4c-2-1.8-3.6-3.9-4.8-6.3l1.3-0.5h-3.8v-2.1h15.5L476.2,112L476.2,112z M464.9,114.3c1.1,2.1,2.7,4,4.6,5.5
		c2-1.5,3.6-3.3,4.8-5.5H464.9z M473,104.2h-6.9v3.5h6.9V104.2z"/>
	<path d="M495.7,93c-0.1,0.5-0.5,0.7-1.2,0.8c-0.3,4.4-0.6,14.3-0.6,20s2.8,8.3,7.5,8.3c4.6,0,9.3-2.2,13.6-7.2
		c0.5,0.6,1.3,1.8,1.8,2.2c-4.4,5-9.7,7.6-15.4,7.6c-6.8,0-10.4-4-10.4-11c0-4.7,0.3-16.4,0.6-21.1L495.7,93z"/>
	<path d="M98.9,149.1c-0.1,0.2-0.3,0.5-0.6,0.6c-4,12.2-10.2,20.1-20.6,25.4c-0.5-0.6-1.2-1.5-1.9-2c9.9-4.8,16-12.3,19.1-22.3H81.5
		c-2.1,3.4-5.2,6.7-8.5,9.3c-0.6-0.6-1.4-1.3-2.1-1.8c5.2-4,9.4-9.7,12-16.4l3.5,1.1c-0.1,0.5-0.6,0.6-1.1,0.6
		c-0.7,1.6-1.5,3.2-2.5,4.7h13.4l0.5-0.2L98.9,149.1z"/>
	<path d="M137.5,154.1c-0.1,0.1-0.2,0.3-0.6,0.5c-3.1,11.4-9.4,16.9-20.6,20.1c-0.3-0.6-1.1-1.6-1.6-2.1c10.3-2.6,16.6-7.9,19-16.6
		h-25v-2.6h26.1l0.5-0.2L137.5,154.1z M134,146.1h-21.5v-2.5H134C134,143.6,134,146.1,134,146.1z"/>
	<path d="M159.7,141.7l3.8,0.2c0,0.5-0.6,0.7-1.1,0.7v5.9h10.1l0.6-0.2l2.4,1.1c-0.1,0.1-0.2,0.3-0.5,0.5
		c-1.8,13.2-7.2,20.9-19.1,25.1c-0.5-0.6-1.2-1.6-1.8-2.2c11.3-3.9,16.4-10.8,17.7-21.5h-21.4v9.3h-2.6v-11.9h11.9L159.7,141.7
		L159.7,141.7L159.7,141.7z"/>
	<path d="M209.5,162c-3.9-2-9.2-4.5-13.3-6.1v18.9h-2.8v-32.8l3.9,0.2c0,0.5-0.3,0.6-0.9,0.7V154l0.6-0.8c4.4,1.6,10.3,4.2,14.2,6.3
		L209.5,162z M205.5,144.3c1.8,1.4,4,3.9,5.3,5.5l-1.4,1.2c-1.2-1.6-3.4-4.2-5.2-5.5L205.5,144.3z M210.6,141
		c1.8,1.5,4.1,3.9,5.2,5.5l-1.4,1.2c-1.2-1.6-3.4-4.1-5.2-5.5L210.6,141z"/>
	<path d="M229.8,153.1c1.8,2.5,3.5,5.6,4.2,7.9l-2,0.9c-0.2-0.6-0.6-1.4-0.8-2.2c-1.2,0.1-2.4,0.1-3.5,0.2V176h-2.2V160
		c-2.1,0.1-4,0.2-5.5,0.2c0,0.3-0.2,0.5-0.6,0.6l-0.6-2.8h2.7c0.8-1.1,1.8-2.1,2.6-3.4c-1.2-1.8-3.1-4-4.8-5.5l1.3-1.6
		c0.5,0.3,0.7,0.7,1.2,1.2c1.3-2.1,2.8-5.3,3.5-7.4l2.7,1.2c-0.1,0.2-0.5,0.3-0.7,0.3c-0.9,2.1-2.7,5.3-4.1,7.3
		c0.8,0.8,1.6,1.8,2.2,2.7c1.6-2.5,3.1-5,4.2-7.2l2.7,1.3c-0.1,0.2-0.5,0.3-0.8,0.3c-1.9,3.2-4.9,7.7-7.6,10.9l6.6-0.1
		c-0.6-1.3-1.4-2.6-2.2-3.8L229.8,153.1z M223.8,163.3c-0.1,0.2-0.3,0.5-0.7,0.5c-0.6,3.2-1.4,6.8-2.6,9c-0.6-0.3-1.4-0.7-1.9-0.9
		c1.1-2.1,1.9-5.8,2.4-9.2L223.8,163.3z M231.7,170.7c-0.3-2-1.4-5.2-2.5-7.5l1.9-0.6c1.2,2.4,2.2,5.5,2.6,7.4L231.7,170.7z
		 M244.6,165.9v6.7h9.5v2.4h-21.5v-2.4h9.5v-6.7h-7.4v-2.4h7.4v-5.6l3.2,0.2c0,0.2-0.2,0.5-0.7,0.6v4.9h7.7v2.4H244.6z M250.7,142.7
		l1.8,0.8c-0.1,0.1-0.2,0.3-0.5,0.5c-1.5,4.1-3.9,7.3-6.8,9.9c2.6,1.8,5.8,3.1,9.2,3.9c-0.6,0.6-1.3,1.5-1.6,2.1
		c-3.8-0.9-6.8-2.5-9.6-4.5c-2.7,1.9-5.6,3.3-8.9,4.5c-0.3-0.6-0.9-1.5-1.5-2c3-0.8,5.9-2.2,8.5-4.1c-2.4-2.2-4.2-4.9-5.5-8l1.8-0.6
		h-4.1v-2.4h16.7L250.7,142.7z M238.3,145.2c1.2,2.7,2.9,5.2,5.2,7.1c2.2-1.9,4.2-4.3,5.5-7.1H238.3z"/>
	<path d="M264.6,156.5v9.3l5.2-1.5c0,0.2,0.1,0.5,0.3,2.1c-4.4,1.4-9,2.9-11.9,3.8c0,0.3-0.2,0.6-0.6,0.6l-1.1-2.8
		c1.5-0.5,3.4-0.8,5.5-1.5v-10.1h-4.7v-2.4h4.7v-8.5h-5v-2.5h12.4v2.5h-4.9v8.5h4.6v2.4H264.6L264.6,156.5L264.6,156.5z
		 M281.7,172.3h10.6v2.4h-24.2v-2.4h11.4v-5.9h-8.8v-2.2h8.8v-4.3h-8.6v-16.7h19.8v16.7h-9v4.4h9.3v2.2h-9.3L281.7,172.3
		L281.7,172.3z M273,145.2v5h6.3v-5H273z M273,157.6h6.3v-5.2H273V157.6z M288.2,150.3v-5h-6.5v5H288.2z M288.2,157.6v-5.2h-6.5v5.2
		H288.2z"/>
	<path d="M329.5,149.9h-6.8c0.9,0.3,1.3,0.5,1.5,0.6c-0.1,0.2-0.5,0.5-0.9,0.5c-2.1,6.2-5.2,11-9.2,15c4.3,3.5,9.5,6.1,15.7,7.6
		c-0.6,0.6-1.4,1.8-1.8,2.6c-6.5-1.6-11.7-4.4-16.1-8.2c-4.3,3.5-9.5,6.2-16,8.1c-0.2-0.6-0.9-1.8-1.5-2.2
		c6.2-1.8,11.4-4.3,15.4-7.7c-4.1-4.2-7.2-9.4-9.4-15.5l1.5-0.6h-7.3v-2.5h16v-6.7l3.3,0.2c0,0.2-0.2,0.5-0.7,0.6v5.9h16.1v2.5
		L329.5,149.9L329.5,149.9z M303.3,149.9c1.9,5.5,4.9,10.3,8.9,14.2c3.8-3.8,6.6-8.3,8.6-14.2H303.3z"/>
	<path d="M351,160.4h16v1.9h-34.2v-1.9h15.6v-2.5h-12.9v-1.8h12.9v-2.2h-11.8v-1.8h11.8v-2.4h-15.5v-1.9h15.5v-2.4H337v-1.8h11.4
		v-2.8l3.3,0.2c0,0.2-0.2,0.5-0.7,0.6v2h10.9v4.2h4.9v1.9h-4.9v4.2H351v2.2h13.3v1.8H351V160.4z M337.9,176v-11.9h24.4V176h-2.6
		v-1.3h-19.5v1.3L337.9,176L337.9,176L337.9,176z M359.7,166.1h-19.5v2.5h19.5V166.1z M340.3,172.8h19.5v-2.6h-19.5V172.8z
		 M351,145.2v2.4h8.3v-2.4H351z M351,149.7v2.5h8.3v-2.5H351z"/>
	<path d="M379,150c-0.3-1.1-1.1-2.7-1.8-4.1h-1.8c-1.1,1.6-2.2,3.1-3.4,4.2c-0.5-0.5-1.3-1.1-1.9-1.4c2.1-1.8,4.2-4.9,5.5-8l2.9,0.9
		c-0.1,0.2-0.5,0.3-0.7,0.3c-0.2,0.6-0.6,1.3-0.9,1.9H387v2.1h-7.3c0.6,1.2,1.3,2.5,1.6,3.3L379,150z M405,143.9v2.1h-8.8
		c0.8,1.2,1.8,2.4,2.1,3.3l-2.2,0.7c-0.6-1.2-1.6-2.8-2.7-4.1h-3.3c-0.7,0.9-1.5,1.9-2.4,2.7l1.8,0.1c0,0.2-0.2,0.5-0.7,0.6v2.4h15
		v7.2h-2.5v-5.2h-27.1v5.2h-2.5v-7.2h14.6v-2.1c-0.6-0.3-1.3-0.7-1.8-1.1c2.4-1.8,4.7-4.6,5.9-7.7l2.9,0.8c-0.1,0.2-0.3,0.3-0.7,0.3
		c-0.3,0.6-0.6,1.3-1.1,1.9L405,143.9L405,143.9z M379.5,163.7v2.8h21v9.3h-2.6v-1.3h-18.6v1.3h-2.5v-19.7h21.1v7.5L379.5,163.7
		L379.5,163.7z M395.7,158.1h-16.2v3.5h16.2V158.1z M398.1,168.6h-18.6v4h18.6V168.6z"/>
	<path d="M415.6,156.5v9.3l5.2-1.5c0,0.2,0.1,0.5,0.3,2.1c-4.4,1.4-9,2.9-11.9,3.8c0,0.3-0.2,0.6-0.6,0.6l-1.1-2.8
		c1.5-0.5,3.4-0.8,5.5-1.5v-10.1h-4.7v-2.4h4.7v-8.5h-5v-2.5h12.4v2.5h-4.9v8.5h4.6v2.4H415.6L415.6,156.5L415.6,156.5z
		 M432.7,172.3h10.6v2.4H419v-2.4h11.4v-5.9h-8.8v-2.2h8.8v-4.3h-8.6v-16.7h19.7v16.7h-8.8v4.4h9.3v2.2h-9.3V172.3z M424,145.2v5
		h6.3v-5H424z M424,157.6h6.3v-5.2H424V157.6z M439.1,150.3v-5h-6.5v5H439.1z M439.1,157.6v-5.2h-6.5v5.2H439.1z"/>
	<path d="M479.5,153.2h-8v2.6c0,7.2-2.2,14.6-12.1,19c-0.6-0.6-1.3-1.4-1.9-1.9c9.5-4.2,11.4-10.8,11.4-17v-2.7h-12.2v9.4h-2.7v-9.4
		h-7.4v-2.6h7.4v-8.1l3.6,0.2c0,0.5-0.5,0.7-0.9,0.7v7.2h12.2v-8.7l3.6,0.2c0,0.3-0.3,0.6-0.9,0.7v7.7h8V153.2L479.5,153.2z"/>
	<path d="M484.8,156.4h31.5v2.7h-30.2c-0.2,0.5-0.7,0.6-1.2,0.7L484.8,156.4z"/>
	<path d="M544.2,170.7c1.5,0,5.5-0.2,8-0.6c0,0.8,0.1,1.9,0.1,2.7c-2.5,0.2-6.2,0.5-7.9,0.5H535c-5.6,0-8.5-2.5-8.5-8v-22l3.8,0.2
		c-0.1,0.5-0.3,0.6-1.1,0.6v12.3c5.8-1.8,13.9-4.8,18.8-7.5l1.9,2.6c-0.1,0.1-0.3,0.1-0.5,0.1c-0.2,0-0.3,0-0.6-0.1
		c-4.6,2.2-13.2,5.5-19.6,7.4v6.3c0,3.9,1.8,5.3,5.8,5.3h9.2L544.2,170.7L544.2,170.7z M547.7,142.3c1.8,1.5,3.6,3.9,4.7,5.5
		l-1.4,1.1c-1.1-1.6-3-4.1-4.6-5.5L547.7,142.3z M552.4,140c1.8,1.5,3.6,3.9,4.7,5.5l-1.4,1.1c-1.1-1.6-3.1-4.1-4.6-5.5L552.4,140z"
		/>
	<path d="M586.5,145.8c-0.1,0.2-0.2,0.3-0.6,0.5c-2,4.8-4.5,8.9-7.5,12.9c4.1,3.3,10.3,8.9,13.9,12.8l-2.2,2
		c-3.3-3.9-9.4-9.5-13.3-12.7c-3.3,4.1-9,9.5-14.6,12.7c-0.5-0.6-1.3-1.5-1.9-2c10.5-5.8,18.8-16.4,22.1-24.7h-18.6v-2.6h20.1
		l0.6-0.2L586.5,145.8z"/>
</g>
<g>
	<path class="st1" d="M222.1,240.6h-36.5v62.9h60.6v-38.8L222.1,240.6z M222.5,250.6l13.7,13.7h-13.7V250.6z M192.1,296.7v-49.4
		h23.7v23.8h23.6v25.6H192.1z"/>
	<path class="st2" d="M230.3,303.2c-0.5-4.3-2.8-8.1-6.3-10.6c0-0.6,0-1.4-0.1-2c-0.6-6.8-6.4-11.9-13.2-11.9c-0.5,0-0.9,0-1.4,0.1
		l0,0c-3.4-4.6-8.7-7.4-14.6-7.4c-0.6,0-1.3,0-1.9,0.1c-8.1,0.8-14.4,7-15.8,14.9c-6.7,3.1-10.8,10.2-10,17.7
		c0.4,3.1,1.6,6.1,3.4,8.6c3.2,4.4,8.5,7,14,7h4.8V304h-9.6l18.2-18.2L216,304h-9.6v15.6h8.8c0.1,0,0.1,0,0.2,0c0.1,0,0.2,0,0.2,0
		c0.5,0,0.8,0,1.5-0.1l0,0l0,0c2.7-0.3,5.2-1.3,7.3-2.9l0.1-0.1c0.2-0.1,0.5-0.3,0.6-0.6l0,0l0.3-0.3l0.1-0.1l0.1-0.1
		C229.2,312.4,231,307.8,230.3,303.2z"/>
	<polygon class="st3" points="216.2,303.9 197.9,285.6 179.7,303.9 189.4,303.9 189.4,319.5 206.5,319.5 206.5,303.9 	"/>
	<g>
		<path class="st1" d="M216,212.2c-0.6,3.2-2.2,13-14.2,14.6l-0.9-2c6.5-0.9,10.3-3.4,12.1-10.5h-7c-1.8,2.2-3.2,3.7-4.7,4.5
			l-1.5-1.7c1.2-0.6,4.6-2.7,6.5-7.9l2.4,0.5c-0.2,0.6-0.5,1.2-1.2,2.3L216,212.2L216,212.2z"/>
		<path class="st1" d="M235.8,215c-0.5,4.2-1.3,10.6-12.9,11.7l-0.6-2c1.2,0,4.4-0.2,7.4-2c2.6-1.7,3.1-4.2,3.5-5.5h-13.4V215
			L235.8,215L235.8,215z M234.7,210.4v2.1h-13.6v-2.1H234.7z"/>
		<path class="st1" d="M248.7,209.5v3h6.6v1.8c0,1.4-0.3,6.1-3.1,8.9c-1.8,1.7-4.5,3-9.2,3.5l-0.7-2.1c1.8-0.1,7.4-0.6,9.6-4.4
			c1.2-2,1.3-5.1,1.3-5.5h-10.8v4.7h-2.1v-6.8h6.4v-3L248.7,209.5L248.7,209.5L248.7,209.5z"/>
		<path class="st1" d="M266.1,209.5v5.1c4.4,1.3,8.9,3.7,9.9,4.3l-1,2.4c-2.5-1.7-6.4-3.5-8.9-4.3v10h-2.4v-17.5L266.1,209.5
			L266.1,209.5z M271.8,214.1c-0.4-0.8-0.7-1.7-1.7-3l1.6-0.7c0.7,1.3,1.3,1.9,1.7,3L271.8,214.1z M274.6,212.9
			c-0.5-0.9-1-2.1-1.7-2.9l1.5-0.7c0.7,1,1.2,1.6,1.8,2.8L274.6,212.9z"/>
		<path class="st1" d="M277.8,217.4c0.5,0,0.6,0,1.6,0c0.4-0.5,0.8-1,1.2-1.6c-1.5-1.7-2.2-2.1-2.8-2.5l1-1.8
			c0.3,0.2,0.4,0.3,0.6,0.5c0.2-0.3,1-1.7,1.8-3.2l1.8,0.6c-0.5,0.9-1.3,2.4-2.2,3.9c0.6,0.6,0.7,0.7,0.8,0.9c0.7-1.2,1.2-1.8,2-3.1
			l1.8,0.8c-0.9,1.7-3.1,4.6-3.8,5.5l2-0.1c-0.2-0.6-0.2-0.7-0.4-1.2l1.6-0.6c0.4,1,0.7,2.3,1,3.6l-1.7,0.6c0-0.3-0.1-0.5-0.1-0.6
			c-0.2,0-0.8,0.1-1,0.1v8.5h-1.9v-8.3c-0.9,0.1-2.5,0.2-3.1,0.2L277.8,217.4z M280.4,220.6c0,0.6-0.2,3.4-0.7,5.5l-1.8-0.6
			c0.5-1.8,0.6-3.1,0.8-5.2L280.4,220.6z M285.2,220.2c0.4,1.4,0.6,2.5,0.6,4.3l-1.8,0.3c0-1.2-0.2-2.9-0.5-4.1L285.2,220.2z
			 M295.8,220.2v1.9h-4v2.8h4.7v1.8H285v-1.8h4.8v-2.8h-3.7v-1.9h3.7v-1.9h2v1.9H295.8z M288.3,211.5c0.5,0.6,1,1.6,2.5,2.8
			c1.6-1.4,2.1-2.1,2.5-2.8h-7.6v-1.8h9.7v1.8c-0.3,0.6-0.8,2-3,4c2.1,1.3,3.7,1.5,4.4,1.6l-0.6,1.9c-2.8-0.7-4.3-1.6-5.4-2.2
			c-1.9,1.3-3.5,1.8-4.4,2.2l-0.9-1.8c0.6-0.2,1.9-0.6,3.8-1.7c-1-0.9-1.8-1.9-2.5-3.1L288.3,211.5z"/>
		<path class="st1" d="M297.4,224c0.6-0.2,0.6-0.2,2.5-0.7v-5.4h-2v-2h2v-4.1h-2.2v-2h6.4v2h-2.1v4.1h1.8v2h-1.8v4.7
			c0.6-0.2,1.3-0.5,2.1-0.8v1.9c-1.7,0.7-4.3,1.8-6.4,2.3L297.4,224z M304.9,209.4h11v9.4h-4.5v2h4.7v1.8h-4.7v2.2h5v1.9h-12.8V225
			h5.8v-2.2h-4.6v-1.8h4.6v-2h-4.5V209.4L304.9,209.4z M306.7,211.3v2.1h2.6v-2.1H306.7z M306.7,214.9v2.2h2.6v-2.2H306.7z
			 M311.3,211.3v2.1h2.6v-2.1H311.3z M311.3,214.9v2.2h2.6v-2.2H311.3z"/>
		<path class="st1" d="M317.5,213.7v-2h8.2v-2.8h2.1v2.8h8.2v2h-2.8c-1.3,4.6-3.6,7.5-4.8,8.8c2.9,1.9,5.9,2.6,7.5,2.9l-1,2.1
			c-4.2-1-6.4-2.4-8-3.7c-3,2.3-6.4,3.1-8.2,3.7l-0.9-2.1c1.9-0.4,4.7-0.9,7.5-3c-2.6-2.5-4.2-5.8-4.9-8.8L317.5,213.7L317.5,213.7
			L317.5,213.7z M322.4,213.7c1.3,4.2,3.4,6.6,4.3,7.4c2.2-2.1,3.6-4.8,4.3-7.4H322.4z"/>
		<path class="st1" d="M338.8,210h6.7v-1.1h1.9v1.2h6.7v2.2h1.8v1.4h-1.8v2.3h-6.7v0.7h7.1v1.3h-7.1v0.7h8.5v1.6h-18.6v-1.6h8.2V218
			h-7.2v-1.3h7.1V216h-6.7v-1.4h6.7v-0.9h-8.2v-1.4h8.2v-0.9h-6.7V210z M339.3,221.1h14.6v6.4h-2v-0.6h-10.6v0.6h-1.9V221.1z
			 M341.2,222.5v0.9h10.6v-0.9H341.2z M341.2,224.6v0.9h10.6v-0.9H341.2z M347.4,211.3v0.9h4.7v-0.9H347.4z M347.4,213.6v0.9h4.7
			v-0.9H347.4z"/>
		<path class="st1" d="M360.6,211.8c-1,1.6-1.8,2.1-2.2,2.3l-1.5-1.4c1.4-0.9,2.8-2.6,3.1-4.1l1.9,0.4c-0.1,0.3-0.1,0.5-0.4,1h4.4
			v1.8h-2.9c0.2,0.4,0.5,0.8,0.6,1.3l-1.8,0.7c-0.2-0.6-0.6-1.6-0.7-2H360.6L360.6,211.8z M366.5,213.6l-1.2-0.7
			c0.6-0.5,2-1.8,2.7-4.1l1.8,0.3c-0.1,0.3-0.1,0.6-0.4,1h6v1.8h-3.9c0.3,0.4,0.6,0.7,0.7,1.4l-1.8,0.7c-0.2-0.4-0.6-1.4-0.9-2.1
			h-0.9c-0.6,0.8-0.9,1.4-1.4,1.8v0.9h8v3.8h-1.9v-2.1h-14v2.1h-1.8v-3.8h8v-0.9H366.5z M359.9,217h12.9v4.1h-10.9v1.2H374v5.2h-2
			v-0.8h-10.4v0.8h-1.9V217H359.9z M361.9,219.6h8.9v-1.3h-8.9V219.6z M361.9,225.1h10.4v-1.4h-10.4V225.1z"/>
		<path class="st1" d="M376.6,224c0.6-0.2,0.6-0.2,2.5-0.7v-5.4h-2v-2h2v-4.1h-2.2v-2h6.4v2h-2.1v4.1h1.8v2h-1.8v4.7
			c0.6-0.2,1.3-0.5,2.1-0.8v1.9c-1.7,0.7-4.3,1.8-6.4,2.3L376.6,224z M383.9,209.4h11v9.4h-4.5v2h4.7v1.8h-4.7v2.2h5v1.9h-12.7V225
			h5.8v-2.2h-4.6v-1.8h4.6v-2H384L383.9,209.4L383.9,209.4z M385.9,211.3v2.1h2.6v-2.1H385.9z M385.9,214.9v2.2h2.6v-2.2H385.9z
			 M390.4,211.3v2.1h2.6v-2.1H390.4z M390.4,214.9v2.2h2.6v-2.2H390.4z"/>
		<path class="st1" d="M409.1,209.5h2.3v3.9h3.4v2h-3.4v1.7c0,1.3-0.2,4.9-2.8,7c-2,1.7-4.9,2.2-6.4,2.5l-0.9-2
			c1.9-0.3,4.6-0.7,6.2-2.4c1.5-1.5,1.7-4.1,1.7-5.1v-1.8h-6.4v5.1h-2.3v-5.1h-3.4v-2h3.4v-3.8h2.3v3.8h6.4L409.1,209.5L409.1,209.5
			z"/>
		<path class="st1" d="M434.6,216.8v2.4H417v-2.4H434.6z"/>
		<path class="st1" d="M441,210.5v5.9c3.9-0.7,6.7-2,9.2-3.4l1.3,2c-4.2,2.1-7.7,3-10.5,3.6v4.3c0,0.8,0.4,1,1.7,1h6.7
			c2.1,0,3.2-0.2,3.9-0.3l0.1,2.4c-0.7,0.1-1.8,0.2-4.2,0.2h-6.8c-2.7,0-3.6-0.8-3.6-2.7v-13H441z M451.2,213
			c-0.6-1.5-0.7-2-1.5-3.1l1.5-0.6c0.6,1,1,2,1.5,3.1L451.2,213z M453.8,212.5c-0.6-1.7-0.9-2.3-1.4-3.1l1.5-0.6
			c0.5,0.8,1,1.9,1.4,3L453.8,212.5z"/>
		<path class="st1" d="M456.8,224.7c4.3-1.6,9.2-5.9,11.4-11.8h-10.4v-2.1h13.3c-0.3,1.2-0.9,4.3-3.8,8.2c2.3,1.8,4.5,3.8,6.7,5.9
			l-1.8,1.8c-2.2-2.6-5.3-5.3-6.2-6.1c-2.3,2.6-4.8,4.7-8,6L456.8,224.7z"/>
	</g>
	<g>
		<path class="st1" d="M270.6,329.8c-0.8,5.3-3.9,7.4-5.9,8.5l-1.5-1.8c1.4-0.6,3.2-1.7,4.3-4.6h-13.9v-2.1L270.6,329.8L270.6,329.8
			z M254.4,344.2c3.6-1.4,5.9-3.6,6-10.5l2.4,0.1c-0.2,7.1-2.7,10.2-6.9,12.2L254.4,344.2z"/>
		<path class="st1" d="M275,339.3c-0.3-1.7-0.7-3.1-1.6-4.6l1.8-0.6c0.9,1.9,1.4,3.1,1.8,4.7L275,339.3z M275,344.4
			c6.3-1.2,8.5-4,9.6-10.8l2.1,0.4c-1,4.8-2.2,10.3-10.9,12.2L275,344.4z M279.2,338.5c-0.3-2.2-0.8-3.6-1.4-4.6l1.8-0.5
			c0.8,1.8,1.3,3.5,1.5,4.6L279.2,338.5z"/>
		<path class="st1" d="M291.8,343.7c7.7-1.3,10.4-4.5,11.2-11.1h-12.9v-2.1h13.2c0-0.1-0.1-0.2-0.1-0.4c0-1.2,0.9-2,2-2
			c1.2,0,2,0.9,2,2s-0.7,2-2,2c-0.2,2.4-0.9,5.5-2.2,7.4c-2.1,3.7-6.2,5.4-10.4,6.3L291.8,343.7z M304.5,330.1
			c0,0.6,0.5,0.9,0.9,0.9c0.6,0,0.9-0.4,0.9-0.9s-0.4-0.9-0.9-0.9C304.9,329.1,304.5,329.6,304.5,330.1z"/>
		<path class="st1" d="M325.4,330.5c-0.5,5.8-2.2,13.4-13,15.4l-0.8-2.1c9.6-1.5,10.7-7.7,11.3-11.2h-13v-2.1L325.4,330.5
			L325.4,330.5z"/>
		<path class="st1" d="M342.8,333.1c-0.6,3.4-1.8,5.2-4.8,7l-1.3-1.7c2.4-1.4,3.1-2.8,3.4-3.5h-11V333L342.8,333.1L342.8,333.1z
			 M329.5,344.7c3.2-1.6,4.9-3.6,4.8-8.5h2.1c-0.3,5.8-2.1,8.2-5.6,10L329.5,344.7z"/>
		<path class="st1" d="M356.3,346.2H354v-9c-2.2,1.6-4.7,2.6-7.3,3.5l-1.2-1.9c2.7-0.8,8.6-2.8,14.2-9.7l2.1,1.4
			c-0.7,0.7-2.9,3-5.6,5.2L356.3,346.2L356.3,346.2z"/>
		<path class="st1" d="M368.8,340.6h-2.3v-10.7h2.3V340.6z M378.7,337c0,8-4.7,8.9-10.5,9.4l-0.7-2.2c2.9-0.2,4.7-0.5,6.5-1.4
			c2.3-1.2,2.4-4.1,2.4-4.8v-8.6h2.3L378.7,337L378.7,337L378.7,337z"/>
		<path class="st1" d="M388.8,335c-1.5-1-4-2.3-6-2.9l1-1.9c1.8,0.5,3.5,1,6.2,2.7L388.8,335z M383.1,343.3
			c7.4-0.6,11.7-3.4,14.4-11.7l2.2,0.9c-2.9,8.5-7.1,12.1-15.9,13.3L383.1,343.3z"/>
		<path class="st1" d="M402.1,336.4c4.4-2.3,5.7-6.3,6.1-7.5l2.4,0.4c-0.2,0.6-0.6,1.5-1,2.5h8.5c-1.7,12.1-10.5,13.7-13.9,14.2
			l-0.9-2c6.5-0.8,10.3-3.5,12.1-10.2h-7.1c-1.7,2.2-3.1,3.2-4.6,4.2L402.1,336.4z M415.3,331.3c-0.5-1.7-0.6-1.9-0.9-2.9l1.6-0.4
			c0.2,0.5,0.6,1.2,1,2.9L415.3,331.3z M418.1,331.2c-0.5-1.6-0.7-2.3-1-2.8l1.6-0.4c0.3,0.6,0.6,1.5,1,2.8L418.1,331.2z"/>
	</g>
	<path class="st2" d="M288.3,299.6c-3,3.1-6.9,4.5-11.6,4.5s-8.7-1.5-11.7-4.5c-2.7-2.8-4.3-6.8-4.3-11.5v-47h9.8v47.4
		c0,4.4,2.8,6.7,6.1,6.7c3.2,0,6.1-2.2,6.1-6.7v-47.4h9.8v47C292.6,292.9,291.1,296.8,288.3,299.6z"/>
	<path class="st2" d="M326.6,300.6c-2.1,2.6-4.6,3.6-8.1,3.6c-1.7,0-3.2-0.5-4.6-1.3c-0.9-0.6-1.9-1.5-2.7-2.4v19.2h-9.2v-62.3h9
		v3.4c0.5-0.8,2.1-2.3,3.1-2.9c1.4-0.7,3-1.3,4.6-1.3c3.5,0,6.1,0.9,8.1,3.6c3,3.8,3.2,10.2,3.2,20.2
		C329.9,290.4,329.6,296.8,326.6,300.6z M319.1,266.7c-0.7-1.2-2-1.8-3.4-1.8s-2.3,0.5-3.1,1.4c-0.8,0.9-1.5,2.3-1.5,4.3v19.9
		c0,2,0.5,3.2,1.5,4.3c0.7,0.7,1.8,1.3,3.1,1.3c1.5,0,2.6-0.6,3.4-1.8c1.3-1.6,1.5-5,1.5-13.7C320.7,271.7,320.4,268.3,319.1,266.7z
		"/>
	<path class="st1" d="M348,250v17.7h14.1v8.9H348v26.9h-9.8v-62.3h26.2v8.9L348,250L348,250z"/>
	<path class="st1" d="M371.7,303.5v-44.9h9.2v44.9H371.7z"/>
	<path class="st1" d="M394.5,300.7c-2.9-2.2-4.6-5.7-4.6-11.2v-48.4h9.2v47.7c0,4.2,2,6.2,6.3,6.2v8.3
		C401.1,303.5,397.5,303.1,394.5,300.7z"/>
	<path class="st1" d="M411.4,303.5v-44.9h9.2v44.9H411.4z"/>
	<path class="st1" d="M448.2,303.5v-33.2c0-3.6-2-5.3-4.5-5.3c-2.5,0-4.5,1.8-4.5,5.3v33.2h-9.2v-46.2h8.9v3.4
		c0.7-1,1.9-2.3,3.1-2.9c1.4-0.7,3-1.3,4.6-1.3c3.8,0,6.3,1.2,8.4,3.6c1.8,2.1,2.6,4.6,2.6,9.9v33.3L448.2,303.5L448.2,303.5z"/>
	<path class="st1" d="M492.9,304.3c0,6-1.5,9.4-4,11.9c-2.3,2.3-6.2,3.8-9.9,3.8c-3.9,0-7.5-1.2-9.9-3.6c-2.9-2.8-3.9-6.4-3.9-10.2
		h9.2c0,1.8,0.4,3.2,1.3,4.3c0.7,0.9,2,1.5,3.4,1.5c1.5,0,2.5-0.5,3.2-1.5c0.8-1.2,1.4-2.8,1.4-5.7v-8c-0.6,0.8-1.6,1.8-2.5,2.4
		c-1.4,0.8-2.8,1.3-4.6,1.3c-3.5,0-5.8-1-8-3.4c-3-3.5-3.7-8.6-3.7-18.6c0-9.9,0.6-15.1,3.7-18.5c2.1-2.3,4.3-3.4,8-3.4
		c1.8,0,3.5,0.4,4.8,1.3c1,0.6,2,1.6,2.7,2.4v-3h9v46.9L492.9,304.3L492.9,304.3z M483.6,270.5c0-2-0.5-3.2-1.5-4.3
		c-0.8-0.8-1.8-1.4-3.1-1.4c-1.4,0-2.6,0.6-3.4,1.8c-1.3,1.6-1.5,4.4-1.5,12c0,7.6,0.3,10.5,1.5,12c0.8,1,2.1,1.8,3.4,1.8
		c1.3,0,2.3-0.4,3.1-1.3c0.9-0.9,1.5-2.3,1.5-4.3V270.5z"/>
	<circle class="st2" cx="376.6" cy="245.7" r="6.3"/>
	<circle class="st2" cx="416.1" cy="245.7" r="6.3"/>
</g>
</svg>
