<?xml version="1.0" encoding="utf-8"?>
<!-- Generator: Adobe Illustrator 23.1.1, SVG Export Plug-In . SVG Version: 6.00 Build 0)  -->
<svg version="1.1" id="レイヤー_1" xmlns="http://www.w3.org/2000/svg" xmlns:xlink="http://www.w3.org/1999/xlink" x="0px"
	 y="0px" width="660px" height="385px" viewBox="0 0 660 385" style="enable-background:new 0 0 660 385;" xml:space="preserve">
<style type="text/css">
	.st0{fill:#B3D8F5;}
	.st1{fill:url(#SVGID_1_);}
	.st2{fill:#4C77B9;}
	.st3{fill:#37414F;}
	.st4{opacity:0.3;}
	.st5{fill:#283240;}
	.st6{fill:#2C3644;}
	.st7{fill:#FFFFFF;}
	.st8{fill:#424E5F;}
	.st9{fill:url(#SVGID_2_);}
	.st10{fill:#A37130;}
	.st11{fill:#E6A126;}
	.st12{fill:#DF9C25;}
	.st13{fill:#966545;}
	.st14{opacity:8.000000e-02;}
	.st15{fill:#1E3467;}
	.st16{opacity:0.1;}
	.st17{fill:url(#SVGID_3_);}
	.st18{fill:#A64C29;}
	.st19{fill:#D95313;}
	.st20{fill:#CC4C12;}
	.st21{opacity:4.000000e-02;}
	.st22{fill:#E08C5A;}
	.st23{opacity:5.000000e-02;}
</style>
<rect class="st0" width="660" height="385"/>
<linearGradient id="SVGID_1_" gradientUnits="userSpaceOnUse" x1="330" y1="385" x2="330" y2="286">
	<stop  offset="0" style="stop-color:#B3D8F5"/>
	<stop  offset="1" style="stop-color:#869FD4"/>
</linearGradient>
<rect y="286" class="st1" width="660" height="99"/>
<path class="st2" d="M473.5,204c-1.9-18.3-11.8-34.6-26.5-44.9c0.1-2.9,0.1-5.8-0.2-8.7c-3-28.9-27.2-50.6-56.2-50.6
	c-2,0-4,0.1-5.9,0.3c0,0,0,0,0,0c-14.2-19.5-36.9-31.4-61.7-31.4c-2.7,0-5.4,0.1-8,0.4c-34.4,3.6-61.6,30.1-67.3,63.1
	c-28.1,13.1-45.8,43-42.5,74.9c1.4,13.3,6.4,26,14.3,36.6c13.9,18.7,36.1,29.8,59.4,29.8h130.5c0.2,0,0.5,0,0.7,0c0.4,0,0.7,0,0.9,0
	c1.9,0,3.9-0.1,6.2-0.3l0.2,0l0.2,0c11.3-1.2,22.1-5.5,31.2-12.3l0.3-0.2c0.8-0.6,1.9-1.4,3-2.5l0.2-0.2l1.4-1.2l0.3-0.2l0.2-0.2
	C468.5,242.7,475.6,223.6,473.5,204z"/>
<g>
	<g>
		<g>
			<g>
				<path class="st3" d="M104.5,250.6l-16,67.5c-0.7,2.8-0.5,5.7,0.7,8.3c1.3,2.8,4,5.6,9.5,6.2c13.7,1.5,80.3-1.4,80.3-1.4
					s0.7-0.1,1.4,0.3c0.5,0.3,0.6,1,0.6,1l-21.4,15.9c0,0-81.6,0.1-86.1-3.3c-4.4-3.3-9.8-13.1-2.8-32c7-18.9,29.6-93.2,29.6-93.2
					L104.5,250.6z"/>
				<path class="st4" d="M102.9,344.4c4-2.7,8.2-5.1,12.5-7.4c2.5-1.3,5.1-2.6,7.7-3.9c-10.9,0.2-20.3,0.1-24.5-0.4
					c-5.4-0.6-8.1-3.4-9.5-6.2c-1.2-2.6-1.4-5.5-0.7-8.3l16-67.5l-4.3-30.5c0,0-22.6,74.3-29.6,93.2c-7,18.9-1.7,28.7,2.8,32
					c1.6,1.2,13,1.9,27,2.4C100.8,346.4,101.7,345.2,102.9,344.4z"/>
				<path class="st5" d="M99.5,209.6c0,0-33.2,116.7-33.5,118.1s-4,17,12.1,20.5l81.4,0.3c0,0,0-0.8-0.5-1.2
					c-0.6-0.5-1.2-0.5-1.2-0.5l-76.1-1.4c-3.7-0.2-7.3-1.9-9.6-4.8c-2.1-2.6-3.6-6.4-2.5-12.1c2.6-13.3,30.7-108.5,30.7-108.5
					L99.5,209.6z"/>
			</g>
			<g>
				<path class="st6" d="M118.3,314.6l8.2-0.9c-0.1,0-0.1,0-0.2,0c0,0,0,0,0,0c-0.1,0-0.1,0-0.2-0.1c0,0,0,0,0,0
					c-0.1,0-0.1-0.1-0.2-0.1c0,0,0,0,0,0c-0.1-0.1-0.1-0.1-0.2-0.2c0,0,0,0,0-0.1c-0.1-0.1-0.1-0.2-0.2-0.3c0,0,0,0,0,0
					c-0.1-0.1-0.1-0.2-0.2-0.4c0,0,0,0,0,0c-0.1-0.1-0.1-0.3-0.2-0.5c0,0,0,0,0,0c-0.1-0.2-0.1-0.3-0.2-0.5c0,0,0,0,0,0
					c-0.1-0.2-0.1-0.4-0.2-0.6c0,0,0,0,0,0c-0.1-0.2-0.1-0.4-0.2-0.6c0,0,0,0,0,0c-0.1-0.2-0.1-0.4-0.2-0.7c0,0,0,0,0,0
					c-0.1-0.2-0.1-0.5-0.2-0.7c0,0,0,0,0,0c-0.1-0.3-0.1-0.5-0.2-0.8c0,0,0,0,0,0c-0.1-0.3-0.1-0.5-0.2-0.8c0,0,0,0,0,0
					c-0.1-0.3-0.1-0.6-0.1-0.9c0,0,0,0,0,0c0-0.3-0.1-0.6-0.1-0.9l-32-239.2c0-0.3-0.1-0.5-0.1-0.8c0-0.1,0-0.2,0-0.3
					c0-0.2,0-0.3,0-0.5c0-0.1,0-0.2,0-0.3c0-0.1,0-0.3,0-0.4c0-0.1,0-0.2,0-0.3c0-0.1,0-0.3,0-0.4c0-0.1,0-0.2,0-0.3
					c0-0.1,0-0.3,0-0.4c0,0,0,0,0,0c0-0.2,0-0.4,0-0.6c0,0,0,0,0,0c0-0.2,0-0.4,0-0.6c0,0,0,0,0,0c0-0.2,0-0.4,0-0.5c0,0,0,0,0,0
					c0-0.2,0-0.3,0.1-0.5c0,0,0,0,0,0c0-0.2,0.1-0.3,0.1-0.4c0,0,0,0,0,0c0-0.1,0.1-0.3,0.1-0.4c0,0,0,0,0,0c0-0.1,0.1-0.2,0.1-0.3
					c0,0,0,0,0,0c0-0.1,0.1-0.2,0.1-0.3c0,0,0,0,0,0c0-0.1,0.1-0.1,0.2-0.2c0,0,0,0,0,0c0.1-0.1,0.1-0.1,0.2-0.1c0,0,0,0,0,0
					c0.1,0,0.1-0.1,0.2-0.1c0,0,0,0,0,0h0h0c-1.5,0.3-6.6,0.9-8.1,1.2c0,0,0,0,0,0c0,0,0,0,0,0c0,0,0,0,0,0c0,0,0,0,0,0c0,0,0,0,0,0
					c0,0,0,0,0,0c0,0,0,0,0,0c0,0,0,0,0,0c0,0,0,0,0,0c0,0,0,0,0,0c0,0,0,0,0,0c0,0,0,0,0,0c0,0,0,0,0,0c0,0,0,0,0,0c0,0,0,0,0,0
					c0,0,0,0,0,0c0,0,0,0,0,0c0,0,0,0,0,0c0,0,0,0,0,0c0,0,0,0,0,0c0,0,0,0,0,0c0,0,0,0,0,0c0,0,0,0,0,0c0,0,0,0,0,0c0,0,0,0,0,0
					c0,0,0,0,0,0c0,0,0,0,0,0c0,0,0,0,0,0.1c0,0,0,0,0,0.1c0,0,0,0,0,0c0,0,0,0,0,0c0,0,0,0,0,0c0,0,0,0,0,0c0,0,0,0,0,0.1
					c0,0,0,0,0,0.1c0,0,0,0,0,0.1c0,0,0,0,0,0.1c0,0,0,0,0,0c0,0,0,0,0,0c0,0,0,0,0,0c0,0,0,0,0,0.1c0,0,0,0.1,0,0.1
					c0,0,0,0.1,0,0.1c0,0,0,0.1,0,0.1c0,0,0,0,0,0c0,0,0,0,0,0c0,0,0,0,0,0c0,0,0,0.1,0,0.1c0,0,0,0.1,0,0.1c0,0,0,0.1,0,0.1
					c0,0,0,0.1,0,0.1c0,0,0,0,0,0c0,0,0,0,0,0c0,0,0,0.1,0,0.1c0,0,0,0.1,0,0.1c0,0,0,0.1,0,0.1c0,0,0,0.1,0,0.1c0,0,0,0,0,0
					c0,0,0,0,0,0c0,0,0,0,0,0c0,0,0,0.1,0,0.1c0,0,0,0.1,0,0.1c0,0.1,0,0.1,0,0.2c0,0,0,0.1,0,0.1c0,0,0,0,0,0c0,0,0,0,0,0
					c0,0.1,0,0.1,0,0.2c0,0.1,0,0.1,0,0.2c0,0.1,0,0.1,0,0.2c0,0,0,0,0,0c0,0,0,0,0,0c0,0.1,0,0.2,0,0.2c0,0.1,0,0.2,0,0.3
					c0,0,0,0,0,0.1c0,0,0,0,0,0c0,0.1,0,0.1,0,0.2c0,0.1,0,0.2,0,0.3c0,0.1,0,0.2,0,0.2c0,0,0,0.1,0,0.1c0,0,0,0.1,0,0.1
					c0,0.1,0,0.2,0,0.3c0,0.1,0,0.2,0,0.3c0,0,0,0,0,0.1c0,0.1,0,0.2,0,0.3c0,0.1,0,0.2,0,0.3c0,0,0,0,0,0.1c0,0.1,0,0.3,0,0.4
					c0,0.1,0,0.2,0,0.3c0,0,0,0,0,0c0,0.1,0,0.1,0,0.2c0,0.1,0,0.1,0,0.2c0,0.1,0,0.1,0,0.2c0,0.1,0,0.1,0,0.2l31.9,239c0,0,0,0,0,0
					c0,0,0,0,0,0c0,0,0,0,0,0c0,0,0,0,0,0c0,0.1,0,0.1,0,0.2c0,0.1,0,0.1,0,0.2c0,0.1,0,0.1,0,0.2c0,0.1,0,0.1,0,0.2
					c0,0,0,0.1,0,0.1c0,0,0,0,0,0c0,0,0,0,0,0c0,0.1,0,0.1,0,0.2c0,0.1,0,0.1,0,0.2c0,0.1,0,0.1,0,0.2c0,0,0,0.1,0,0.1
					c0,0,0,0.1,0,0.1c0,0,0,0.1,0,0.1c0,0,0,0,0,0c0,0,0,0,0,0.1c0,0,0,0.1,0,0.1c0,0,0,0.1,0,0.1c0,0,0,0.1,0,0.1c0,0,0,0.1,0,0.1
					c0,0,0,0.1,0,0.1c0,0,0,0,0,0.1c0,0,0,0,0,0c0,0,0,0,0,0.1c0,0,0,0.1,0,0.1c0,0,0,0.1,0,0.1c0,0,0,0.1,0,0.1c0,0,0,0.1,0,0.1
					c0,0,0,0.1,0,0.1c0,0,0,0,0,0c0,0,0,0,0,0c0,0,0,0,0,0c0,0,0,0.1,0,0.1c0,0,0,0.1,0,0.1c0,0,0,0.1,0,0.1c0,0,0,0.1,0,0.1
					c0,0,0,0.1,0,0.1c0,0,0,0.1,0,0.1c0,0,0,0,0,0c0,0,0,0,0,0c0,0,0,0.1,0,0.1c0,0,0,0.1,0,0.1c0,0,0,0.1,0,0.1c0,0,0,0.1,0,0.1
					c0,0,0,0.1,0,0.1c0,0,0,0.1,0,0.1c0,0,0,0,0,0c0,0,0,0,0,0c0,0,0,0.1,0,0.1c0,0,0,0.1,0,0.1c0,0,0,0.1,0,0.1c0,0,0,0.1,0,0.1
					c0,0,0,0.1,0,0.1c0,0,0,0,0,0c0,0,0,0,0,0c0,0,0,0,0,0.1c0,0,0,0.1,0,0.1c0,0,0,0.1,0,0.1c0,0,0,0.1,0,0.1c0,0,0,0.1,0,0.1
					c0,0,0,0,0,0c0,0,0,0,0,0c0,0,0,0,0,0c0,0,0,0,0,0.1c0,0,0,0.1,0,0.1c0,0,0,0.1,0,0.1c0,0,0,0.1,0,0.1c0,0,0,0.1,0.1,0.1
					c0,0,0,0,0,0c0,0,0,0,0,0c0,0,0,0.1,0.1,0.1c0,0,0,0.1,0.1,0.1c0,0,0,0.1,0.1,0.1c0,0,0,0.1,0.1,0.1c0,0,0,0,0,0c0,0,0,0,0,0
					c0,0,0,0.1,0.1,0.1c0,0,0,0.1,0.1,0.1c0,0,0,0.1,0.1,0.1c0,0,0,0,0,0c0,0,0,0,0,0c0.1,0.1,0.1,0.2,0.2,0.3c0,0,0,0,0,0
					c0,0,0,0,0,0c0,0,0,0,0,0c0.1,0.1,0.1,0.1,0.2,0.2c0,0,0,0,0,0c0,0,0.1,0.1,0.1,0.1c0,0,0.1,0,0.1,0.1c0,0,0,0,0,0
					c0.1,0,0.1,0.1,0.2,0.1c0,0,0,0,0,0c0,0,0,0,0,0C118.2,314.6,118.2,314.6,118.3,314.6z"/>
				<g>
					<polygon class="st7" points="160.9,113.2 182.8,268.4 125.4,293.4 96.6,78.2 					"/>
				</g>
				<g>
					<path class="st8" d="M159.8,99.4c0.2,0.1,0.4,0.4,0.6,0.8c0.2,0.4,0.4,1,0.6,1.7c0.2,0.7,0.4,1.4,0.6,2.3
						c0.2,0.8,0.3,1.7,0.5,2.7l23.7,168.4c0.1,0.9,0.2,1.8,0.3,2.7c0.1,0.8,0.1,1.6,0,2.3c0,0.7-0.1,1.2-0.2,1.6
						c-0.1,0.4-0.2,0.7-0.4,0.8l-58.8,31.1c-0.3,0.2-0.6,0-0.9-0.3c-0.3-0.3-0.7-0.9-1-1.6c-0.3-0.7-0.6-1.7-0.9-2.7
						c-0.3-1.1-0.5-2.3-0.7-3.6l-32-239.2c-0.2-1.3-0.3-2.4-0.3-3.5c0-1,0-1.9,0.1-2.6c0.1-0.7,0.3-1.2,0.5-1.5
						c0.2-0.3,0.5-0.4,0.9-0.2L159.8,99.4z M182.8,268.4l-21.8-155.2l-64.3-35l28.8,215.2L182.8,268.4"/>
				</g>
				<path class="st6" d="M82.8,64.6c0,0,14.2,205.2,33.3,246.8L82.8,64.6z"/>
			</g>
		</g>
	</g>
	<g>
		<g>
			<g>
				<path class="st3" d="M562.8,250.6l16,67.5c0.7,2.8,0.5,5.7-0.7,8.3c-1.3,2.8-4,5.6-9.5,6.2c-13.7,1.5-80.3-1.4-80.3-1.4
					s-0.6-0.1-1.3,0.3c-0.7,0.5-0.7,0.9-0.7,0.9l21.4,15.9c0,0,81.6,0.1,86.1-3.3c4.4-3.3,9.8-13.1,2.8-32
					c-7-18.9-29.6-93.2-29.6-93.2L562.8,250.6z"/>
				<path class="st4" d="M568.7,332.7c-4.7,0.5-15.6,0.5-27.8,0.3c2.6,1.9,5.2,3.8,7.8,5.6c4.4,3.1,8.9,6.2,13.4,9.2
					c16.1-0.5,30-1.3,31.8-2.6c4.4-3.3,9.8-13.1,2.8-32c-7-18.9-29.6-93.2-29.6-93.2l-4.3,30.5l16,67.5c0.7,2.8,0.5,5.7-0.7,8.3
					C576.8,329.2,574.1,332.1,568.7,332.7z"/>
				<path class="st5" d="M567.8,209.6c0,0,33.2,116.7,33.5,118.1c0.4,1.5,4,17-12.1,20.5l-81.4,0.3c0,0,0-0.5,0.4-1.2
					c0.4-0.6,1.2-0.5,1.2-0.5l76.1-1.4c3.7-0.2,7.3-1.9,9.6-4.8c2.1-2.6,3.6-6.4,2.5-12.1c-2.6-13.3-30.7-108.5-30.7-108.5
					L567.8,209.6z"/>
			</g>
			<g>
				<path class="st6" d="M548.9,314.6l-8.2-0.9c0.1,0,0.1,0,0.2,0c0,0,0,0,0,0c0.1,0,0.1,0,0.2-0.1c0,0,0,0,0,0
					c0.1,0,0.1-0.1,0.2-0.1c0,0,0,0,0,0c0.1-0.1,0.1-0.1,0.2-0.2c0,0,0,0,0-0.1c0.1-0.1,0.1-0.2,0.2-0.3c0,0,0,0,0,0
					c0.1-0.1,0.1-0.2,0.2-0.4c0,0,0,0,0,0c0.1-0.1,0.1-0.3,0.2-0.5c0,0,0,0,0,0c0.1-0.2,0.1-0.3,0.2-0.5c0,0,0,0,0,0
					c0.1-0.2,0.1-0.4,0.2-0.6c0,0,0,0,0,0c0.1-0.2,0.1-0.4,0.2-0.6c0,0,0,0,0,0c0.1-0.2,0.1-0.4,0.2-0.7c0,0,0,0,0,0
					c0.1-0.2,0.1-0.5,0.2-0.7c0,0,0,0,0,0c0.1-0.3,0.1-0.5,0.2-0.8c0,0,0,0,0,0c0.1-0.3,0.1-0.5,0.2-0.8c0,0,0,0,0,0
					c0.1-0.3,0.1-0.6,0.1-0.9c0,0,0,0,0,0c0-0.3,0.1-0.6,0.1-0.9l32-239.2c0-0.3,0.1-0.5,0.1-0.8c0-0.1,0-0.2,0-0.3
					c0-0.2,0-0.3,0-0.5c0-0.1,0-0.2,0-0.3c0-0.1,0-0.3,0-0.4c0-0.1,0-0.2,0-0.3c0-0.1,0-0.3,0-0.4c0-0.1,0-0.2,0-0.3
					c0-0.1,0-0.3,0-0.4c0,0,0,0,0,0c0-0.2,0-0.4,0-0.6c0,0,0,0,0,0c0-0.2,0-0.4,0-0.6c0,0,0,0,0,0c0-0.2,0-0.4,0-0.5c0,0,0,0,0,0
					c0-0.2,0-0.3-0.1-0.5c0,0,0,0,0,0c0-0.2-0.1-0.3-0.1-0.4c0,0,0,0,0,0c0-0.1-0.1-0.3-0.1-0.4c0,0,0,0,0,0c0-0.1-0.1-0.2-0.1-0.3
					c0,0,0,0,0,0c0-0.1-0.1-0.2-0.1-0.3c0,0,0,0,0,0c0-0.1-0.1-0.1-0.2-0.2c0,0,0,0,0,0c-0.1-0.1-0.1-0.1-0.2-0.1c0,0,0,0,0,0
					c-0.1,0-0.1-0.1-0.2-0.1c0,0,0,0,0,0h0l0,0c1.5,0.3,6.6,0.9,8.1,1.2c0,0,0,0,0,0c0,0,0,0,0,0c0,0,0,0,0,0c0,0,0,0,0,0
					c0,0,0,0,0,0c0,0,0,0,0,0c0,0,0,0,0,0c0,0,0,0,0,0c0,0,0,0,0,0c0,0,0,0,0,0c0,0,0,0,0,0s0,0,0,0c0,0,0,0,0,0c0,0,0,0,0,0
					c0,0,0,0,0,0c0,0,0,0,0,0c0,0,0,0,0,0c0,0,0,0,0,0c0,0,0,0,0,0c0,0,0,0,0,0c0,0,0,0,0,0c0,0,0,0,0,0c0,0,0,0,0,0c0,0,0,0,0,0
					c0,0,0,0,0,0c0,0,0,0,0,0c0,0,0,0,0,0c0,0,0,0,0,0.1c0,0,0,0,0,0.1c0,0,0,0,0,0c0,0,0,0,0,0c0,0,0,0,0,0c0,0,0,0,0,0
					c0,0,0,0,0,0.1c0,0,0,0,0,0.1c0,0,0,0,0,0.1c0,0,0,0,0,0.1c0,0,0,0,0,0c0,0,0,0,0,0c0,0,0,0,0,0c0,0,0,0,0,0.1c0,0,0,0.1,0,0.1
					c0,0,0,0.1,0,0.1c0,0,0,0.1,0,0.1c0,0,0,0,0,0c0,0,0,0,0,0c0,0,0,0,0,0c0,0,0,0.1,0,0.1c0,0,0,0.1,0,0.1c0,0,0,0.1,0,0.1
					c0,0,0,0.1,0,0.1c0,0,0,0,0,0c0,0,0,0,0,0c0,0,0,0.1,0,0.1c0,0,0,0.1,0,0.1c0,0,0,0.1,0,0.1c0,0,0,0.1,0,0.1c0,0,0,0,0,0
					c0,0,0,0,0,0c0,0,0,0,0,0c0,0,0,0.1,0,0.1c0,0,0,0.1,0,0.1c0,0.1,0,0.1,0,0.2c0,0,0,0.1,0,0.1c0,0,0,0,0,0c0,0,0,0,0,0
					c0,0.1,0,0.1,0,0.2c0,0.1,0,0.1,0,0.2c0,0.1,0,0.1,0,0.2c0,0,0,0,0,0c0,0,0,0,0,0c0,0.1,0,0.2,0,0.2s0,0.2,0,0.3c0,0,0,0,0,0.1
					c0,0,0,0,0,0c0,0.1,0,0.1,0,0.2c0,0.1,0,0.2,0,0.3c0,0.1,0,0.2,0,0.2c0,0,0,0.1,0,0.1c0,0,0,0.1,0,0.1c0,0.1,0,0.2,0,0.3
					c0,0.1,0,0.2,0,0.3c0,0,0,0,0,0.1c0,0.1,0,0.2,0,0.3c0,0.1,0,0.2,0,0.3c0,0,0,0,0,0.1c0,0.1,0,0.3,0,0.4c0,0.1,0,0.2,0,0.3
					c0,0,0,0,0,0c0,0.1,0,0.1,0,0.2c0,0.1,0,0.1,0,0.2c0,0.1,0,0.1,0,0.2c0,0.1,0,0.1,0,0.2l-31.9,239c0,0,0,0,0,0c0,0,0,0,0,0
					c0,0,0,0,0,0c0,0,0,0,0,0c0,0.1,0,0.1,0,0.2c0,0.1,0,0.1,0,0.2c0,0.1,0,0.1,0,0.2s0,0.1,0,0.2c0,0,0,0.1,0,0.1c0,0,0,0,0,0
					c0,0,0,0,0,0c0,0.1,0,0.1,0,0.2c0,0.1,0,0.1,0,0.2c0,0.1,0,0.1,0,0.2c0,0,0,0.1,0,0.1s0,0.1,0,0.1c0,0,0,0.1,0,0.1c0,0,0,0,0,0
					c0,0,0,0,0,0.1c0,0,0,0.1,0,0.1c0,0,0,0.1,0,0.1c0,0,0,0.1,0,0.1s0,0.1,0,0.1c0,0,0,0.1,0,0.1c0,0,0,0,0,0.1c0,0,0,0,0,0
					c0,0,0,0,0,0.1c0,0,0,0.1,0,0.1c0,0,0,0.1,0,0.1c0,0,0,0.1,0,0.1c0,0,0,0.1,0,0.1c0,0,0,0.1,0,0.1c0,0,0,0,0,0c0,0,0,0,0,0
					c0,0,0,0,0,0c0,0,0,0.1,0,0.1c0,0,0,0.1,0,0.1s0,0.1,0,0.1c0,0,0,0.1,0,0.1c0,0,0,0.1,0,0.1c0,0,0,0.1,0,0.1c0,0,0,0,0,0
					c0,0,0,0,0,0c0,0,0,0.1,0,0.1c0,0,0,0.1,0,0.1c0,0,0,0.1,0,0.1c0,0,0,0.1,0,0.1c0,0,0,0.1,0,0.1c0,0,0,0.1,0,0.1c0,0,0,0,0,0
					c0,0,0,0,0,0c0,0,0,0.1,0,0.1c0,0,0,0.1,0,0.1c0,0,0,0.1,0,0.1c0,0,0,0.1,0,0.1c0,0,0,0.1,0,0.1c0,0,0,0,0,0c0,0,0,0,0,0
					c0,0,0,0,0,0.1c0,0,0,0.1,0,0.1c0,0,0,0.1,0,0.1c0,0,0,0.1,0,0.1c0,0,0,0.1,0,0.1c0,0,0,0,0,0c0,0,0,0,0,0c0,0,0,0,0,0
					c0,0,0,0,0,0.1c0,0,0,0.1,0,0.1c0,0,0,0.1,0,0.1c0,0,0,0.1,0,0.1c0,0,0,0.1-0.1,0.1c0,0,0,0,0,0c0,0,0,0,0,0c0,0,0,0.1-0.1,0.1
					c0,0,0,0.1-0.1,0.1c0,0,0,0.1-0.1,0.1c0,0,0,0.1-0.1,0.1c0,0,0,0,0,0c0,0,0,0,0,0c0,0,0,0.1-0.1,0.1c0,0,0,0.1-0.1,0.1
					c0,0,0,0.1-0.1,0.1c0,0,0,0,0,0c0,0,0,0,0,0c-0.1,0.1-0.1,0.2-0.2,0.3c0,0,0,0,0,0c0,0,0,0,0,0c0,0,0,0,0,0
					c-0.1,0.1-0.1,0.1-0.2,0.2c0,0,0,0,0,0c0,0-0.1,0.1-0.1,0.1c0,0-0.1,0-0.1,0.1c0,0,0,0,0,0c-0.1,0-0.1,0.1-0.2,0.1c0,0,0,0,0,0
					c0,0,0,0,0,0C549.1,314.6,549,314.6,548.9,314.6z"/>
				<g>
					<polygon class="st7" points="506.3,113.2 484.5,268.4 541.8,293.4 570.6,78.2 					"/>
				</g>
				<g>
					<path class="st8" d="M574.8,58.2c0.3-0.2,0.6-0.1,0.9,0.2c0.2,0.3,0.4,0.8,0.5,1.5c0.1,0.7,0.2,1.6,0.1,2.6
						c0,1-0.1,2.2-0.3,3.5l-32,239.2c-0.2,1.3-0.4,2.5-0.7,3.6c-0.3,1.1-0.6,2-0.9,2.7c-0.3,0.7-0.6,1.3-1,1.6
						c-0.3,0.3-0.6,0.4-0.9,0.3l-58.8-31.1c-0.2-0.1-0.3-0.4-0.4-0.8c-0.1-0.4-0.1-1-0.2-1.6c0-0.7,0-1.4,0-2.3
						c0.1-0.8,0.1-1.7,0.3-2.7l23.7-168.4c0.1-0.9,0.3-1.8,0.5-2.7c0.2-0.8,0.4-1.6,0.6-2.3c0.2-0.7,0.4-1.2,0.6-1.7
						c0.2-0.4,0.4-0.7,0.6-0.8L574.8,58.2z M484.5,268.4l57.3,24.9l28.8-215.2l-64.3,35L484.5,268.4"/>
				</g>
				<path class="st6" d="M584.4,63.9c0,0-14.2,205.8-33.3,247.4L584.4,63.9z"/>
			</g>
		</g>
	</g>
</g>
<polygon class="st7" points="353.6,221 289.5,221 289.5,207.2 261.5,231.2 289.5,255.2 289.5,241.8 353.6,241.8 "/>
<g>
	<linearGradient id="SVGID_2_" gradientUnits="userSpaceOnUse" x1="539.3" y1="246.9086" x2="512.0226" y2="245.6249">
		<stop  offset="0.1559" style="stop-color:#FFFFFF"/>
		<stop  offset="0.7174" style="stop-color:#9FAEC3"/>
		<stop  offset="0.9653" style="stop-color:#7389A7"/>
	</linearGradient>
	<polygon class="st9" points="507.3,267.6 544.7,267.1 547.8,225.2 514.7,232 	"/>
	<g>
		<g>
			<g>
				<path class="st10" d="M448.6,245.9v-60.2c0-2-6.4-11.3-8.4-11.3H390c-1.4,0-2.6-0.8-3.2-2l-1.4-2.9c-0.3-0.6-1-1-1.7-1h-27.2
					c-0.7,0-1.3,0.4-1.7,1l-1.4,2.9c-0.6,1.2-1.9,2-3.2,2H350c-2,0-3.7,1.7-3.7,3.7v67.8H448.6z"/>
			</g>
			<rect x="349.7" y="177" class="st7" width="90" height="67"/>
			<path class="st11" d="M445.4,178.3l-1.4-2.9c-0.3-0.6-1-1-1.7-1h-53.1c-0.7,0-1.3,0.4-1.7,1l-1.4,2.9c-0.6,1.2-1.9,2-3.2,2h-34.4
				c-1.2,0-2.2,1-2.2,2.2v65.7c0,1.4,1.1,2.6,2.6,2.6H446c1.4,0,2.6-1.1,2.6-2.6v-67.9l0,0C447.2,180.3,446,179.5,445.4,178.3z"/>
			<path class="st12" d="M420.3,238.9c-8.3-4.4-16.5-9.1-24.5-14.2c-9.7-6.1-18.9-12.9-27.5-20.5c-7.9-7-15.1-14.8-21.7-23
				c-0.3,0.4-0.4,0.8-0.4,1.3v65.7c0,1.4,1.1,2.6,2.6,2.6H446c0.6,0,1.2-0.2,1.7-0.6C438.2,247.6,429,243.4,420.3,238.9z"/>
		</g>
		<g>
			<path class="st13" d="M481.8,241.2l-27.7,5.1c0,0,0,0,0,0c0,0,0,0,0,0c0,0-0.1-0.1-0.1-0.1c-0.1-0.1-0.2-0.2-0.3-0.3
				c-0.1-0.1-0.2-0.1-0.3-0.2c-0.1,0-0.1-0.1-0.2-0.1c-10.4-8.2-22.2-6-25.8-6.7c-3.7-0.8-3.7-1.4-9.1-4c-8.3-4.1-11.7-0.4-12.1,2
				c0,0,12.3,8,14.7,9.5c2,1.3,1.5,3,0.5,3.7c-0.6,0.5-1.4,0.7-2.1,0.7h-16.6l13.6,12.7c0,0,2.3,2.8,6.3,2.8
				c1.7,0,20.4-0.9,29.1-1.3l23.2-0.1L481.8,241.2z"/>
			<path class="st14" d="M420.7,250.4c0.6,0,1.9-0.1,2.4-0.3c4.4-1.9,0.8-5.1,0.5-5.3c-2.9-2-15.9-8.6-17-9.3
				c-0.3,0.4-0.4,0.9-0.5,1.3c0,0,12.3,8,14.7,9.5C422.9,247.7,422.5,249.8,420.7,250.4z"/>
			<path class="st14" d="M455.3,246.1c0.2,1.7,0.4,3.4,0.3,5.2c-0.2,3.3-1.4,6.2-4.4,7.8c-3.5,1.9-23.3,2.8-28.3,1.7
				c-2.6-0.5-16.4-8.2-18.1-9.3c-0.3-0.2-0.6-0.4-0.9-0.6h-1.2l13.6,12.7c0,0,2.3,2.8,6.3,2.8c1.7,0,20.4-0.9,29.1-1.3l23.2-0.1
				l6.9-23.7L455.3,246.1z"/>
			<path class="st7" d="M458.4,266.3c0,0,17.1-0.4,17.1-0.4L482,240l-24.5,3C457.5,244.5,458.3,262.7,458.4,266.3z"/>
			<path class="st14" d="M458.8,256.8c-0.3,0-0.5,0-0.8,0c0.2,4.1,0.3,7.9,0.3,9.4c0,0,17.1-0.4,17.1-0.4l3.3-13.4
				C472.4,254.6,465.7,256.2,458.8,256.8z"/>
			<path class="st15" d="M519.3,231.1c-19.1,3.5-36.2,6.5-55.5,8.9l0.3,28.9c16.8-0.3,33.7-0.8,50.7-1.7
				C524.3,255.5,519.3,231.2,519.3,231.1z"/>
			<path class="st16" d="M512.6,250.9c-6.7,2.5-13.6,4.3-20.7,5.4c-7,1-14,1.7-21.1,0.8c-2.3-0.3-4.6-0.6-6.9-1.2l0.1,13
				c16.8-0.3,33.7-0.8,50.7-1.7c4.2-5.2,5.6-12.8,5.8-19.7C518,248.8,515.3,249.9,512.6,250.9z"/>
		</g>
	</g>
</g>
<polygon class="st7" points="412.3,140.4 384.2,116.4 384.2,129.8 320.2,129.8 320.2,150.6 384.2,150.6 384.2,164.4 "/>
<g>
	<linearGradient id="SVGID_3_" gradientUnits="userSpaceOnUse" x1="110.1322" y1="131.8372" x2="140.5166" y2="126.1843">
		<stop  offset="0.1535" style="stop-color:#FFFFFF"/>
		<stop  offset="0.7407" style="stop-color:#9FAEC3"/>
		<stop  offset="1" style="stop-color:#7389A7"/>
	</linearGradient>
	<polygon class="st17" points="132.5,111.4 103.3,112.2 107.5,153 138.6,147.5 	"/>
	<g>
		<g>
			<g>
				<g>
					<path class="st18" d="M225.5,198.5v-60.2c0-2,6.4-11.3,8.4-11.3h50.1c1.4,0,2.6-0.8,3.2-2l1.4-2.9c0.3-0.6,1-1,1.7-1h27.2
						c0.7,0,1.3,0.4,1.7,1l1.4,2.9c0.6,1.2,1.9,2,3.2,2h0.2c2,0,3.7,1.7,3.7,3.7v67.8H225.5z"/>
				</g>
				
					<rect x="234.4" y="129.6" transform="matrix(-1 -1.224647e-16 1.224647e-16 -1 558.8127 326.2859)" class="st7" width="90" height="67"/>
				<path class="st19" d="M228.8,130.9l1.4-2.9c0.3-0.6,1-1,1.7-1h53.1c0.7,0,1.3,0.4,1.7,1l1.4,2.9c0.6,1.2,1.9,2,3.2,2h34.4
					c1.2,0,2.2,1,2.2,2.2v65.7c0,1.4-1.1,2.6-2.6,2.6h-97.1c-1.4,0-2.6-1.1-2.6-2.6v-67.9l0,0C226.9,132.9,228.2,132.1,228.8,130.9z
					"/>
				<path class="st20" d="M312.3,194.6c-8.5-3.8-16.4-8.6-24.5-13.2c-7.9-4.5-15.8-9-23.3-14c-14-9.2-28.4-20.4-37-35.1
					c-0.6,0.3-1.2,0.5-1.9,0.5v67.9c0,1.4,1.1,2.6,2.6,2.6h97.1c1.4,0,2.6-1.1,2.6-2.6v-0.7C322.4,198.9,317.1,196.8,312.3,194.6z"
					/>
			</g>
			<path class="st21" d="M244,131.8c-2-1.3-0.9-3,0-3.7c1.3-1,18.2-1.2,18.2-1.2s-9.5,0.1-15.2,0c-8.9-0.3-17.7-1-21.1-0.4
				c0.5,1.1,0.6,2.6,0.3,3.8c-0.2,0.7-0.5,1.3-1,1.9c0.2,0.6,0.3,1.2,0.3,1.8l0,6.9c5.6,1.8,9.7-0.1,11.7,0.3
				c3.7,0.8,3.7,0.1,9.1,2.7c8.3,4.1,10.5-0.2,12.1-2C258.5,141.8,246.4,133.3,244,131.8z"/>
		</g>
		<g>
			<path class="st22" d="M243.4,127.7c0.6-0.5,1.4-0.7,2.1-0.7h16.6l-13.6-12.7c0,0-2.3-2.8-6.3-2.8c-1.7,0-20.4,0.9-29.1,1.3
				l-23.2,0.1l-6.9,23.7l27.7-5.1c0,0,0,0,0,0c0,0,0,0,0,0c0,0,0.1,0.1,0.1,0.1c0.1,0.1,0.2,0.2,0.3,0.3c0.1,0.1,0.2,0.1,0.3,0.2
				c0.1,0,0.1,0.1,0.2,0.1c10.4,8.2,22.2,6,25.8,6.7c3.7,0.8,2.8,0.9,8.1,3.5c8.3,4.1,11,0.6,12.1-1.3c0,0-11.4-8.2-13.7-9.8
				C241.9,130,242.5,128.4,243.4,127.7z"/>
			<path class="st23" d="M249.6,142c-2-0.7-5.3-2.8-7-3.9c-1.9-1.2-3.7-2.6-5.7-3.6c0,0,0,0,0,0c-0.2,0-0.3-0.1-0.5-0.2c0,0,0,0,0,0
				c-0.2,0-0.4,0-0.5,0c-1.1,0-2.2,0.1-3.2,0.1c-2.7,0.1-5.5-0.5-8.1-1.1c-2.5-0.6-4.9-1.6-7.3-2.6c-2.1-0.9-4-2-5.6-3.7
				c-2.1-2.1-2.7-4.2-2.9-7.1c-0.2-2.3-0.5-4.7-0.6-7l-18.2,0.1l-6.9,23.7l27.7-5.1c0,0,0,0,0,0c0,0,0,0,0,0c0,0,0.1,0.1,0.1,0.1
				c0.1,0.1,0.2,0.2,0.3,0.3c0.1,0.1,0.2,0.1,0.3,0.2c0.1,0,0.1,0.1,0.2,0.1c10.4,8.2,22.2,6,25.8,6.7c3.7,0.8,2.8,0.9,8.1,3.5
				c6.6,3.2,9.6,1.7,11.2,0.1C254,143.5,252.2,142.9,249.6,142z"/>
			<path class="st7" d="M206.4,111.4c0,0-17.1,0.4-17.1,0.4l-6.5,25.9l24.5-3C207.3,133.2,206.5,115,206.4,111.4z"/>
			<path class="st14" d="M198.3,125c-1.6-0.9-2.9-2.7-3.4-4.4c-0.5-1.7-0.3-4.2,0.8-5.7c0.3-0.4,0.5-0.7,0.7-1.1
				c0-0.1,0.1-0.2,0.1-0.3c0-0.1,0.1-0.2,0.1-0.3c0.1-0.3,0.2-0.7,0.3-1c0-0.2,0.1-0.3,0.1-0.5c-4,0.1-7.7,0.2-7.7,0.2l-6.5,25.9
				l24.5-3c0-0.8-0.2-5.6-0.4-10.7C204.5,126.1,201.4,126.6,198.3,125z"/>
			<path class="st15" d="M138.6,147.5c18.7-3.4,44.5-7.7,63.5-10.1l-1.4-28.6c-21.2,0.4-46.9,1.3-68.2,2.7
				C129.3,135.9,138.1,146.8,138.6,147.5z"/>
			<path class="st16" d="M167.7,128.4c-6.3-0.8-12.7-2-18.7-4.3c-5.6-2.2-11.1-5.1-15.2-9.6c-0.7-0.7-1.2-1.5-1.5-2.4
				c-2.9,24,5.8,34.7,6.2,35.3c18.7-3.4,44.5-7.7,63.5-10.1l-0.4-8.5C190.4,129.9,179,129.9,167.7,128.4z"/>
		</g>
	</g>
</g>
</svg>
