<?xml version="1.0" encoding="utf-8"?>
<!-- Generator: Adobe Illustrator 23.1.1, SVG Export Plug-In . SVG Version: 6.00 Build 0)  -->
<svg version="1.1" id="レイヤー_1" xmlns="http://www.w3.org/2000/svg" xmlns:xlink="http://www.w3.org/1999/xlink" x="0px"
	 y="0px" width="124px" height="160px" viewBox="0 0 124 160" style="enable-background:new 0 0 124 160;" xml:space="preserve">
<style type="text/css">
	.st0{fill:#FFFFFF;}
	.st1{fill:#ACD7F9;}
	.st2{fill:#F5E481;}
	.st3{fill:#35486B;}
	.st4{fill:#E2E5EA;}
	.st5{fill:#B9BCBE;}
</style>
<path class="st0" d="M7.8,156c-2.7,0-5-2.2-5-4.9c-0.1-4.2,0-8.4,0.1-12.4h0c0.3-10.5,0.9-23,2.8-35.7c0-0.2,0-0.4,0.1-0.6
	c0.1-0.5,0.1-0.9,0.2-1.4l0-0.3c0.2-1.4,1.1-2.6,2.3-3.4l0.9-0.6c0.5-0.5,1.1-0.9,1.8-1.1c5.6-3.6,11.5-7.2,17.3-10.7
	c0.1,0,0.1-0.1,0.2-0.1c2.5-1.5,4.9-3,7.4-4.4l1.7-1c0.1,0,0.1-0.1,0.2-0.1c0,0,3.6-2.1,3.6-2.2l0,0c0.3-0.2,0.6-0.4,0.9-0.5
	c0.6-0.4,1.2-0.8,1.9-1.1c0,0,0.2-0.1,0.2-0.1c0.2-0.1,0.4-0.2,0.7-0.4c0,0,0-0.1,0-0.1c-2.9-1-6.4-3.1-7.8-7.5
	c-1.2-3.2-2-6.5-2.5-9.7c-2.3-1.1-4.1-3.1-4.8-5.7c-1-3.3-0.3-7.1,1.5-10c-1-7.6,1.4-18.8,4.1-23.8c0-0.1,0.1-0.1,0.1-0.2
	c3-5.6,6.6-9.3,10.9-11.4c0.2-0.1,0.3-0.1,0.5-0.2c0.1,0,0.2-0.1,0.4-0.2c0.8-0.3,2-0.9,3.5-1c0,0,0.4-0.1,0.4-0.1
	C51.6,5,52,4.9,52.4,4.8c3.6-1,7.3-1.5,10.9-1.5c6.1,0,11.8,1.5,16.5,4.4c6.3,2.5,11.2,7.1,13.3,12.9c0.6,1.2,1.3,2.3,2.2,3.3
	c5.8,4.7,3,10.4,2,12.6c-0.1,0.3-0.3,0.6-0.5,1c0.9,1.6,1.3,3.2,1.2,4.9c-0.1,1.5-0.8,3.8-3.3,5.9c-0.1,0.1-0.2,0.1-0.3,0.2
	c-0.1,0.1-0.3,0.2-0.4,0.3c0.4,2.4,0.1,4.9-1,6.9c-1.2,2.3-3.2,3.9-5.6,4.5c0,0,0,0,0,0.1c-0.2,0.8-0.3,1.7-0.5,2.6
	c-0.7,3.9-1.6,9.3-6.7,12.2c0.4,0.1,0.7,0.3,1,0.5c1.5,0.9,2.9,1.7,4.4,2.6l0.6,0.3c0.1,0.1,0.2,0.1,0.3,0.2l1.5,0.9
	c0.1,0.1,0.2,0.1,0.3,0.2c7.3,4.2,15,8.5,23.4,12.9c0.1,0,0.1,0.1,0.2,0.1c0,0,1.5,0.8,1.8,0.9c1.3,0.6,2.2,1.8,2.5,3.2
	c0.2,0.6,0.4,1.3,0.5,1.9c0.1,0.4,0.1,0.7,0.1,1.1c3.9,18.2,4.5,36.9,4.6,51.2c0,1.3-0.5,2.6-1.5,3.6c-0.9,0.9-2.2,1.5-3.5,1.5H7.8z
	"/>
<path class="st1" d="M82.8,48.1c-4.5-3.1-10.4-4.4-15.6-6C66.7,49.8,53,37,51.4,34.3c-19,29.5-14.2-0.8-6-13.9
	c4.1-5.5,10.4-8.4,17-9.3c2.7-0.2,6.9-1.9,9.5-0.2c6.9,0.3,14.2,4.6,16.6,11.4c0,0,0,0,0,0c0.9,2,2,3.7,3.5,5.2
	c4.9,3.7-0.9,6.9-0.4,11.1c1.8,2,2.2,3.8,0,5.6C89.1,46.1,86.1,48.9,82.8,48.1"/>
<path class="st2" d="M72.8,60.6c-0.2-0.1-0.5-0.3-0.7-0.5c-4.4-0.6-2.1-7.5,2.8-6.7C81.6,55.1,79,62.9,72.8,60.6"/>
<path class="st2" d="M50.5,60.1c-0.6-0.2-1.1-0.4-1.4-1c-4.5-2.2,0.1-7.6,3.9-6.3C58,54.7,55.9,61.4,50.5,60.1"/>
<path class="st3" d="M51.4,79.3c-0.2-0.1-0.4-0.2-0.7-0.3c0-0.6,0-1.2,0.1-1.9c0.1,0.1,0.2,0.1,0.3,0.2c0,0.1,0,0.2,0,0.2
	c0.4,0.2,0.7,0.4,1.1,0.5c0,0.5,0,1-0.1,1.5C51.9,79.6,51.7,79.4,51.4,79.3"/>
<path class="st3" d="M74.2,79c-0.2-0.3-0.5-0.6-0.6-1c0,0.3,0,0.7,0,1c0.1,0,0.1,0,0.2,0c0,0,0,0,0,0c-0.1,0-0.1,0.1-0.2,0.1v0
	c-0.1,0-0.1,0.1-0.2,0.1c0-0.5,0-1,0-1.5c0.5,0,0.9-0.3,1.3-0.5c0,0,0.1,0,0.1,0.1c0,0.8,0.2,1.6,0,2.3C74.5,79.5,74.4,79.2,74.2,79
	"/>
<path class="st3" d="M61.5,83.9c-4.1-1.8-8.1-3.6-12.1-5.6c0.4-0.4,0.3-0.9,0.4-1.4c0.1,0,0.2,0.1,0.2,0.1c0,0-0.1,0-0.1,0
	c4,2,8.1,3.8,12.1,5.6C62.9,83,62.3,84.3,61.5,83.9"/>
<path class="st3" d="M61.5,83.9c-0.2-0.1-0.4-0.2-0.6-0.3c0.4-0.4,1-0.5,1.5-0.8C62.7,83.4,62.1,84.2,61.5,83.9"/>
<path class="st3" d="M72.2,79.7C72.2,79.7,72.1,79.7,72.2,79.7c-0.1-0.4-0.1-0.8,0-1.2c0.8-0.5,1.7-0.7,2.5-1.2
	c0.4,0.3,0.5,0.7,0.8,1c-0.4,0.3-0.9,0.4-1.3,0.7c-0.2-0.3-0.5-0.6-0.6-1c0,0.4,0,0.8,0,1.1C73.1,79.4,72.7,79.7,72.2,79.7"/>
<path class="st3" d="M76.2,81.6c-0.8-1.2-2.3-2.3-2.6-3.8c0.4-0.1,0.7-0.3,1.1-0.5c0.9,1.1,1.7,2.3,2.7,3.4
	C77.9,81.4,76.8,82.3,76.2,81.6"/>
<path class="st3" d="M47.7,81.9c-1-1.1,1.8-3,2.2-4.2c1.2-0.8,1.6,0.8,0.7,1.5C49.7,79.9,49.1,82.3,47.7,81.9"/>
<path class="st3" d="M62.1,133c-5.2-17.7-10.5-35.4-15.7-53.1c0.4-0.2,0.7-0.4,1.1-0.6c5.3,16.3,9.8,33.2,14.8,49.8c0,0,0,0,0,0
	c0.1,1.2,1.9,3.8,0.6,4.4C62.6,133.6,62.2,133.4,62.1,133"/>
<path class="st3" d="M61.8,133.6c-1.4-0.6,0.5-3.3,0.5-4.5h0l0,0c4.1-13.8,8.2-27.7,12.2-41.5c0,0,0,0.1,0,0.1
	c0.7-2.4,1.4-4.9,2.2-7.3c0.3-0.9,1.7-0.4,1.3,0.5c0,0,0-0.1,0-0.1c-0.7,2.4-1.4,4.8-2.1,7.3c0,0,0,0,0,0
	c-4.4,15-8.9,30.1-13.3,45.1c0,0,0,0,0,0C62.6,133.4,62.2,133.7,61.8,133.6"/>
<path class="st3" d="M57.5,95.1c-1.4-0.9,3.7-8,4.5-9.3c1-1.6,2.4,0,1,1.1c0,0,0,0,0,0c0,0,0,0,0,0c-1.3,1.7-2.3,3.5-3.3,5.5
	C59,93.3,58.8,95.5,57.5,95.1"/>
<path class="st3" d="M68.2,92.2c-0.8-0.9-1.7-1.7-2.5-2.5c0,0,0,0,0,0c-0.6-1-4.8-3.6-3-4.5c0,0-0.1,0-0.1,0c1-0.4,5.2,5,6.5,5.9
	C69.9,91.7,68.9,92.8,68.2,92.2"/>
<path class="st3" d="M59.9,96.8c0.1-1.1-2.2-8.3,0.5-5.8c0,0,0,0,0,0c0.2,1.8,0.6,3.5,0.9,5.3h0C61.7,97.4,60.1,98,59.9,96.8"/>
<path class="st3" d="M65,97.3c-0.5-0.1-0.7-0.6-0.5-1c0,0,0,0,0,0c0.3-2,0.8-4.1,1-6.1c0,0,0,0,0,0v0v0c0,0,0,0,0,0v0c0,0,0,0,0,0
	c0-0.2,0-0.3,0.1-0.5h0c0.3-0.6,1.2-0.4,1.3,0.2v0c0,0,0,0.1,0,0.1v0c0,0.1,0,0.2,0,0.3c0,0,0,0,0,0C66.5,91.4,66.5,97.5,65,97.3"/>
<path class="st3" d="M61.3,97.7H61v0c-0.5-0.1-1,0.1-1.4-0.2c0-0.4,0.1-0.8,0.2-1.2c0.5-0.2,1,0,1.5,0c0,0,0,0,0,0
	c1.2,0.4,3.8-0.8,4.2,0.6c0,0.8-1,0.8-1.6,0.8l0,0C63,97.8,62.1,97.8,61.3,97.7"/>
<path class="st3" d="M57.7,118.3c0.5-6.5,1-13.1,1.8-19.6c0.4-1-0.2-4.4,1.6-3.5c0.2,0.8,0.1,1.6,0,2.5h0c-0.9,7.4-1.5,14.9-2,22.4
	c0,0,0,0,0,0c0,0.4,0,0.9-0.5,1C58.3,120.2,58,119.2,57.7,118.3"/>
<path class="st3" d="M65.9,117.2c-0.8-7.1-1.4-13.9-2.1-20.9c0.2,0,0.5,0,0.7,0c0-0.2,0.1-0.5,0.1-0.7c0.2,0,0.4,0.2,0.5,0.4
	c0,0,0,0,0-0.1c0.4,3.2,0.7,6.5,1,9.7c0,0,0,0,0,0c0.1,5.1,2.2,10.3,0.2,15.2C66.2,119.6,66,118.4,65.9,117.2"/>
<path class="st3" d="M109.1,98.3c-0.7-0.3-41.7-22.1-30.3-18.6c10.7,6.5,21.6,12.5,32.7,18.3c0.2,0.6,0.3,1.2,0.5,1.9
	C111,99.4,110,98.9,109.1,98.3"/>
<path class="st3" d="M10.8,103.2c-0.1,0-0.1,0-0.2,0c0.1-0.5,0.2-1,0.3-1.6c6.6-4.2,13.2-8.3,19.9-12.3v0c4.3-2.6,8.5-5.1,12.8-7.7
	v0c0,0,0,0,0,0h0c0,0,0.1-0.1,0.2-0.1v0c1.2-0.7,2.5-1.6,3.8-2.2c0.3,0.2,0.3,0.6,0.4,0.9c0.3-0.3,0.5-0.7,0.8-1
	c0.7,0.5,0.2,1.4-0.6,1.4c-5.9,3.3-11.6,6.9-17.5,10.4h0v0C23.9,94.8,17.5,99.4,10.8,103.2"/>
<path class="st3" d="M7.8,151c-0.1-4,0-8.1,0.1-12.1c0,0,0,0,0,0c0.4-12.5,1.1-25,3-37.3c0.6-0.3,1.1-0.7,1.7-1.1c0-0.1,0-0.1,0-0.2
	C9.8,117.1,9,134.1,9.2,151H7.8z"/>
<path class="st3" d="M27.3,151c0.6-10,1.5-19.9,2-29.9c0.1-0.9,1.5-0.8,1.4,0.1h0c-0.5,9.9-1.4,19.9-2,29.8L27.3,151z"/>
<path class="st3" d="M85.9,94.6c-0.7-3.9-1.5-7.8-1.8-11.7c0.5,0.3,1,0.6,1.5,0.9c0.5,3.5,1,7.1,1.7,10.6c-0.4,0.2-0.8,0.4-1.2,0.6
	C86,94.8,85.9,94.7,85.9,94.6"/>
<path class="st3" d="M39.2,95.7c-0.3-0.1-0.6-0.2-0.9-0.4c0.6-3.9,1.2-7.8,1.7-11.7c0.5-0.3,1-0.6,1.6-0.9c0.1-0.6-1.1,8.3-2,13.2
	C39.6,95.8,39.4,95.8,39.2,95.7"/>
<path class="st3" d="M43.6,97.5c-1.7-0.7-3.5-1.4-5.2-2.1c0.1-0.5,0.2-1,0.2-1.4c1.8,0.8,3.7,1.5,5.5,2.3
	C45,96.5,44.4,97.9,43.6,97.5"/>
<path class="st3" d="M79.5,97c-1.1-0.4-0.2-1.8,0.7-1.5c2.3-0.8,4.6-1.5,6.8-2.6c0.1,0.5,0.2,1,0.3,1.5C84.8,95.3,82.2,96.7,79.5,97
	"/>
<path class="st3" d="M80.3,98.2c-0.4-0.7-0.8-1.5-1.2-2.2c0.2-0.4,0.7-0.7,1.1-0.5c0.1,0,0.1,0,0.2-0.1c1.6,2.9,3.3,5.8,5,8.7
	c-0.3,0.5-0.6,0.9-0.9,1.4C83.1,103.1,81.7,100.6,80.3,98.2"/>
<path class="st3" d="M37.5,105.1c2-3,4.1-6.1,6.1-9.2c1.6,0.4,0.8,1.4,0.2,2.4c-1.8,2.7-3.6,5.4-5.4,8.1
	C38,106,37.7,105.5,37.5,105.1"/>
<path class="st3" d="M62.4,134.4c-3.3-3.1-6.1-6.7-9.2-10c0,0,0,0,0,0c-1-1-1.9-2.1-2.9-3.1c0,0,0,0,0,0c-4.7-5-8.9-10.4-12.8-16.1
	c0.3-0.4,0.6-0.8,0.9-1.3c0.5,0.8,1.1,1.6,1.6,2.4c0,0,0,0,0,0c0.2,0.3,0.4,0.6,0.6,0.8c0,0,0,0,0,0c6,8.7,13.6,16.1,20.6,24
	c0.5,1,3,2.1,2.3,3.3C63.1,134.7,62.7,134.6,62.4,134.4"/>
<path class="st3" d="M62.3,134.8c-0.7-1.1,1.2-1.9,1.7-2.8h0v0c2.8-3,5.4-6.2,7.7-9.6c0,0,0,0,0,0c0,0,0,0,0,0c0,0,0,0,0,0
	c0.1-0.1,0.1-0.2,0.2-0.3h0c4.2-6.4,8.5-12.8,12.6-19.3c0.3,0.5,0.5,0.9,0.8,1.4c-4.2,6.4-8.3,12.8-12.6,19.1v0
	C71.6,124.8,63.8,136.1,62.3,134.8"/>
<path class="st3" d="M61.4,145.7c-1.4-0.2-0.9-2.2,0.4-1.4c1.3,0,1.9-2.4,0.3-2.3c-0.5,1.2-2-0.1-1.1-0.9
	C64.9,138.5,66.1,145.9,61.4,145.7"/>
<path class="st3" d="M38.8,53.6c-8.1-0.3-3.9-15,2.8-9.7v0c0,0,0,0,0,0.1c0,0,0,0,0,0c0.2,1-0.9,1-1.5,0.6v0
	c-1.8-0.9-3.4,0.4-4.1,2.1l0,0c-1,1.9,0,5.4,2.4,5.5C39.7,51.9,40.1,53.6,38.8,53.6"/>
<path class="st3" d="M85,55.4c-0.8,0-0.9-1.3,0-1.4c0.7,0,1.4-0.2,1.9-0.7c2.2-2.1,0.9-7.1-2.5-7c-0.9,0.9-2.3-0.2-1.2-1
	C89.7,42.6,92,55.3,85,55.4"/>
<path class="st3" d="M83.7,55.4c-1.3-0.2-0.6-1.7,0.5-1.5C85.7,54.1,84.9,55.7,83.7,55.4"/>
<path class="st3" d="M51.1,78.6c-0.5-0.1-0.9-0.4-1.4-0.7c0.1-0.8,0.1-1.6,0.2-2.4v0c0-1.5,0.6-3.5-0.4-4.6v0c0,0,0,0,0,0
	c0,0,0,0,0,0c-3.2-0.7-6.6-1.6-7.6-5.2c0,0,0,0,0,0c-1.6-4.3-2.7-9-2.6-13.6c0.3-0.7,1.3-0.6,1.4,0.2c-0.1,1.7,0.3,3.5,0.5,5.2v0
	c0.6,2.6,0.9,5.4,2.1,7.8h0c0.3,0.6,0.6,1.1,0.9,1.7l0,0c0,0,0,0,0,0c0,0,0,0,0,0c0,0,0,0,0,0c0,0,0,0,0,0c0,0,0,0,0,0c0,0,0,0,0,0
	c0.5,0.9,1.6,1.2,2.6,1.6c0,0,0,0,0,0c4.6,0.9,5,1.8,4.6,6.4v0C51.3,76.3,51.2,77.5,51.1,78.6L51.1,78.6z"/>
<path class="st3" d="M72.1,79.7L72.1,79.7c0-1.4,0.1-2.7,0.2-4.1v0c0,0,0,0,0-0.1v0c0.2-2.1,0-5.2,2.7-5.5c0,0,0,0,0,0
	c0.9-0.3,1.8-0.7,2.6-1h0c1.2-0.4,1.6-1.5,1.9-2.6v0c0.9-2.5,1-5.1,1.6-7.7v0c0-0.1,0-0.2,0.1-0.3v0c0.4-1,0.6-6.5,2.4-4.4
	c0,0,0,0,0,0c0,1.5-0.7,3.1-0.9,4.7v0c0,0.1,0,0.2-0.1,0.4v0c-1.2,5.8-0.8,11.4-8,12.6l0,0c-1,0.8-0.6,2.8-0.9,4v0
	c-0.1,1.2-0.1,2.3-0.2,3.5C73.1,79.4,72.7,79.7,72.1,79.7"/>
<path class="st3" d="M82.1,48.5c-0.8-0.1-0.7-1-0.8-1.6c0,0,0,0,0,0c0-0.8-0.7-1.4-1.4-1.7c0,0,0,0,0,0c-0.3-0.1-0.6-0.2-0.9-0.3
	c0,0,0,0,0,0c-2.9-0.9-5.9-1.5-8.8-2.6h0c-1.6-0.6-3.3-1.2-4.8-2.1c1.1,1.7,2,4.8-1.2,3.3c0,0,0,0,0,0c-5.8-1.8-11.5-5.4-13.7-11.3
	c-0.2-1-1.2-2.4-0.3-3.2c0.4-0.2,0.8-0.1,1,0.3c0.7,4,3.2,7.5,6.6,9.7c0,0-0.1,0-0.1-0.1c2.2,1.5,4.5,2.5,7,3.3c0,0,0,0,0,0
	c0,0,0.1,0,0.1,0c-0.2-1.1-3.9-5.5-1.2-5.3c1.2,1,2.3,2,3.7,2.6h0c1.1,0.5,2.2,0.9,3.3,1.3c0,0,0,0,0,0c0.1,0,0.1,0,0.2,0.1h0
	c2.8,1.1,5.9,1.6,8.7,2.5c0,0-0.1,0-0.1,0c1.2,0.4,2.5,1.1,3,2.4c0.4-1,1.9-0.2,1.3,0.7C83.1,47.1,83,48.4,82.1,48.5"/>
<path class="st3" d="M40.8,44.9c-3.1-2.1,7.5-9.6,8.3-12.4c0.8-0.9,0.1-3.2,1.6-3.4c0.6,0.1,0.8,0.8,0.5,1.3c-0.5,4.4-4.3,7-7,10
	c0,0,0,0,0,0c-0.8,0.9-1.7,1.9-2.3,3c0,0,0,0,0,0c-0.1,0.1-0.1,0.2-0.2,0.4c0,0,0,0,0,0C41.6,44.2,41.5,45,40.8,44.9"/>
<path class="st3" d="M37.3,44.6c-2.7-4.8-0.2-18.8,2.6-24.1c0,0,0,0.1,0,0.1c2-3.8,4.8-7.6,8.8-9.5c1.1-0.4,3-1.5,3.8-0.3
	c0,0,0,0,0,0c0.4,1.3-1.2,0.8-2,1.2c0,0,0,0,0,0c0,0,0,0-0.1,0h0c-3.3,1.1-5.8,3.6-7.6,6.4c0,0,0,0,0,0c-0.6,0.9-1.2,1.9-1.7,2.9v0
	c-1.1,2.2-1.9,4.7-2.5,7.1c0,0,0,0,0,0c0,0,0,0.1,0,0.1c0,0,0,0,0,0s0,0,0,0c-0.4,1.9-0.6,3.9-0.7,5.8l0,0c-0.2,2.5-0.2,5-0.1,7.5v0
	c0,0,0,0.1,0,0.1v0C37.6,42.6,38.7,44.4,37.3,44.6"/>
<path class="st3" d="M85.3,45.9c-1.2-0.2-0.6-1.4,0.2-1.8c0,0,0,0-0.1,0c0.2-0.2,0.4-0.4,0.6-0.6c0,0,0,0,0,0c0.9-1,1.7-2,1.8-3.3
	c-3.4-2.4-3-2.3-0.7-5.6c0,0,0,0,0,0c0.4-0.5,0.7-1,1-1.6c0,0,0,0,0,0c0.1-0.2,0.2-0.5,0.3-0.7c-3.6-1.3-3.7-5.3-4.4-8.4
	c-0.7-1.9-1.2-3.9-2.1-5.7v0c-0.4-1-1.1-1.9-2-2.6v0c0,0,0,0-0.1-0.1c0,0,0,0,0,0c0,0,0,0,0,0h0c-0.7-0.6-1.4-1.2-2.2-1.7
	c0,0,0,0,0,0c-3.5-2.4-7.6-4-11.8-4.3c0,0,0.1,0,0.1,0c-4.5-0.2-9.1,0.4-13.5,1.7c0,0,0,0,0,0c-0.8,0.3-1.4-1-0.5-1.3
	c0.6-0.2,1.1-0.3,1.7-0.5C63.1,7,73.7,7.9,81,14.6h0c3.6,3.4,4.4,8.9,5.4,13.5c1.3,4,5.9,1.9,2,7.3v0c-0.5,0.8-1.1,1.5-1.6,2.2
	c0.8,0.7,2.1,1,2.4,2.2C89.4,42.3,87.4,44.9,85.3,45.9"/>
<path class="st3" d="M61.6,33.3c-2-1.4-2.6-4.6-3.5-6.9c0,0,0,0,0,0c-1.7-5.6-3-12-1-17.6c0.4-0.1,0.9-0.1,1.3-0.2
	c0.2,0.3,0.2,0.6,0,0.9h0v0c-1.9,6.1-0.2,12.8,1.8,18.6C60.2,29.4,63.6,33.2,61.6,33.3"/>
<path class="st3" d="M75.8,37.1c-0.7,0-0.7-0.9-0.9-1.4l0,0c-2.1-6.2-4-12.7-8.5-17.7c-2.3-3.4-7.5-5.5-8.8-9.2
	c0.5-0.1,1-0.1,1.5-0.2c0,0.1,0,0.2,0,0.3C69.3,18.4,72,21.1,76.2,35h0C76.4,35.7,77,37,75.8,37.1"/>
<path class="st3" d="M72.4,48.9c-2.9,0.1-3.3-3.9-0.5-4.4C75.2,44.1,76.1,48.9,72.4,48.9"/>
<path class="st3" d="M72.2,79.7c0.3-0.1,0.5-0.2,0.8-0.4c0,0,0,0,0,0c0.2-0.1,0.5-0.2,0.7-0.3C73.3,79.3,72.8,79.6,72.2,79.7"/>
<path class="st3" d="M72.4,79.5c0.2-0.4,0.7-0.6,1-0.3c-0.3,0.2-0.7,0.4-1.1,0.4C72.4,79.6,72.4,79.6,72.4,79.5"/>
<path class="st3" d="M60.5,58.2c-0.6,0-1.2-0.5-1-1.2v0c0,0,0,0,0,0c0,0,0,0,0,0h0c0.2-1.6,0.5-3.1,0.7-4.7v0c0-0.1,0-0.2,0-0.2v0
	c0.4-1.8,0.1-3.8,0.9-5.5c0.3-0.3,0.9-0.2,1.1,0.2c0.2,0.5-0.2,1-0.2,1.5c0,0,0,0,0-0.1c-0.2,1.3-0.3,2.7-0.5,4v0
	c-0.2,1.5-0.4,3-0.7,4.5c1.5-0.1,3,0,4.5,0h0h0.3h0h0h0h0h0h0h0c1.1-0.1,1,1.6,0,1.4h0h0h0h0h0C64,58.1,62.3,58.1,60.5,58.2"/>
<path class="st4" d="M56.4,62.8c-0.2,0-0.4-0.1-0.5-0.3c0.4-0.3,0.7-0.7,1-1C57.5,62,57.1,62.9,56.4,62.8"/>
<path class="st3" d="M63.4,65.1c-2.7,0.1-5.6-0.4-7.6-2.4c0.4-0.3,0.7-0.6,1-1c0.5,0.4,1,0.8,1.5,1.1h0c0,0,0,0,0,0c0,0,0,0,0,0
	c0.4,0.2,0.9,0.4,1.4,0.5c0,0,0,0,0,0c1.2,0.4,2.4,0.3,3.6,0.4h0c0.9,0,1.9,0,2.8-0.2h0c0.5-0.1,1-0.3,1.5-0.5v0
	c0.3-0.2,0.7-0.3,1-0.5c0,0,0,0,0,0c0.3-0.2,0.6-0.4,0.9-0.7c0.1,0.3,0.3,0.5,0.5,0.8v0c0,0,0,0.1,0.1,0.1v0
	c0.1,0.1,0.2,0.3,0.2,0.4c-0.6,0.5-1.3,0.9-2,1.2l0,0C66.8,64.9,65.1,65.2,63.4,65.1"/>
<path class="st3" d="M95.8,151c-0.8-40.4,1-33.5,1.7,0H95.8z"/>
<path class="st3" d="M115,151c-0.1-18.1-0.9-36.5-5.3-54c0.6,0.3,1.2,0.6,1.8,1c4.1,17.3,5,35.2,5.1,53H115z"/>
<path class="st3" d="M53.8,42.1c-1.7-0.4-4.6,0-5.7-1.2c-1.6-2.6,6.3-1.5,7.4-0.7C57.5,41.4,55.2,42.5,53.8,42.1"/>
<path class="st3" d="M52,48.3c-3-0.3-2.4-4.3,0.5-4.1C55.8,44.3,55.1,48.7,52,48.3"/>
<path class="st3" d="M61.4,83.7C61.4,83.7,61.4,83.7,61.4,83.7C61.4,83.7,61.4,83.7,61.4,83.7C61.4,83.6,61.4,83.6,61.4,83.7
	c0.2-2,8.7-3.8,10.7-5.1c0,0,0,0,0,0c0.9-0.2,2.1-1.7,2.9-0.7c0.4,0.7-0.5,1.1-1,1.3c-3.7,1.9-7.7,2.9-11.4,4.7
	C62.2,84.4,61.6,84.2,61.4,83.7"/>
<path class="st5" d="M62.4,129.1c-1-3.2-2.3-7.6-3.2-10.9c0.5-6.8,1-13.7,1.9-20.5c1,0,1.9,0,2.9,0c0.8,6.5,1.2,12.8,2,19.4
	C65.1,120,63.2,126.2,62.4,129.1L62.4,129.1C62.4,129.1,62.4,129.1,62.4,129.1"/>
<path class="st5" d="M62.2,96.3c-0.2,0-0.7,0-0.9,0c-0.3-1.8-0.7-3.5-0.9-5.3c0.8-1.6,1.6-2.7,2.6-4.1c0.9,0.9,1.8,1.8,2.7,2.7
	c-0.1,0.2-0.1,0.3-0.1,0.5c0,0,0,0,0-0.1c-0.2,2-0.7,4.1-1,6.2C63.7,96.3,63,96.4,62.2,96.3"/>
</svg>
